<svg xmlns="http://www.w3.org/2000/svg" width="900" height="520" font-family="sans-serif"><text x="40" y="32" font-size="13" fill="#333">j1 — 입력(파랑, 리더 지령·예시) vs 출력(빨강, 모터 실제각), [-23°, 75°], 305s</text><rect x="40" y="40" width="820" height="110" fill="none" stroke="#ddd"/><polyline fill="none" stroke="#1f77b4" stroke-width="1.2" points="40.0,121.4 40.7,121.4 41.3,121.6 42.0,121.6 42.7,121.3 43.4,121.2 44.0,121.2 44.7,121.5 45.4,121.4 46.0,121.5 46.7,121.9 47.4,122.0 48.1,122.0 48.7,121.5 49.4,121.1 50.1,121.1 50.7,121.6 51.4,121.9 52.1,121.8 52.8,121.6 53.4,121.2 54.1,121.1 54.8,121.0 55.4,121.4 56.1,121.3 56.8,121.3 57.5,121.3 58.1,121.6 58.8,121.4 59.5,121.6 60.1,121.0 60.8,120.7 61.5,120.4 62.2,120.5 62.8,121.3 63.5,121.6 64.2,121.6 64.8,121.6 65.5,121.2 66.2,121.4 66.9,121.2 67.5,121.4 68.2,121.6 68.9,121.9 69.5,121.9 70.2,121.9 70.9,121.8 71.6,121.6 72.2,121.3 72.9,121.1 73.6,121.3 74.2,121.4 74.9,122.1 75.6,121.8 76.3,121.6 76.9,121.2 77.6,121.8 78.3,122.1 78.9,122.1 79.6,122.1 80.3,122.0 81.0,121.5 81.6,121.0 82.3,121.3 83.0,121.3 83.6,121.4 84.3,121.2 85.0,121.5 85.7,121.7 86.3,121.7 87.0,122.3 87.7,122.3 88.3,122.0 89.0,121.4 89.7,121.0 90.4,121.4 91.0,121.4 91.7,121.5 92.4,121.4 93.0,121.3 93.7,121.1 94.4,120.4 95.1,120.3 95.7,120.1 96.4,120.6 97.1,121.1 97.7,121.2 98.4,121.2 99.1,121.0 99.8,121.3 100.4,121.6 101.1,121.5 101.8,119.8 102.4,118.5 103.1,117.5 103.8,116.0 104.5,112.0 105.1,107.9 105.8,101.9 106.5,95.9 107.1,89.7 107.8,85.9 108.5,82.0 109.2,79.2 109.8,77.0 110.5,72.2 111.2,65.2 111.8,56.7 112.5,50.0 113.2,47.3 113.9,52.7 114.5,63.9 115.2,80.5 115.9,99.7 116.5,115.0 117.2,125.5 117.9,131.4 118.6,134.3 119.2,135.7 119.9,137.7 120.6,140.6 121.2,143.8 121.9,144.4 122.6,143.2 123.3,137.7 123.9,130.9 124.6,122.4 125.3,115.5 125.9,109.1 126.6,105.0 127.3,100.0 128.0,95.7 128.6,90.8 129.3,87.7 130.0,87.6 130.6,93.2 131.3,100.5 132.0,108.3 132.7,114.2 133.3,116.8 134.0,116.8 134.7,114.8 135.3,110.8 136.0,104.0 136.7,96.6 137.4,88.7 138.0,82.6 138.7,79.1 139.4,80.0 140.0,82.5 140.7,85.0 141.4,87.3 142.1,89.6 142.7,94.7 143.4,101.6 144.1,107.8 144.7,113.9 145.4,119.3 146.1,121.6 146.8,121.8 147.4,121.6 148.1,121.2 148.8,121.1 149.4,120.7 150.1,120.3 150.8,119.7 151.5,120.4 152.1,120.8 152.8,120.3 153.5,119.4 154.2,118.5 154.8,116.7 155.5,115.5 156.2,116.0 156.8,116.8 157.5,117.5 158.2,117.5 158.9,117.0 159.5,116.0 160.2,114.9 160.9,113.8 161.5,113.1 162.2,112.5 162.9,112.1 163.6,111.5 164.2,111.2 164.9,112.1 165.6,113.6 166.2,115.3 166.9,116.8 167.6,118.3 168.3,118.6 168.9,119.5 169.6,119.5 170.3,122.3 170.9,124.4 171.6,127.4 172.3,130.1 173.0,132.2 173.6,132.0 174.3,129.8 175.0,128.5 175.6,126.6 176.3,125.7 177.0,125.6 177.7,126.0 178.3,125.2 179.0,122.3 179.7,118.4 180.3,112.6 181.0,107.8 181.7,102.2 182.4,98.3 183.0,96.0 183.7,94.4 184.4,92.7 185.0,90.9 185.7,90.8 186.4,91.3 187.1,93.7 187.7,97.7 188.4,103.1 189.1,109.4 189.7,116.6 190.4,121.7 191.1,122.8 191.8,122.0 192.4,120.9 193.1,121.8 193.8,122.9 194.4,124.5 195.1,126.0 195.8,127.6 196.5,127.4 197.1,126.8 197.8,125.9 198.5,125.0 199.1,124.6 199.8,125.1 200.5,126.6 201.2,129.0 201.8,130.1 202.5,130.7 203.2,130.2 203.8,129.1 204.5,125.9 205.2,122.7 205.9,119.6 206.5,118.8 207.2,119.5 207.9,122.5 208.5,126.0 209.2,129.4 209.9,131.5 210.6,132.0 211.2,131.7 211.9,129.7 212.6,127.5 213.2,125.6 213.9,123.9 214.6,123.3 215.3,123.6 215.9,125.5 216.6,128.0 217.3,129.0 217.9,128.5 218.6,127.7 219.3,127.8 220.0,128.3 220.6,129.6 221.3,130.2 222.0,130.4 222.6,130.1 223.3,130.6 224.0,131.7 224.7,133.5 225.3,134.6 226.0,135.4 226.7,136.0 227.3,135.5 228.0,134.6 228.7,133.1 229.4,131.6 230.0,130.0 230.7,128.6 231.4,126.1 232.0,123.7 232.7,121.0 233.4,118.9 234.1,118.6 234.7,119.4 235.4,120.2 236.1,121.2 236.7,122.9 237.4,123.7 238.1,124.9 238.8,125.8 239.4,126.9 240.1,127.0 240.8,127.1 241.4,126.3 242.1,125.9 242.8,125.1 243.5,125.2 244.1,124.9 244.8,124.9 245.5,125.2 246.1,125.3 246.8,125.0 247.5,124.7 248.2,124.5 248.8,124.9 249.5,124.9 250.2,125.1 250.8,124.6 251.5,124.2 252.2,124.2 252.9,125.0 253.5,125.7 254.2,125.9 254.9,125.1 255.5,124.8 256.2,123.9 256.9,124.8 257.6,124.6 258.2,124.8 258.9,124.9 259.6,125.0 260.2,124.9 260.9,124.5 261.6,124.1 262.3,124.6 262.9,124.4 263.6,124.7 264.3,124.0 264.9,123.7 265.6,122.3 266.3,119.3 267.0,113.8 267.6,106.6 268.3,98.9 269.0,92.1 269.6,87.0 270.3,84.2 271.0,83.3 271.7,83.2 272.3,83.4 273.0,82.8 273.7,82.5 274.3,83.6 275.0,86.5 275.7,91.1 276.4,96.7 277.0,102.4 277.7,105.7 278.4,107.0 279.0,106.5 279.7,105.3 280.4,105.6 281.1,108.2 281.7,111.8 282.4,115.8 283.1,119.4 283.7,122.1 284.4,124.2 285.1,124.9 285.8,125.8 286.4,126.2 287.1,126.2 287.8,124.8 288.4,123.4 289.1,122.0 289.8,120.2 290.5,118.3 291.1,117.3 291.8,118.0 292.5,119.2 293.1,120.3 293.8,121.3 294.5,121.1 295.2,119.0 295.8,115.8 296.5,113.9 297.2,112.8 297.8,112.4 298.5,112.6 299.2,114.5 299.9,117.4 300.5,120.3 301.2,123.8 301.9,126.3 302.5,126.9 303.2,125.8 303.9,124.4 304.6,121.6 305.2,116.8 305.9,113.8 306.6,110.2 307.2,106.2 307.9,103.1 308.6,102.4 309.3,101.4 309.9,102.0 310.6,103.2 311.3,104.3 311.9,104.6 312.6,105.4 313.3,107.2 314.0,109.7 314.6,113.1 315.3,116.7 316.0,120.2 316.6,122.5 317.3,124.7 318.0,126.1 318.7,126.7 319.3,126.6 320.0,125.2 320.7,122.0 321.3,117.2 322.0,112.3 322.7,107.1 323.4,105.0 324.0,106.0 324.7,109.3 325.4,112.9 326.0,116.5 326.7,116.3 327.4,110.8 328.1,103.7 328.7,96.8 329.4,91.7 330.1,88.7 330.7,88.8 331.4,91.9 332.1,96.7 332.8,102.9 333.4,105.6 334.1,104.8 334.8,100.8 335.4,97.3 336.1,97.2 336.8,102.4 337.5,111.1 338.1,117.5 338.8,119.4 339.5,115.7 340.1,110.9 340.8,108.2 341.5,110.7 342.2,115.3 342.8,118.8 343.5,119.3 344.2,117.3 344.8,113.5 345.5,108.6 346.2,103.9 346.9,98.5 347.5,91.4 348.2,83.8 348.9,76.0 349.5,69.5 350.2,64.9 350.9,61.6 351.6,59.3 352.2,57.2 352.9,56.0 353.6,54.9 354.2,53.9 354.9,52.1 355.6,50.1 356.3,47.9 356.9,47.8 357.6,51.9 358.3,61.7 358.9,74.1 359.6,88.8 360.3,102.1 361.0,110.5 361.6,115.1 362.3,117.2 363.0,118.5 363.6,119.4 364.3,120.0 365.0,119.9 365.7,119.4 366.3,119.2 367.0,119.4 367.7,119.6 368.3,119.4 369.0,119.9 369.7,119.9 370.4,119.9 371.0,119.6 371.7,120.1 372.4,120.0 373.0,120.3 373.7,120.0 374.4,120.2 375.1,120.1 375.7,120.4 376.4,120.4 377.1,120.9 377.7,121.5 378.4,122.0 379.1,122.1 379.8,121.9 380.4,122.0 381.1,121.9 381.8,121.8 382.5,121.7 383.1,121.5 383.8,121.2 384.5,120.9 385.1,120.3 385.8,120.5 386.5,120.6 387.2,121.3 387.8,121.2 388.5,120.9 389.2,119.4 389.8,116.9 390.5,113.9 391.2,111.1 391.9,108.5 392.5,107.1 393.2,106.9 393.9,107.8 394.5,108.8 395.2,110.9 395.9,113.1 396.6,114.7 397.2,115.0 397.9,113.6 398.6,111.1 399.2,108.3 399.9,105.5 400.6,102.6 401.3,98.9 401.9,95.8 402.6,92.9 403.3,91.7 403.9,91.6 404.6,94.0 405.3,97.8 406.0,102.6 406.6,107.5 407.3,112.1 408.0,117.1 408.6,122.1 409.3,126.9 410.0,131.3 410.7,133.9 411.3,134.9 412.0,135.6 412.7,137.9 413.3,140.6 414.0,144.4 414.7,146.5 415.4,144.9 416.0,140.3 416.7,135.5 417.4,134.4 418.0,136.0 418.7,137.8 419.4,137.5 420.1,134.3 420.7,125.9 421.4,114.6 422.1,105.4 422.7,101.1 423.4,99.3 424.1,98.3 424.8,98.5 425.4,99.0 426.1,99.3 426.8,99.3 427.4,98.6 428.1,99.1 428.8,99.2 429.5,100.2 430.1,100.2 430.8,100.4 431.5,100.6 432.1,101.2 432.8,101.6 433.5,102.2 434.2,102.9 434.8,103.4 435.5,103.9 436.2,105.0 436.8,107.0 437.5,109.3 438.2,112.0 438.9,115.5 439.5,118.5 440.2,121.4 440.9,123.7 441.5,123.8 442.2,123.2 442.9,120.8 443.6,118.8 444.2,117.6 444.9,116.5 445.6,114.4 446.2,109.0 446.9,103.4 447.6,99.1 448.3,96.2 448.9,94.4 449.6,94.9 450.3,96.3 450.9,98.5 451.6,104.7 452.3,111.4 453.0,117.0 453.6,120.9 454.3,122.8 455.0,120.5 455.6,118.3 456.3,116.4 457.0,114.3 457.7,110.6 458.3,105.3 459.0,100.4 459.7,96.5 460.3,93.6 461.0,91.3 461.7,90.4 462.4,90.7 463.0,92.9 463.7,96.6 464.4,102.8 465.0,110.7 465.7,117.7 466.4,122.6 467.1,125.9 467.7,126.4 468.4,125.2 469.1,124.2 469.7,123.3 470.4,122.6 471.1,121.8 471.8,122.1 472.4,121.9 473.1,122.2 473.8,121.9 474.4,122.1 475.1,122.3 475.8,122.6 476.5,120.6 477.1,115.8 477.8,110.2 478.5,104.4 479.1,97.6 479.8,92.6 480.5,89.4 481.2,86.8 481.8,84.5 482.5,82.9 483.2,82.8 483.8,88.0 484.5,98.6 485.2,109.7 485.9,116.2 486.5,119.5 487.2,117.9 487.9,110.4 488.5,104.0 489.2,103.0 489.9,107.1 490.6,111.3 491.2,116.4 491.9,118.4 492.6,119.0 493.2,119.3 493.9,119.2 494.6,119.6 495.3,119.8 495.9,120.2 496.6,120.1 497.3,119.9 497.9,120.1 498.6,120.4 499.3,120.4 500.0,120.1 500.6,119.8 501.3,119.8 502.0,120.3 502.6,120.3 503.3,120.0 504.0,119.4 504.7,119.0 505.3,119.3 506.0,119.2 506.7,119.4 507.3,118.8 508.0,118.9 508.7,119.2 509.4,119.3 510.0,119.2 510.7,119.0 511.4,119.3 512.0,119.7 512.7,119.7 513.4,119.7 514.1,119.2 514.7,118.9 515.4,119.0 516.1,119.1 516.7,119.2 517.4,119.7 518.1,119.7 518.8,118.1 519.4,114.2 520.1,110.2 520.8,105.9 521.4,101.3 522.1,97.4 522.8,95.3 523.5,93.1 524.1,90.5 524.8,87.7 525.5,87.4 526.1,86.6 526.8,86.8 527.5,85.8 528.2,86.5 528.8,86.7 529.5,87.2 530.2,88.2 530.8,90.2 531.5,92.9 532.2,95.5 532.9,98.4 533.5,102.4 534.2,108.0 534.9,115.6 535.5,124.7 536.2,132.8 536.9,136.9 537.6,137.4 538.2,135.8 538.9,132.7 539.6,128.8 540.2,124.6 540.9,121.4 541.6,116.8 542.3,111.9 542.9,107.9 543.6,107.0 544.3,107.7 544.9,110.5 545.6,113.1 546.3,116.3 547.0,118.0 547.6,117.4 548.3,115.8 549.0,113.9 549.6,111.5 550.3,108.7 551.0,106.7 551.7,105.7 552.3,105.5 553.0,105.4 553.7,105.3 554.3,106.1 555.0,106.9 555.7,107.7 556.4,107.5 557.0,106.9 557.7,106.6 558.4,107.0 559.0,107.0 559.7,106.8 560.4,107.1 561.1,107.2 561.7,107.1 562.4,106.9 563.1,108.2 563.7,110.1 564.4,112.8 565.1,115.4 565.8,118.3 566.4,120.1 567.1,120.3 567.8,119.5 568.4,118.0 569.1,117.2 569.8,117.8 570.5,118.7 571.1,119.9 571.8,119.6 572.5,119.5 573.1,118.4 573.8,116.9 574.5,115.8 575.2,113.6 575.8,113.4 576.5,113.6 577.2,115.2 577.8,115.7 578.5,116.9 579.2,117.7 579.9,119.1 580.5,119.8 581.2,120.0 581.9,119.3 582.5,118.9 583.2,118.2 583.9,117.9 584.6,117.7 585.2,118.1 585.9,118.0 586.6,117.9 587.2,117.6 587.9,117.8 588.6,118.0 589.3,117.8 589.9,118.2 590.6,118.2 591.3,118.5 591.9,118.0 592.6,118.5 593.3,118.7 594.0,119.3 594.6,119.1 595.3,118.7 596.0,118.1 596.6,118.1 597.3,118.3 598.0,118.2 598.7,118.0 599.3,118.1 600.0,118.1 600.7,118.1 601.3,118.0 602.0,117.6 602.7,117.8 603.4,117.7 604.0,118.7 604.7,118.3 605.4,118.1 606.0,118.1 606.7,118.0 607.4,118.2 608.1,118.0 608.7,118.3 609.4,118.1 610.1,118.0 610.8,118.0 611.4,118.8 612.1,119.5 612.8,120.8 613.4,119.8 614.1,118.5 614.8,115.7 615.5,113.7 616.1,111.2 616.8,110.0 617.5,108.2 618.1,106.9 618.8,105.8 619.5,106.0 620.2,105.2 620.8,104.2 621.5,102.5 622.2,100.8 622.8,99.2 623.5,97.1 624.2,96.2 624.9,95.9 625.5,96.7 626.2,97.6 626.9,97.9 627.5,98.3 628.2,98.8 628.9,99.2 629.6,99.3 630.2,100.2 630.9,103.0 631.6,106.9 632.2,111.6 632.9,116.3 633.6,118.4 634.3,119.4 634.9,118.7 635.6,116.6 636.3,114.7 636.9,113.1 637.6,113.2 638.3,114.3 639.0,116.5 639.6,117.9 640.3,119.1 641.0,118.4 641.6,117.9 642.3,117.0 643.0,116.9 643.7,117.0 644.3,116.9 645.0,116.7 645.7,116.0 646.3,117.0 647.0,119.2 647.7,121.7 648.4,124.1 649.0,126.6 649.7,127.4 650.4,126.7 651.0,125.1 651.7,123.2 652.4,121.7 653.1,118.2 653.7,114.2 654.4,108.1 655.1,101.4 655.7,95.2 656.4,90.1 657.1,85.8 657.8,83.7 658.4,84.1 659.1,85.9 659.8,88.3 660.4,90.7 661.1,93.0 661.8,94.7 662.5,96.6 663.1,100.2 663.8,104.2 664.5,109.5 665.1,114.7 665.8,118.5 666.5,119.1 667.2,119.1 667.8,117.4 668.5,116.3 669.2,114.2 669.8,111.9 670.5,112.1 671.2,114.1 671.9,116.2 672.5,116.8 673.2,116.3 673.9,112.4 674.5,108.8 675.2,107.3 675.9,108.2 676.6,110.9 677.2,114.7 677.9,115.4 678.6,116.0 679.2,114.9 679.9,111.6 680.6,107.8 681.3,105.3 681.9,102.7 682.6,99.6 683.3,100.4 683.9,101.8 684.6,103.5 685.3,105.3 686.0,106.7 686.6,108.8 687.3,110.5 688.0,114.0 688.6,116.6 689.3,118.2 690.0,118.9 690.7,119.4 691.3,119.9 692.0,120.1 692.7,119.5 693.3,119.2 694.0,119.1 694.7,119.8 695.4,120.2 696.0,119.9 696.7,119.8 697.4,119.7 698.0,120.1 698.7,120.0 699.4,119.8 700.1,119.3 700.7,118.8 701.4,118.9 702.1,119.0 702.7,119.3 703.4,118.9 704.1,118.8 704.8,118.7 705.4,118.4 706.1,118.4 706.8,118.3 707.4,118.5 708.1,118.3 708.8,118.4 709.5,118.9 710.1,118.9 710.8,119.0 711.5,118.8 712.1,118.3 712.8,117.2 713.5,116.1 714.2,115.9 714.8,114.6 715.5,112.7 716.2,110.8 716.8,108.9 717.5,107.1 718.2,105.8 718.9,105.7 719.5,105.8 720.2,106.1 720.9,105.8 721.5,106.0 722.2,106.1 722.9,106.6 723.6,106.6 724.2,106.4 724.9,106.2 725.6,106.2 726.2,106.0 726.9,106.1 727.6,106.4 728.3,107.0 728.9,106.7 729.6,106.4 730.3,106.0 730.9,106.0 731.6,106.1 732.3,105.9 733.0,105.9 733.6,106.2 734.3,106.3 735.0,106.4 735.6,106.2 736.3,106.2 737.0,106.2 737.7,106.0 738.3,105.7 739.0,105.6 739.7,105.4 740.3,105.8 741.0,105.6 741.7,106.1 742.4,106.3 743.0,106.7 743.7,106.6 744.4,106.5 745.0,106.0 745.7,105.9 746.4,105.8 747.1,106.6 747.7,107.4 748.4,106.9 749.1,104.3 749.7,99.9 750.4,93.9 751.1,86.6 751.8,80.0 752.4,78.3 753.1,80.8 753.8,87.8 754.4,97.1 755.1,107.0 755.8,114.7 756.5,118.5 757.1,120.5 757.8,118.9 758.5,118.0 759.1,118.8 759.8,123.3 760.5,128.7 761.2,134.3 761.8,137.3 762.5,136.4 763.2,134.2 763.8,131.3 764.5,130.3 765.2,130.4 765.9,130.3 766.5,131.1 767.2,131.9 767.9,131.3 768.5,128.2 769.2,126.5 769.9,124.0 770.6,120.8 771.2,117.7 771.9,117.0 772.6,116.2 773.2,115.5 773.9,116.2 774.6,116.7 775.3,117.2 775.9,117.8 776.6,118.2 777.3,118.0 777.9,118.7 778.6,119.4 779.3,119.4 780.0,119.6 780.6,119.4 781.3,118.7 782.0,118.1 782.6,117.4 783.3,117.8 784.0,117.9 784.7,117.2 785.3,115.4 786.0,113.5 786.7,111.7 787.3,110.3 788.0,109.2 788.7,107.2 789.4,105.1 790.0,102.5 790.7,100.4 791.4,95.6 792.0,88.8 792.7,80.3 793.4,69.3 794.1,58.8 794.7,50.2 795.4,45.1 796.1,41.2 796.7,41.0 797.4,41.0 798.1,41.0 798.8,41.0 799.4,41.0 800.1,41.0 800.8,41.0 801.4,41.0 802.1,41.0 802.8,41.0 803.5,41.0 804.1,46.1 804.8,56.2 805.5,68.4 806.1,81.7 806.8,93.8 807.5,102.4 808.2,109.2 808.8,113.3 809.5,115.5 810.2,116.4 810.8,117.0 811.5,117.6 812.2,117.8 812.9,117.7 813.5,117.6 814.2,117.3 814.9,117.2 815.5,117.2 816.2,117.3 816.9,117.6 817.6,117.6 818.2,117.4 818.9,117.6 819.6,117.8 820.2,117.9 820.9,118.0 821.6,118.3 822.3,118.5 822.9,118.9 823.6,119.2 824.3,119.5 824.9,119.4 825.6,119.4 826.3,119.5 827.0,119.9 827.6,120.3 828.3,120.7 829.0,121.0 829.6,121.2 830.3,122.2 831.0,124.6 831.7,128.3 832.3,132.0 833.0,136.7 833.7,140.2 834.3,142.2 835.0,141.3 835.7,138.2 836.4,133.5 837.0,128.5 837.7,123.5 838.4,120.7 839.1,120.0 839.7,120.5 840.4,121.1 841.1,121.5 841.7,121.8 842.4,121.5 843.1,121.4 843.8,121.1 844.4,121.3 845.1,121.7 845.8,121.5 846.4,121.3 847.1,121.0 847.8,121.0 848.5,121.3 849.1,121.4 849.8,121.7 850.5,121.7 851.1,122.1 851.8,122.1 852.5,122.1 853.2,122.1 853.8,121.7 854.5,121.5 855.2,120.9 855.8,121.1 856.5,121.0 857.2,121.5 857.9,121.6 858.5,121.4 859.2,121.1 859.9,120.7"/><polyline fill="none" stroke="#d62728" stroke-width="1.2" points="40.0,121.5 40.7,121.5 41.3,121.5 42.0,121.5 42.7,121.5 43.4,121.5 44.0,121.5 44.7,121.5 45.4,121.5 46.0,121.5 46.7,121.5 47.4,121.5 48.1,121.5 48.7,121.5 49.4,121.5 50.1,121.5 50.7,121.5 51.4,121.5 52.1,121.5 52.8,121.5 53.4,121.5 54.1,121.5 54.8,121.5 55.4,121.5 56.1,121.5 56.8,121.5 57.5,121.5 58.1,121.5 58.8,121.4 59.5,121.0 60.1,121.0 60.8,121.0 61.5,121.1 62.2,121.5 62.8,121.5 63.5,121.5 64.2,121.5 64.8,121.5 65.5,121.5 66.2,121.5 66.9,121.5 67.5,121.5 68.2,121.5 68.9,121.5 69.5,121.5 70.2,121.5 70.9,121.5 71.6,121.5 72.2,121.5 72.9,121.5 73.6,121.5 74.2,121.5 74.9,121.5 75.6,121.5 76.3,121.5 76.9,121.5 77.6,121.5 78.3,121.5 78.9,121.5 79.6,121.5 80.3,121.5 81.0,121.5 81.6,121.5 82.3,121.5 83.0,121.5 83.6,121.5 84.3,121.5 85.0,121.5 85.7,121.5 86.3,121.5 87.0,121.5 87.7,121.5 88.3,121.5 89.0,121.5 89.7,121.5 90.4,121.5 91.0,121.5 91.7,121.5 92.4,121.5 93.0,121.5 93.7,121.5 94.4,121.5 95.1,121.5 95.7,121.5 96.4,121.5 97.1,121.0 97.7,121.4 98.4,121.1 99.1,120.9 99.8,120.9 100.4,120.9 101.1,120.9 101.8,120.9 102.4,120.9 103.1,120.9 103.8,120.9 104.5,121.0 105.1,121.0 105.8,121.7 106.5,120.3 107.1,115.4 107.8,115.0 108.5,115.7 109.2,112.4 109.8,102.3 110.5,94.4 111.2,88.7 111.8,85.4 112.5,85.0 113.2,84.6 113.9,79.3 114.5,75.6 115.2,73.0 115.9,60.1 116.5,50.9 117.2,43.4 117.9,43.7 118.6,60.6 119.2,83.4 119.9,105.2 120.6,122.4 121.2,131.7 121.9,133.5 122.6,133.4 123.3,133.3 123.9,135.6 124.6,138.2 125.3,144.1 125.9,148.0 126.6,148.0 127.3,139.8 128.0,130.0 128.6,118.7 129.3,112.0 130.0,108.5 130.6,105.7 131.3,103.6 132.0,99.7 132.7,90.0 133.3,84.6 134.0,84.2 134.7,88.3 135.3,100.7 136.0,112.6 136.7,119.5 137.4,121.7 138.0,118.5 138.7,115.0 139.4,112.5 140.0,109.4 140.7,99.6 141.4,87.1 142.1,79.4 142.7,79.3 143.4,80.2 144.1,83.6 144.7,88.5 145.4,89.3 146.1,91.3 146.8,93.2 147.4,95.6 148.1,112.0 148.8,120.0 149.4,121.6 150.1,121.5 150.8,121.3 151.5,121.3 152.1,120.8 152.8,120.4 153.5,119.9 154.2,119.8 154.8,119.8 155.5,119.8 156.2,119.8 156.8,121.7 157.5,121.2 158.2,117.1 158.9,116.0 159.5,115.9 160.2,115.8 160.9,116.4 161.5,118.6 162.2,118.6 162.9,118.7 163.6,115.5 164.2,114.2 164.9,114.3 165.6,114.3 166.2,114.3 166.9,112.0 167.6,111.4 168.3,111.4 168.9,111.4 169.6,112.3 170.3,116.3 170.9,118.6 171.6,118.6 172.3,118.9 173.0,119.1 173.6,119.1 174.3,119.5 175.0,121.1 175.6,131.4 176.3,131.5 177.0,131.4 177.7,130.9 178.3,130.7 179.0,127.9 179.7,123.9 180.3,124.6 181.0,125.1 181.7,126.6 182.4,127.7 183.0,125.6 183.7,120.1 184.4,113.7 185.0,105.7 185.7,100.7 186.4,98.7 187.1,97.2 187.7,94.7 188.4,93.2 189.1,92.9 189.7,92.9 190.4,92.9 191.1,92.6 191.8,93.2 192.4,102.2 193.1,112.5 193.8,120.6 194.4,124.6 195.1,125.2 195.8,124.1 196.5,119.6 197.1,117.9 197.8,118.3 198.5,125.1 199.1,128.6 199.8,128.6 200.5,128.5 201.2,127.5 201.8,124.6 202.5,123.5 203.2,123.0 203.8,124.7 204.5,127.6 205.2,128.2 205.9,131.3 206.5,132.4 207.2,131.5 207.9,129.5 208.5,126.2 209.2,122.0 209.9,117.0 210.6,115.7 211.2,116.8 211.9,123.5 212.6,127.0 213.2,129.0 213.9,130.6 214.6,131.3 215.3,131.5 215.9,130.5 216.6,127.4 217.3,124.5 217.9,120.9 218.6,120.8 219.3,121.3 220.0,125.6 220.6,129.2 221.3,130.9 222.0,130.5 222.6,126.7 223.3,126.4 224.0,128.4 224.7,130.0 225.3,130.6 226.0,130.1 226.7,130.0 227.3,130.7 228.0,131.3 228.7,131.6 229.4,133.7 230.0,135.1 230.7,135.4 231.4,135.3 232.0,134.1 232.7,132.6 233.4,131.3 234.1,130.5 234.7,128.7 235.4,128.2 236.1,125.2 236.7,118.5 237.4,117.1 238.1,117.1 238.8,118.1 239.4,121.5 240.1,121.3 240.8,122.0 241.4,124.4 242.1,126.0 242.8,126.3 243.5,126.3 244.1,126.2 244.8,126.0 245.5,125.6 246.1,125.4 246.8,125.4 247.5,124.9 248.2,124.7 248.8,124.6 249.5,124.6 250.2,124.7 250.8,124.7 251.5,124.7 252.2,124.7 252.9,124.7 253.5,124.7 254.2,124.7 254.9,124.7 255.5,124.6 256.2,124.6 256.9,124.6 257.6,124.6 258.2,124.5 258.9,124.5 259.6,124.5 260.2,124.5 260.9,124.4 261.6,124.5 262.3,124.5 262.9,124.5 263.6,124.5 264.3,124.5 264.9,124.5 265.6,124.5 266.3,124.5 267.0,124.5 267.6,124.5 268.3,124.3 269.0,123.6 269.6,122.9 270.3,122.2 271.0,117.6 271.7,109.2 272.3,98.1 273.0,90.5 273.7,85.9 274.3,85.0 275.0,85.1 275.7,85.1 276.4,85.0 277.0,85.1 277.7,85.0 278.4,85.0 279.0,85.0 279.7,88.7 280.4,98.4 281.1,105.4 281.7,112.8 282.4,111.0 283.1,104.8 283.7,103.7 284.4,103.7 285.1,106.5 285.8,112.3 286.4,117.2 287.1,122.5 287.8,124.0 288.4,124.5 289.1,124.9 289.8,125.2 290.5,125.2 291.1,125.2 291.8,125.1 292.5,124.5 293.1,122.4 293.8,121.4 294.5,118.8 295.2,116.2 295.8,115.4 296.5,117.3 297.2,123.6 297.8,125.3 298.5,122.4 299.2,117.7 299.9,115.7 300.5,113.7 301.2,112.8 301.9,112.2 302.5,112.2 303.2,112.8 303.9,115.1 304.6,120.2 305.2,124.8 305.9,127.3 306.6,128.6 307.2,129.7 307.9,122.4 308.6,120.0 309.3,118.5 309.9,115.2 310.6,109.5 311.3,108.5 311.9,103.7 312.6,99.7 313.3,101.7 314.0,105.2 314.6,105.2 315.3,105.2 316.0,105.5 316.6,105.5 317.3,105.7 318.0,108.6 318.7,113.4 319.3,119.3 320.0,121.7 320.7,123.4 321.3,124.7 322.0,125.7 322.7,128.2 323.4,127.6 324.0,125.7 324.7,123.0 325.4,119.0 326.0,113.2 326.7,107.6 327.4,102.4 328.1,97.3 328.7,106.2 329.4,119.5 330.1,123.8 330.7,121.0 331.4,113.6 332.1,105.3 332.8,95.5 333.4,89.2 334.1,87.8 334.8,86.3 335.4,89.5 336.1,97.2 336.8,105.1 337.5,112.8 338.1,113.1 338.8,104.1 339.5,92.7 340.1,90.3 340.8,96.9 341.5,115.7 342.2,128.2 342.8,129.9 343.5,119.2 344.2,104.8 344.8,100.4 345.5,104.1 346.2,118.1 346.9,128.3 347.5,128.3 348.2,116.4 348.9,107.6 349.5,107.9 350.2,108.0 350.9,105.1 351.6,95.7 352.2,83.9 352.9,75.2 353.6,70.2 354.2,67.3 354.9,64.6 355.6,62.1 356.3,60.5 356.9,59.6 357.6,58.1 358.3,56.6 358.9,56.6 359.6,56.6 360.3,53.8 361.0,48.0 361.6,46.5 362.3,54.3 363.0,79.1 363.6,97.9 364.3,108.6 365.0,114.3 365.7,117.2 366.3,118.7 367.0,119.1 367.7,119.6 368.3,119.9 369.0,119.9 369.7,119.9 370.4,119.9 371.0,119.9 371.7,119.9 372.4,119.9 373.0,119.9 373.7,119.9 374.4,119.9 375.1,119.9 375.7,119.9 376.4,120.1 377.1,120.2 377.7,120.2 378.4,120.2 379.1,120.3 379.8,120.5 380.4,120.5 381.1,121.0 381.8,121.5 382.5,121.5 383.1,121.5 383.8,121.5 384.5,121.5 385.1,121.5 385.8,121.2 386.5,121.5 387.2,121.5 387.8,121.0 388.5,121.0 389.2,121.0 389.8,121.0 390.5,121.0 391.2,121.0 391.9,121.0 392.5,120.6 393.2,120.4 393.9,118.9 394.5,115.7 395.2,110.2 395.9,109.0 396.6,108.5 397.2,107.0 397.9,106.7 398.6,108.3 399.2,111.4 399.9,113.5 400.6,115.7 401.3,116.7 401.9,116.6 402.6,114.1 403.3,108.9 403.9,105.0 404.6,102.2 405.3,101.5 406.0,98.6 406.6,92.9 407.3,90.5 408.0,90.9 408.6,95.4 409.3,98.9 410.0,102.5 410.7,107.0 411.3,112.8 412.0,118.1 412.7,122.2 413.3,127.3 414.0,130.8 414.7,136.9 415.4,137.0 416.0,132.6 416.7,130.1 417.4,136.6 418.0,146.5 418.7,148.6 419.4,148.9 420.1,143.3 420.7,132.5 421.4,124.5 422.1,125.8 422.7,142.8 423.4,150.0 424.1,141.6 424.8,121.2 425.4,110.1 426.1,102.8 426.8,100.4 427.4,100.4 428.1,100.4 428.8,100.5 429.5,100.5 430.1,100.5 430.8,100.5 431.5,100.5 432.1,100.5 432.8,100.5 433.5,101.0 434.2,101.1 434.8,101.2 435.5,101.2 436.2,101.5 436.8,103.6 437.5,104.4 438.2,104.4 438.9,104.4 439.5,104.4 440.2,104.4 440.9,106.4 441.5,110.0 442.2,113.6 442.9,113.7 443.6,117.6 444.2,121.9 444.9,126.2 445.6,126.9 446.2,123.6 446.9,117.8 447.6,116.6 448.3,116.9 448.9,119.3 449.6,119.5 450.3,113.9 450.9,106.3 451.6,93.5 452.3,92.3 453.0,97.0 453.6,98.1 454.3,98.0 455.0,97.3 455.6,100.3 456.3,108.0 457.0,127.5 457.7,128.8 458.3,123.2 459.0,118.2 459.7,117.3 460.3,117.3 461.0,117.3 461.7,113.7 462.4,107.4 463.0,99.0 463.7,94.8 464.4,94.9 465.0,95.2 465.7,91.5 466.4,89.6 467.1,90.7 467.7,95.6 468.4,103.8 469.1,109.3 469.7,119.7 470.4,127.6 471.1,127.7 471.8,127.1 472.4,125.2 473.1,123.7 473.8,122.1 474.4,122.0 475.1,122.0 475.8,122.0 476.5,122.0 477.1,122.0 477.8,122.0 478.5,122.0 479.1,122.5 479.8,123.2 480.5,123.5 481.2,122.4 481.8,111.1 482.5,98.7 483.2,97.4 483.8,96.2 484.5,92.2 485.2,85.8 485.9,83.2 486.5,83.9 487.2,86.6 487.9,86.0 488.5,86.5 489.2,107.0 489.9,133.1 490.6,138.6 491.2,118.9 491.9,101.6 492.6,100.4 493.2,97.5 493.9,108.7 494.6,115.5 495.3,119.0 495.9,119.1 496.6,119.4 497.3,120.2 497.9,120.3 498.6,120.2 499.3,120.2 500.0,120.2 500.6,120.2 501.3,120.2 502.0,120.1 502.6,120.1 503.3,120.1 504.0,120.1 504.7,120.1 505.3,120.1 506.0,120.1 506.7,120.1 507.3,120.0 508.0,120.0 508.7,120.0 509.4,120.0 510.0,120.0 510.7,120.0 511.4,120.0 512.0,120.0 512.7,120.0 513.4,119.8 514.1,119.8 514.7,119.8 515.4,119.8 516.1,119.8 516.7,119.8 517.4,119.5 518.1,119.3 518.8,119.3 519.4,119.3 520.1,119.3 520.8,119.3 521.4,119.3 522.1,120.9 522.8,121.3 523.5,119.0 524.1,110.8 524.8,101.8 525.5,100.5 526.1,100.5 526.8,97.7 527.5,92.6 528.2,89.7 528.8,88.3 529.5,88.3 530.2,88.3 530.8,88.3 531.5,88.3 532.2,88.3 532.9,88.4 533.5,88.4 534.2,88.6 534.9,91.1 535.5,94.8 536.2,97.7 536.9,99.7 537.6,102.5 538.2,106.3 538.9,113.8 539.6,122.8 540.2,135.1 540.9,144.3 541.6,145.5 542.3,134.7 542.9,126.6 543.6,125.3 544.3,128.2 544.9,123.7 545.6,116.0 546.3,112.0 547.0,107.2 547.6,105.2 548.3,104.7 549.0,108.3 549.6,116.7 550.3,118.6 551.0,118.5 551.7,118.6 552.3,118.3 553.0,115.6 553.7,110.8 554.3,107.1 555.0,107.0 555.7,107.0 556.4,107.0 557.0,107.0 557.7,107.2 558.4,107.3 559.0,107.5 559.7,107.6 560.4,107.6 561.1,107.6 561.7,107.6 562.4,107.5 563.1,107.5 563.7,107.5 564.4,107.5 565.1,107.5 565.8,107.6 566.4,107.6 567.1,107.6 567.8,108.7 568.4,112.8 569.1,117.5 569.8,120.4 570.5,121.8 571.1,121.7 571.8,118.8 572.5,116.5 573.1,116.5 573.8,117.8 574.5,119.3 575.2,120.1 575.8,120.3 576.5,120.2 577.2,119.4 577.8,118.3 578.5,114.6 579.2,113.9 579.9,113.5 580.5,113.0 581.2,115.1 581.9,117.2 582.5,118.2 583.2,119.6 583.9,120.3 584.6,120.3 585.2,120.3 585.9,120.6 586.6,120.2 587.2,118.2 587.9,117.7 588.6,117.7 589.3,118.0 589.9,117.9 590.6,117.9 591.3,118.1 591.9,118.1 592.6,118.1 593.3,118.3 594.0,118.8 594.6,119.0 595.3,119.0 596.0,119.0 596.6,119.0 597.3,119.0 598.0,119.0 598.7,118.9 599.3,118.9 600.0,118.9 600.7,118.8 601.3,118.6 602.0,118.6 602.7,118.6 603.4,118.6 604.0,118.6 604.7,118.6 605.4,118.6 606.0,118.6 606.7,118.6 607.4,118.6 608.1,118.6 608.7,118.6 609.4,118.6 610.1,118.6 610.8,118.6 611.4,118.6 612.1,118.6 612.8,118.6 613.4,118.6 614.1,118.6 614.8,118.6 615.5,118.6 616.1,118.6 616.8,119.0 617.5,121.5 618.1,121.3 618.8,116.7 619.5,113.3 620.2,110.2 620.8,108.9 621.5,109.0 622.2,109.0 622.8,106.6 623.5,106.2 624.2,106.7 624.9,106.9 625.5,104.0 626.2,100.1 626.9,98.7 627.5,98.7 628.2,97.7 628.9,97.2 629.6,97.3 630.2,98.4 630.9,99.9 631.6,100.1 632.2,100.0 632.9,99.6 633.6,99.6 634.3,99.6 634.9,99.8 635.6,106.6 636.3,112.7 636.9,116.9 637.6,121.8 638.3,121.7 639.0,119.3 639.6,116.9 640.3,113.7 641.0,112.2 641.6,112.1 642.3,113.5 643.0,117.5 643.7,119.9 644.3,119.5 645.0,117.8 645.7,117.8 646.3,117.5 647.0,117.5 647.7,117.5 648.4,117.5 649.0,117.4 649.7,115.7 650.4,114.4 651.0,115.0 651.7,122.7 652.4,127.8 653.1,127.9 653.7,127.2 654.4,127.1 655.1,125.3 655.7,125.1 656.4,121.5 657.1,119.1 657.8,116.0 658.4,109.7 659.1,106.4 659.8,95.4 660.4,88.1 661.1,86.6 661.8,86.5 662.5,86.2 663.1,86.2 663.8,90.0 664.5,95.8 665.1,96.6 665.8,96.6 666.5,96.6 667.2,97.1 667.8,103.8 668.5,112.9 669.2,116.7 669.8,119.5 670.5,120.8 671.2,120.9 671.9,120.5 672.5,117.7 673.2,114.2 673.9,113.1 674.5,109.8 675.2,108.2 675.9,117.8 676.6,125.0 677.2,121.4 677.9,115.0 678.6,105.2 679.2,99.7 679.9,105.5 680.6,114.0 681.3,117.9 681.9,118.9 682.6,118.1 683.3,114.0 683.9,114.1 684.6,113.0 685.3,101.3 686.0,100.5 686.6,100.6 687.3,100.6 688.0,101.2 688.6,105.9 689.3,108.2 690.0,108.3 690.7,108.3 691.3,109.4 692.0,113.8 692.7,117.1 693.3,120.3 694.0,120.6 694.7,120.0 695.4,119.9 696.0,119.9 696.7,119.8 697.4,119.6 698.0,119.4 698.7,119.4 699.4,119.3 700.1,119.3 700.7,119.3 701.4,119.3 702.1,119.3 702.7,119.3 703.4,119.3 704.1,119.3 704.8,119.3 705.4,119.3 706.1,119.3 706.8,119.3 707.4,119.3 708.1,119.3 708.8,119.2 709.5,118.7 710.1,118.6 710.8,118.6 711.5,118.6 712.1,118.6 712.8,118.6 713.5,118.6 714.2,118.6 714.8,118.6 715.5,118.6 716.2,118.6 716.8,118.6 717.5,118.4 718.2,115.8 718.9,114.9 719.5,114.0 720.2,111.3 720.9,108.3 721.5,107.1 722.2,107.1 722.9,107.1 723.6,107.1 724.2,107.1 724.9,106.8 725.6,106.7 726.2,106.7 726.9,106.7 727.6,106.7 728.3,106.7 728.9,106.7 729.6,106.7 730.3,106.7 730.9,106.7 731.6,106.7 732.3,106.7 733.0,106.7 733.6,106.7 734.3,106.7 735.0,106.7 735.6,106.7 736.3,106.7 737.0,106.7 737.7,106.8 738.3,106.8 739.0,106.8 739.7,106.8 740.3,106.8 741.0,106.8 741.7,106.8 742.4,106.8 743.0,106.8 743.7,106.8 744.4,106.9 745.0,106.9 745.7,106.9 746.4,107.1 747.1,107.2 747.7,107.2 748.4,107.3 749.1,107.3 749.7,107.3 750.4,107.3 751.1,107.4 751.8,107.6 752.4,108.5 753.1,109.9 753.8,106.2 754.4,95.4 755.1,87.2 755.8,80.1 756.5,75.2 757.1,75.0 757.8,84.7 758.5,98.9 759.1,111.7 759.8,120.1 760.5,123.5 761.2,122.8 761.8,118.8 762.5,117.0 763.2,112.9 763.8,117.7 764.5,130.4 765.2,138.7 765.9,143.0 766.5,141.2 767.2,132.5 767.9,127.3 768.5,126.4 769.2,128.7 769.9,135.7 770.6,132.7 771.2,126.8 771.9,128.1 772.6,133.5 773.2,131.6 773.9,120.9 774.6,117.3 775.3,117.0 775.9,116.9 776.6,116.9 777.3,117.6 777.9,113.6 778.6,114.7 779.3,118.6 780.0,118.5 780.6,118.7 781.3,119.1 782.0,119.0 782.6,118.7 783.3,120.8 784.0,120.5 784.7,119.3 785.3,118.5 786.0,118.4 786.7,118.7 787.3,119.1 788.0,119.0 788.7,119.0 789.4,118.9 790.0,113.3 790.7,110.1 791.4,110.1 792.0,110.2 792.7,110.3 793.4,106.5 794.1,101.0 794.7,100.8 795.4,100.8 796.1,100.2 796.7,83.5 797.4,69.5 798.1,59.2 798.8,52.2 799.4,48.1 800.1,43.9 800.8,42.1 801.4,41.7 802.1,40.0 802.8,40.0 803.5,40.0 804.1,40.0 804.8,40.0 805.5,40.0 806.1,40.0 806.8,40.0 807.5,40.0 808.2,43.3 808.8,55.4 809.5,73.3 810.2,87.7 810.8,98.2 811.5,106.9 812.2,112.1 812.9,114.3 813.5,117.3 814.2,117.8 814.9,117.8 815.5,117.2 816.2,117.1 816.9,117.8 817.6,118.0 818.2,118.0 818.9,117.9 819.6,117.9 820.2,117.9 820.9,117.9 821.6,117.9 822.3,117.9 822.9,117.9 823.6,118.0 824.3,118.5 824.9,118.7 825.6,118.9 826.3,118.9 827.0,119.2 827.6,119.3 828.3,119.3 829.0,119.3 829.6,119.3 830.3,119.3 831.0,119.6 831.7,119.9 832.3,120.1 833.0,120.4 833.7,120.7 834.3,121.5 835.0,121.8 835.7,125.5 836.4,133.2 837.0,138.0 837.7,140.4 838.4,140.9 839.1,141.9 839.7,140.8 840.4,135.5 841.1,125.0 841.7,120.1 842.4,119.4 843.1,119.9 843.8,121.7 844.4,121.6 845.1,121.6 845.8,121.6 846.4,121.6 847.1,121.6 847.8,121.6 848.5,121.6 849.1,121.6 849.8,121.6 850.5,121.6 851.1,121.5 851.8,121.5 852.5,121.5 853.2,121.5 853.8,121.5 854.5,121.5 855.2,121.5 855.8,121.5 856.5,121.5 857.2,121.5 857.9,121.5 858.5,121.5 859.2,121.5 859.9,121.5"/><line x1="47.3" y1="40" x2="47.3" y2="150" stroke="#f0a000" stroke-dasharray="4 3"/><line x1="47.3" y1="40" x2="47.3" y2="150" stroke="#f0a000" stroke-dasharray="4 3"/><line x1="47.3" y1="40" x2="47.3" y2="150" stroke="#f0a000" stroke-dasharray="4 3"/><line x1="47.3" y1="40" x2="47.3" y2="150" stroke="#f0a000" stroke-dasharray="4 3"/><line x1="47.3" y1="40" x2="47.3" y2="150" stroke="#f0a000" stroke-dasharray="4 3"/><line x1="47.3" y1="40" x2="47.3" y2="150" stroke="#f0a000" stroke-dasharray="4 3"/><line x1="47.3" y1="40" x2="47.3" y2="150" stroke="#f0a000" stroke-dasharray="4 3"/><line x1="90.4" y1="40" x2="90.4" y2="150" stroke="#f0a000" stroke-dasharray="4 3"/><line x1="103.1" y1="40" x2="103.1" y2="150" stroke="#f0a000" stroke-dasharray="4 3"/><line x1="248.7" y1="40" x2="248.7" y2="150" stroke="#f0a000" stroke-dasharray="4 3"/><line x1="265.3" y1="40" x2="265.3" y2="150" stroke="#f0a000" stroke-dasharray="4 3"/><line x1="369.9" y1="40" x2="369.9" y2="150" stroke="#f0a000" stroke-dasharray="4 3"/><line x1="390.5" y1="40" x2="390.5" y2="150" stroke="#f0a000" stroke-dasharray="4 3"/><line x1="500.5" y1="40" x2="500.5" y2="150" stroke="#f0a000" stroke-dasharray="4 3"/><line x1="519.2" y1="40" x2="519.2" y2="150" stroke="#f0a000" stroke-dasharray="4 3"/><line x1="600.3" y1="40" x2="600.3" y2="150" stroke="#f0a000" stroke-dasharray="4 3"/><line x1="614.3" y1="40" x2="614.3" y2="150" stroke="#f0a000" stroke-dasharray="4 3"/><line x1="701.4" y1="40" x2="701.4" y2="150" stroke="#f0a000" stroke-dasharray="4 3"/><line x1="715.3" y1="40" x2="715.3" y2="150" stroke="#f0a000" stroke-dasharray="4 3"/><line x1="820.9" y1="40" x2="820.9" y2="150" stroke="#f0a000" stroke-dasharray="4 3"/><line x1="833.3" y1="40" x2="833.3" y2="150" stroke="#f0a000" stroke-dasharray="4 3"/><text x="40" y="192" font-size="13" fill="#333">j2 — 입력(파랑, 리더 지령·예시) vs 출력(빨강, 모터 실제각), [-69°, 23°], 305s</text><rect x="40" y="200" width="820" height="110" fill="none" stroke="#ddd"/><polyline fill="none" stroke="#1f77b4" stroke-width="1.2" points="40.0,218.0 40.7,218.1 41.3,217.9 42.0,218.1 42.7,217.6 43.4,217.4 44.0,217.6 44.7,217.7 45.4,218.0 46.0,217.5 46.7,217.5 47.4,217.5 48.1,217.8 48.7,218.3 49.4,218.5 50.1,218.6 50.7,218.5 51.4,218.7 52.1,218.8 52.8,218.6 53.4,218.5 54.1,218.9 54.8,219.1 55.4,219.3 56.1,219.1 56.8,219.1 57.5,218.5 58.1,218.0 58.8,217.8 59.5,217.6 60.1,217.8 60.8,218.0 61.5,218.2 62.2,218.5 62.8,218.0 63.5,218.0 64.2,218.1 64.8,218.5 65.5,218.7 66.2,218.8 66.9,219.1 67.5,218.8 68.2,218.7 68.9,218.3 69.5,218.5 70.2,218.2 70.9,218.5 71.6,218.3 72.2,218.4 72.9,218.3 73.6,218.7 74.2,218.6 74.9,218.7 75.6,218.3 76.3,218.6 76.9,218.5 77.6,218.3 78.3,218.2 78.9,218.1 79.6,218.4 80.3,218.1 81.0,218.0 81.6,217.7 82.3,218.3 83.0,218.1 83.6,218.3 84.3,218.1 85.0,218.5 85.7,218.9 86.3,219.0 87.0,218.7 87.7,218.3 88.3,218.2 89.0,218.4 89.7,218.6 90.4,218.1 91.0,218.2 91.7,218.4 92.4,218.4 93.0,218.3 93.7,217.8 94.4,218.0 95.1,217.6 95.7,217.8 96.4,217.7 97.1,217.8 97.7,218.1 98.4,218.4 99.1,218.7 99.8,219.1 100.4,220.9 101.1,223.2 101.8,225.8 102.4,229.1 103.1,232.2 103.8,234.8 104.5,237.6 105.1,240.8 105.8,242.4 106.5,244.5 107.1,245.8 107.8,246.0 108.5,244.2 109.2,243.6 109.8,245.5 110.5,248.9 111.2,253.0 111.8,258.4 112.5,263.8 113.2,268.3 113.9,270.9 114.5,271.5 115.2,270.0 115.9,267.3 116.5,264.1 117.2,259.1 117.9,254.7 118.6,252.2 119.2,251.3 119.9,251.3 120.6,251.9 121.2,253.6 121.9,254.4 122.6,255.2 123.3,254.7 123.9,255.1 124.6,254.8 125.3,255.3 125.9,256.6 126.6,258.6 127.3,261.7 128.0,265.1 128.6,268.7 129.3,272.9 130.0,276.3 130.6,278.1 131.3,277.3 132.0,274.6 132.7,270.8 133.3,267.2 134.0,263.2 134.7,260.9 135.3,261.1 136.0,263.2 136.7,265.4 137.4,267.4 138.0,269.7 138.7,270.5 139.4,270.7 140.0,269.3 140.7,268.1 141.4,266.8 142.1,266.0 142.7,264.5 143.4,263.4 144.1,261.8 144.7,260.3 145.4,258.6 146.1,257.9 146.8,257.2 147.4,255.7 148.1,255.0 148.8,254.3 149.4,253.8 150.1,252.5 150.8,252.0 151.5,251.9 152.1,252.2 152.8,251.3 153.5,249.9 154.2,248.2 154.8,246.6 155.5,244.4 156.2,243.7 156.8,243.3 157.5,244.3 158.2,244.6 158.9,244.4 159.5,243.6 160.2,242.4 160.9,242.6 161.5,243.1 162.2,244.5 162.9,245.2 163.6,245.4 164.2,245.0 164.9,243.9 165.6,243.3 166.2,242.7 166.9,242.2 167.6,242.2 168.3,242.0 168.9,242.4 169.6,242.2 170.3,243.0 170.9,244.0 171.6,245.3 172.3,246.3 173.0,247.2 173.6,247.7 174.3,248.0 175.0,248.1 175.6,248.3 176.3,248.5 177.0,248.8 177.7,249.4 178.3,250.4 179.0,251.2 179.7,249.9 180.3,247.4 181.0,243.5 181.7,240.0 182.4,235.6 183.0,232.4 183.7,229.3 184.4,226.9 185.0,224.6 185.7,222.8 186.4,222.9 187.1,225.6 187.7,230.1 188.4,235.0 189.1,240.6 189.7,245.9 190.4,248.6 191.1,249.6 191.8,249.8 192.4,250.4 193.1,250.3 193.8,249.6 194.4,247.6 195.1,244.3 195.8,241.1 196.5,239.6 197.1,240.5 197.8,241.8 198.5,243.2 199.1,244.4 199.8,245.3 200.5,245.5 201.2,245.0 201.8,244.2 202.5,243.6 203.2,244.0 203.8,245.1 204.5,247.3 205.2,249.1 205.9,251.9 206.5,254.0 207.2,254.8 207.9,254.3 208.5,252.4 209.2,251.0 209.9,248.8 210.6,247.6 211.2,246.7 211.9,246.9 212.6,247.6 213.2,248.7 213.9,249.4 214.6,250.0 215.3,250.2 215.9,250.4 216.6,250.0 217.3,249.4 217.9,247.7 218.6,246.4 219.3,244.8 220.0,243.2 220.6,242.6 221.3,242.0 222.0,242.3 222.6,241.7 223.3,241.8 224.0,241.1 224.7,240.9 225.3,240.9 226.0,240.5 226.7,240.1 227.3,239.7 228.0,239.9 228.7,240.7 229.4,241.3 230.0,242.5 230.7,243.9 231.4,245.0 232.0,245.5 232.7,244.3 233.4,242.8 234.1,240.9 234.7,239.3 235.4,237.8 236.1,237.7 236.7,237.5 237.4,236.8 238.1,234.9 238.8,233.8 239.4,232.0 240.1,230.8 240.8,229.4 241.4,228.1 242.1,226.9 242.8,226.6 243.5,226.5 244.1,226.6 244.8,225.5 245.5,225.7 246.1,225.3 246.8,226.4 247.5,225.9 248.2,225.9 248.8,225.4 249.5,225.1 250.2,225.1 250.8,224.6 251.5,225.1 252.2,225.0 252.9,225.2 253.5,224.8 254.2,224.6 254.9,224.5 255.5,224.2 256.2,224.1 256.9,224.3 257.6,224.5 258.2,224.9 258.9,224.5 259.6,224.9 260.2,224.3 260.9,224.6 261.6,224.7 262.3,225.8 262.9,228.0 263.6,231.2 264.3,234.2 264.9,237.7 265.6,242.6 266.3,246.3 267.0,249.5 267.6,251.6 268.3,251.0 269.0,247.1 269.6,241.3 270.3,234.9 271.0,229.2 271.7,226.3 272.3,225.6 273.0,225.8 273.7,225.7 274.3,227.5 275.0,231.9 275.7,237.1 276.4,243.2 277.0,248.5 277.7,252.5 278.4,253.7 279.0,254.8 279.7,255.1 280.4,255.5 281.1,255.6 281.7,256.6 282.4,257.0 283.1,257.7 283.7,258.3 284.4,258.9 285.1,259.1 285.8,260.4 286.4,260.9 287.1,260.5 287.8,259.2 288.4,257.7 289.1,256.1 289.8,254.1 290.5,252.6 291.1,252.3 291.8,251.5 292.5,250.1 293.1,248.5 293.8,247.6 294.5,246.3 295.2,245.3 295.8,245.7 296.5,247.1 297.2,249.3 297.8,252.4 298.5,255.4 299.2,256.5 299.9,255.9 300.5,253.8 301.2,251.4 301.9,248.6 302.5,246.4 303.2,245.4 303.9,244.2 304.6,243.8 305.2,244.5 305.9,248.3 306.6,252.9 307.2,259.8 307.9,265.2 308.6,269.0 309.3,270.8 309.9,270.0 310.6,266.9 311.3,263.2 311.9,260.7 312.6,259.5 313.3,257.6 314.0,256.5 314.6,255.2 315.3,253.1 316.0,250.9 316.6,249.4 317.3,248.5 318.0,247.5 318.7,248.7 319.3,252.7 320.0,257.3 320.7,264.1 321.3,271.9 322.0,279.7 322.7,286.0 323.4,291.4 324.0,293.4 324.7,294.0 325.4,292.6 326.0,291.7 326.7,290.8 327.4,291.9 328.1,293.8 328.7,295.6 329.4,296.0 330.1,295.6 330.7,295.3 331.4,294.9 332.1,294.0 332.8,292.7 333.4,291.7 334.1,290.3 334.8,289.1 335.4,288.5 336.1,287.8 336.8,286.7 337.5,285.1 338.1,284.1 338.8,282.5 339.5,281.4 340.1,281.0 340.8,281.6 341.5,280.6 342.2,279.3 342.8,277.8 343.5,277.2 344.2,276.8 344.8,277.3 345.5,278.2 346.2,279.6 346.9,277.8 347.5,273.2 348.2,265.8 348.9,256.3 349.5,243.2 350.2,231.3 350.9,221.3 351.6,213.5 352.2,208.0 352.9,203.9 353.6,201.8 354.2,201.0 354.9,201.0 355.6,201.0 356.3,201.6 356.9,204.7 357.6,211.5 358.3,219.6 358.9,226.4 359.6,232.2 360.3,235.3 361.0,234.6 361.6,231.7 362.3,229.8 363.0,228.8 363.6,228.3 364.3,227.3 365.0,226.4 365.7,225.4 366.3,225.6 367.0,225.2 367.7,225.2 368.3,224.5 369.0,225.1 369.7,224.9 370.4,225.2 371.0,225.1 371.7,225.3 372.4,225.1 373.0,224.5 373.7,224.5 374.4,224.3 375.1,224.1 375.7,224.2 376.4,224.3 377.1,224.6 377.7,224.1 378.4,223.9 379.1,224.1 379.8,224.2 380.4,224.0 381.1,223.7 381.8,223.7 382.5,223.7 383.1,223.9 383.8,223.7 384.5,223.9 385.1,223.8 385.8,224.1 386.5,224.0 387.2,224.6 387.8,226.7 388.5,229.0 389.2,232.4 389.8,236.9 390.5,241.7 391.2,245.4 391.9,248.8 392.5,252.8 393.2,255.7 393.9,257.6 394.5,258.6 395.2,258.0 395.9,256.7 396.6,254.3 397.2,252.2 397.9,249.8 398.6,249.5 399.2,251.2 399.9,254.4 400.6,257.9 401.3,261.5 401.9,264.1 402.6,265.0 403.3,265.0 403.9,263.9 404.6,262.1 405.3,260.1 406.0,257.0 406.6,255.1 407.3,253.7 408.0,253.7 408.6,253.4 409.3,253.5 410.0,252.7 410.7,250.4 411.3,247.1 412.0,243.5 412.7,240.1 413.3,237.3 414.0,236.5 414.7,236.3 415.4,237.0 416.0,236.7 416.7,237.0 417.4,237.7 418.0,238.7 418.7,239.4 419.4,239.8 420.1,240.6 420.7,240.3 421.4,239.9 422.1,238.7 422.7,238.3 423.4,238.1 424.1,238.8 424.8,239.1 425.4,239.4 426.1,239.8 426.8,240.2 427.4,239.6 428.1,238.5 428.8,237.3 429.5,236.8 430.1,236.0 430.8,235.3 431.5,234.6 432.1,234.0 432.8,233.1 433.5,232.6 434.2,231.7 434.8,232.6 435.5,233.0 436.2,233.3 436.8,234.8 437.5,237.5 438.2,240.1 438.9,242.9 439.5,245.2 440.2,248.0 440.9,251.8 441.5,258.0 442.2,265.5 442.9,273.0 443.6,280.0 444.2,285.8 444.9,291.4 445.6,295.5 446.2,302.1 446.9,306.9 447.6,309.0 448.3,309.0 448.9,309.0 449.6,309.0 450.3,308.7 450.9,305.8 451.6,302.9 452.3,299.1 453.0,296.6 453.6,293.9 454.3,291.7 455.0,291.9 455.6,291.4 456.3,291.6 457.0,291.4 457.7,291.5 458.3,291.5 459.0,291.1 459.7,291.4 460.3,291.7 461.0,291.3 461.7,290.3 462.4,288.8 463.0,287.5 463.7,285.4 464.4,281.0 465.0,275.8 465.7,269.4 466.4,262.8 467.1,254.3 467.7,247.6 468.4,240.8 469.1,236.2 469.7,231.7 470.4,228.4 471.1,225.2 471.8,222.5 472.4,221.0 473.1,219.8 473.8,220.0 474.4,222.2 475.1,228.0 475.8,238.6 476.5,254.1 477.1,272.2 477.8,287.7 478.5,298.8 479.1,305.6 479.8,308.6 480.5,309.0 481.2,309.0 481.8,309.0 482.5,309.0 483.2,309.0 483.8,308.5 484.5,306.5 485.2,304.2 485.9,301.5 486.5,299.0 487.2,296.7 487.9,293.6 488.5,287.1 489.2,276.3 489.9,264.0 490.6,251.0 491.2,239.7 491.9,232.0 492.6,228.7 493.2,225.5 493.9,223.5 494.6,222.6 495.3,222.5 495.9,222.2 496.6,221.8 497.3,220.6 497.9,220.4 498.6,220.4 499.3,220.6 500.0,220.6 500.6,220.3 501.3,219.8 502.0,219.5 502.6,219.5 503.3,220.0 504.0,219.9 504.7,219.7 505.3,219.6 506.0,220.0 506.7,220.3 507.3,220.4 508.0,220.2 508.7,219.7 509.4,219.3 510.0,219.2 510.7,219.6 511.4,220.0 512.0,220.0 512.7,219.1 513.4,218.4 514.1,218.4 514.7,218.7 515.4,218.9 516.1,219.5 516.7,222.0 517.4,226.9 518.1,232.3 518.8,238.8 519.4,245.6 520.1,251.5 520.8,256.6 521.4,260.9 522.1,264.9 522.8,266.8 523.5,267.2 524.1,266.9 524.8,265.3 525.5,263.4 526.1,260.5 526.8,258.6 527.5,255.7 528.2,254.4 528.8,254.7 529.5,256.1 530.2,257.3 530.8,257.7 531.5,257.1 532.2,256.5 532.9,256.0 533.5,255.9 534.2,256.3 534.9,256.4 535.5,256.7 536.2,256.7 536.9,255.6 537.6,253.9 538.2,252.5 538.9,252.2 539.6,253.3 540.2,255.7 540.9,259.1 541.6,261.8 542.3,264.7 542.9,266.3 543.6,267.6 544.3,267.7 544.9,265.3 545.6,262.5 546.3,258.2 547.0,253.7 547.6,249.7 548.3,251.1 549.0,253.7 549.6,257.1 550.3,261.5 551.0,265.8 551.7,268.2 552.3,269.2 553.0,269.1 553.7,269.0 554.3,269.3 555.0,269.1 555.7,268.7 556.4,267.7 557.0,267.7 557.7,267.5 558.4,267.4 559.0,266.7 559.7,266.2 560.4,266.0 561.1,266.1 561.7,266.2 562.4,266.1 563.1,265.2 563.7,263.8 564.4,262.6 565.1,260.1 565.8,256.6 566.4,252.6 567.1,249.8 567.8,246.6 568.4,244.6 569.1,242.9 569.8,240.3 570.5,236.9 571.1,234.1 571.8,231.9 572.5,231.5 573.1,232.3 573.8,232.7 574.5,232.5 575.2,231.0 575.8,230.8 576.5,229.9 577.2,230.9 577.8,230.9 578.5,229.4 579.2,226.8 579.9,224.4 580.5,222.8 581.2,223.2 581.9,224.5 582.5,226.1 583.2,228.0 583.9,231.9 584.6,236.3 585.2,239.7 585.9,241.1 586.6,240.0 587.2,236.9 587.9,232.8 588.6,228.3 589.3,226.0 589.9,224.8 590.6,224.9 591.3,224.6 591.9,223.9 592.6,222.9 593.3,222.9 594.0,222.8 594.6,223.8 595.3,224.3 596.0,224.7 596.6,224.3 597.3,223.7 598.0,223.9 598.7,223.8 599.3,223.8 600.0,223.9 600.7,224.0 601.3,224.5 602.0,223.8 602.7,223.5 603.4,222.8 604.0,223.4 604.7,223.4 605.4,223.7 606.0,223.2 606.7,223.3 607.4,223.7 608.1,224.4 608.7,224.0 609.4,223.5 610.1,223.3 610.8,223.8 611.4,225.6 612.1,230.0 612.8,236.0 613.4,243.2 614.1,250.3 614.8,256.2 615.5,258.8 616.1,260.3 616.8,260.3 617.5,260.5 618.1,260.2 618.8,260.2 619.5,258.6 620.2,257.6 620.8,255.9 621.5,254.7 622.2,253.6 622.8,252.7 623.5,252.7 624.2,252.0 624.9,252.6 625.5,253.0 626.2,253.7 626.9,254.4 627.5,254.2 628.2,254.7 628.9,254.8 629.6,255.2 630.2,255.1 630.9,255.6 631.6,256.2 632.2,255.9 632.9,256.5 633.6,256.6 634.3,257.1 634.9,257.2 635.6,257.1 636.3,257.8 636.9,257.9 637.6,258.0 638.3,257.2 639.0,256.7 639.6,255.1 640.3,253.5 641.0,251.6 641.6,251.5 642.3,252.4 643.0,253.1 643.7,253.8 644.3,253.9 645.0,254.1 645.7,254.5 646.3,254.7 647.0,254.4 647.7,252.2 648.4,249.3 649.0,246.2 649.7,244.2 650.4,246.4 651.0,250.4 651.7,256.9 652.4,265.6 653.1,274.9 653.7,280.6 654.4,285.3 655.1,289.1 655.7,291.5 656.4,292.9 657.1,293.5 657.8,293.8 658.4,292.7 659.1,290.9 659.8,289.3 660.4,287.6 661.1,286.5 661.8,285.5 662.5,284.6 663.1,283.8 663.8,283.0 664.5,282.4 665.1,281.2 665.8,280.3 666.5,278.9 667.2,278.1 667.8,276.5 668.5,276.0 669.2,275.4 669.8,274.9 670.5,271.7 671.2,267.1 671.9,261.3 672.5,253.1 673.2,245.0 673.9,239.0 674.5,235.5 675.2,233.1 675.9,231.8 676.6,230.0 677.2,229.2 677.9,227.9 678.6,227.0 679.2,227.2 679.9,227.6 680.6,229.2 681.3,230.1 681.9,231.6 682.6,232.9 683.3,233.1 683.9,232.4 684.6,231.9 685.3,231.7 686.0,232.9 686.6,233.8 687.3,235.7 688.0,235.8 688.6,234.9 689.3,231.7 690.0,227.8 690.7,224.8 691.3,222.8 692.0,221.5 692.7,221.0 693.3,220.7 694.0,221.4 694.7,221.4 695.4,221.4 696.0,221.1 696.7,220.8 697.4,220.8 698.0,221.5 698.7,221.3 699.4,221.5 700.1,221.0 700.7,221.1 701.4,220.9 702.1,220.4 702.7,220.8 703.4,221.1 704.1,221.5 704.8,220.9 705.4,220.8 706.1,220.8 706.8,221.1 707.4,220.5 708.1,220.4 708.8,220.2 709.5,220.4 710.1,220.4 710.8,220.5 711.5,220.8 712.1,220.9 712.8,222.1 713.5,223.5 714.2,226.0 714.8,228.7 715.5,231.7 716.2,234.1 716.8,236.2 717.5,237.5 718.2,237.6 718.9,237.2 719.5,237.0 720.2,236.5 720.9,236.6 721.5,236.0 722.2,235.5 722.9,235.0 723.6,233.5 724.2,232.5 724.9,231.9 725.6,232.2 726.2,232.2 726.9,231.9 727.6,232.0 728.3,231.9 728.9,231.8 729.6,231.3 730.3,231.3 730.9,231.6 731.6,232.0 732.3,231.9 733.0,232.1 733.6,231.8 734.3,231.6 735.0,231.3 735.6,231.6 736.3,231.8 737.0,231.6 737.7,231.2 738.3,230.7 739.0,230.6 739.7,231.1 740.3,231.6 741.0,231.3 741.7,231.2 742.4,231.1 743.0,231.3 743.7,231.7 744.4,231.9 745.0,232.3 745.7,232.9 746.4,233.5 747.1,234.0 747.7,234.2 748.4,234.5 749.1,235.0 749.7,235.3 750.4,237.4 751.1,241.9 751.8,248.3 752.4,255.9 753.1,263.1 753.8,269.0 754.4,270.4 755.1,267.2 755.8,261.1 756.5,254.9 757.1,250.3 757.8,249.3 758.5,250.6 759.1,253.5 759.8,256.5 760.5,256.5 761.2,252.7 761.8,247.8 762.5,244.3 763.2,241.9 763.8,241.2 764.5,241.7 765.2,242.3 765.9,243.0 766.5,243.4 767.2,243.8 767.9,243.4 768.5,243.0 769.2,243.4 769.9,245.1 770.6,247.0 771.2,248.3 771.9,250.7 772.6,254.4 773.2,258.0 773.9,257.7 774.6,257.0 775.3,254.1 775.9,250.1 776.6,245.8 777.3,243.4 777.9,242.9 778.6,243.5 779.3,243.5 780.0,242.4 780.6,240.3 781.3,237.3 782.0,234.8 782.6,233.7 783.3,232.8 784.0,232.3 784.7,232.1 785.3,232.0 786.0,231.9 786.7,232.4 787.3,232.5 788.0,234.3 788.7,235.8 789.4,236.7 790.0,237.1 790.7,237.6 791.4,236.8 792.0,234.6 792.7,231.4 793.4,228.2 794.1,225.1 794.7,222.8 795.4,220.4 796.1,218.2 796.7,216.1 797.4,214.2 798.1,212.1 798.8,210.8 799.4,209.1 800.1,208.6 800.8,208.0 801.4,208.3 802.1,208.1 802.8,209.9 803.5,213.6 804.1,219.1 804.8,225.9 805.5,232.2 806.1,236.6 806.8,239.4 807.5,242.3 808.2,245.6 808.8,246.7 809.5,245.9 810.2,243.6 810.8,239.3 811.5,232.5 812.2,227.2 812.9,224.3 813.5,222.3 814.2,220.9 814.9,220.0 815.5,219.1 816.2,218.8 816.9,218.8 817.6,218.9 818.2,219.3 818.9,219.0 819.6,219.3 820.2,219.3 820.9,219.8 821.6,219.6 822.3,219.5 822.9,219.6 823.6,219.7 824.3,220.4 824.9,219.9 825.6,220.0 826.3,219.4 827.0,219.6 827.6,219.6 828.3,219.9 829.0,220.7 829.6,221.8 830.3,224.4 831.0,228.4 831.7,234.7 832.3,241.4 833.0,247.8 833.7,252.1 834.3,253.4 835.0,253.2 835.7,252.1 836.4,250.2 837.0,247.7 837.7,245.5 838.4,242.8 839.1,240.9 839.7,239.4 840.4,238.3 841.1,237.4 841.7,236.7 842.4,236.6 843.1,236.6 843.8,236.8 844.4,236.5 845.1,235.5 845.8,233.5 846.4,230.1 847.1,226.6 847.8,222.8 848.5,219.9 849.1,218.7 849.8,218.0 850.5,217.7 851.1,217.5 851.8,217.9 852.5,218.0 853.2,218.1 853.8,218.0 854.5,218.3 855.2,218.2 855.8,218.4 856.5,218.1 857.2,218.1 857.9,218.3 858.5,218.7 859.2,218.9 859.9,218.8"/><polyline fill="none" stroke="#d62728" stroke-width="1.2" points="40.0,218.3 40.7,218.3 41.3,218.3 42.0,218.3 42.7,218.3 43.4,218.2 44.0,218.3 44.7,218.3 45.4,218.3 46.0,218.3 46.7,218.3 47.4,218.3 48.1,218.3 48.7,218.3 49.4,218.3 50.1,218.3 50.7,218.3 51.4,218.3 52.1,218.3 52.8,218.3 53.4,218.3 54.1,218.3 54.8,218.3 55.4,218.3 56.1,218.3 56.8,218.3 57.5,218.3 58.1,218.3 58.8,218.3 59.5,218.3 60.1,218.3 60.8,218.3 61.5,218.3 62.2,218.3 62.8,218.3 63.5,218.3 64.2,218.3 64.8,218.3 65.5,218.3 66.2,218.3 66.9,218.3 67.5,218.3 68.2,218.3 68.9,218.3 69.5,218.3 70.2,218.3 70.9,218.3 71.6,218.3 72.2,218.3 72.9,218.3 73.6,218.3 74.2,218.3 74.9,218.3 75.6,218.3 76.3,218.3 76.9,218.3 77.6,218.3 78.3,218.3 78.9,218.3 79.6,218.3 80.3,218.3 81.0,218.3 81.6,218.3 82.3,218.3 83.0,218.3 83.6,218.3 84.3,218.3 85.0,218.3 85.7,218.3 86.3,218.3 87.0,218.3 87.7,218.3 88.3,218.3 89.0,218.3 89.7,218.3 90.4,218.3 91.0,218.3 91.7,218.3 92.4,218.3 93.0,218.2 93.7,218.3 94.4,218.3 95.1,218.3 95.7,218.3 96.4,218.3 97.1,218.3 97.7,218.3 98.4,218.3 99.1,218.3 99.8,218.3 100.4,218.3 101.1,218.3 101.8,218.3 102.4,218.3 103.1,218.3 103.8,218.3 104.5,218.3 105.1,219.8 105.8,227.8 106.5,229.5 107.1,231.3 107.8,231.6 108.5,233.4 109.2,239.0 109.8,243.7 110.5,246.1 111.2,242.6 111.8,243.5 112.5,245.9 113.2,242.8 113.9,239.0 114.5,240.7 115.2,252.0 115.9,260.6 116.5,263.2 117.2,264.4 117.9,267.8 118.6,272.6 119.2,273.0 119.9,265.5 120.6,257.2 121.2,256.5 121.9,256.4 122.6,249.1 123.3,244.7 123.9,246.8 124.6,252.7 125.3,254.5 125.9,252.1 126.6,252.0 127.3,251.9 128.0,252.3 128.6,253.9 129.3,253.8 130.0,253.6 130.6,254.0 131.3,256.6 132.0,261.9 132.7,267.6 133.3,270.2 134.0,273.7 134.7,276.2 135.3,276.3 136.0,274.4 136.7,267.8 137.4,260.6 138.0,258.1 138.7,257.9 139.4,257.9 140.0,258.2 140.7,262.7 141.4,266.8 142.1,268.6 142.7,268.9 143.4,268.6 144.1,266.0 144.7,264.1 145.4,263.4 146.1,263.1 146.8,262.5 147.4,261.6 148.1,257.0 148.8,255.9 149.4,256.0 150.1,255.5 150.8,255.3 151.5,254.5 152.1,253.7 152.8,252.6 153.5,250.7 154.2,250.0 154.8,249.7 155.5,249.7 156.2,249.7 156.8,249.8 157.5,250.3 158.2,246.4 158.9,243.5 159.5,241.5 160.2,241.4 160.9,242.1 161.5,243.4 162.2,243.9 162.9,244.0 163.6,242.1 164.2,240.2 164.9,239.7 165.6,240.8 166.2,244.0 166.9,244.9 167.6,245.0 168.3,242.9 168.9,241.8 169.6,241.1 170.3,241.0 170.9,241.0 171.6,241.0 172.3,240.9 173.0,240.5 173.6,240.5 174.3,240.5 175.0,241.0 175.6,245.1 176.3,246.0 177.0,246.1 177.7,246.1 178.3,246.1 179.0,246.1 179.7,246.1 180.3,247.1 181.0,247.8 181.7,249.0 182.4,249.1 183.0,249.5 183.7,249.5 184.4,249.3 185.0,243.9 185.7,237.3 186.4,233.1 187.1,231.6 187.7,230.5 188.4,227.1 189.1,222.6 189.7,222.0 190.4,221.4 191.1,221.2 191.8,223.9 192.4,236.4 193.1,243.9 193.8,247.6 194.4,247.5 195.1,247.5 195.8,247.0 196.5,247.9 197.1,249.9 197.8,250.4 198.5,246.2 199.1,241.3 199.8,238.5 200.5,237.8 201.2,238.0 201.8,241.0 202.5,242.3 203.2,244.2 203.8,244.6 204.5,244.6 205.2,243.7 205.9,241.7 206.5,241.6 207.2,241.6 207.9,241.6 208.5,243.3 209.2,248.7 209.9,251.8 210.6,252.3 211.2,252.6 211.9,254.1 212.6,254.2 213.2,250.6 213.9,245.3 214.6,243.8 215.3,243.8 215.9,247.0 216.6,247.5 217.3,247.6 217.9,247.6 218.6,247.5 219.3,247.6 220.0,248.8 220.6,248.8 221.3,248.6 222.0,247.7 222.6,243.8 223.3,242.0 224.0,241.2 224.7,240.9 225.3,240.8 226.0,240.6 226.7,239.6 227.3,239.4 228.0,239.4 228.7,239.4 229.4,239.4 230.0,239.5 230.7,239.5 231.4,239.4 232.0,238.6 232.7,238.1 233.4,238.1 234.1,240.7 234.7,243.6 235.4,243.8 236.1,243.8 236.7,243.9 237.4,243.7 238.1,240.1 238.8,236.8 239.4,236.9 240.1,237.3 240.8,237.2 241.4,237.1 242.1,234.9 242.8,232.6 243.5,230.9 244.1,230.0 244.8,228.1 245.5,227.5 246.1,227.0 246.8,226.1 247.5,225.8 248.2,225.8 248.8,225.8 249.5,225.6 250.2,225.3 250.8,225.3 251.5,225.3 252.2,225.1 252.9,225.0 253.5,224.7 254.2,224.7 254.9,224.3 255.5,224.2 256.2,224.2 256.9,224.3 257.6,224.3 258.2,224.3 258.9,224.3 259.6,224.3 260.2,224.3 260.9,224.3 261.6,224.3 262.3,224.3 262.9,224.3 263.6,224.3 264.3,224.3 264.9,224.3 265.6,224.3 266.3,224.3 267.0,224.5 267.6,227.3 268.3,233.6 269.0,238.4 269.6,239.4 270.3,244.1 271.0,250.4 271.7,252.7 272.3,252.7 273.0,249.8 273.7,239.1 274.3,229.8 275.0,226.2 275.7,225.1 276.4,224.8 277.0,225.1 277.7,225.3 278.4,225.1 279.0,225.3 279.7,234.4 280.4,247.0 281.1,250.5 281.7,250.4 282.4,250.8 283.1,253.4 283.7,253.5 284.4,253.2 285.1,252.6 285.8,253.0 286.4,255.7 287.1,255.8 287.8,255.8 288.4,255.9 289.1,256.6 289.8,257.6 290.5,258.8 291.1,258.8 291.8,258.5 292.5,254.3 293.1,253.6 293.8,251.8 294.5,250.4 295.2,249.6 295.8,249.2 296.5,250.2 297.2,248.6 297.8,243.4 298.5,242.8 299.2,244.5 299.9,244.9 300.5,245.7 301.2,247.0 301.9,249.7 302.5,255.4 303.2,258.4 303.9,258.4 304.6,250.3 305.2,246.8 305.9,246.8 306.6,248.5 307.2,245.8 307.9,240.0 308.6,240.1 309.3,241.2 309.9,245.3 310.6,250.8 311.3,253.6 311.9,263.8 312.6,273.0 313.3,273.6 314.0,267.5 314.6,261.9 315.3,259.9 316.0,258.3 316.6,256.4 317.3,255.2 318.0,253.8 318.7,251.9 319.3,252.0 320.0,252.0 320.7,246.8 321.3,244.4 322.0,244.9 322.7,246.5 323.4,246.5 324.0,253.1 324.7,261.3 325.4,267.6 326.0,277.0 326.7,283.8 327.4,289.5 328.1,293.0 328.7,292.7 329.4,286.9 330.1,283.0 330.7,283.4 331.4,288.4 332.1,291.4 332.8,292.7 333.4,292.7 334.1,292.4 334.8,291.1 335.4,290.1 336.1,289.8 336.8,289.5 337.5,286.6 338.1,285.2 338.8,285.0 339.5,284.5 340.1,284.0 340.8,284.0 341.5,283.9 342.2,279.5 342.8,278.0 343.5,278.2 344.2,278.6 344.8,278.6 345.5,278.6 346.2,277.8 346.9,273.0 347.5,272.5 348.2,273.0 348.9,274.7 349.5,274.8 350.2,275.0 350.9,277.9 351.6,278.9 352.2,268.1 352.9,252.5 353.6,240.7 354.2,227.9 354.9,217.5 355.6,211.6 356.3,207.4 356.9,204.1 357.6,201.1 358.3,200.0 358.9,200.0 359.6,200.0 360.3,201.8 361.0,204.2 361.6,205.4 362.3,215.1 363.0,232.4 363.6,239.2 364.3,237.3 365.0,233.3 365.7,231.3 366.3,228.8 367.0,226.6 367.7,225.9 368.3,225.9 369.0,225.7 369.7,225.4 370.4,225.1 371.0,225.1 371.7,224.7 372.4,224.8 373.0,224.4 373.7,224.4 374.4,224.4 375.1,224.4 375.7,224.4 376.4,224.4 377.1,224.4 377.7,224.4 378.4,224.4 379.1,224.4 379.8,224.4 380.4,224.4 381.1,224.4 381.8,224.4 382.5,224.4 383.1,224.4 383.8,224.4 384.5,224.1 385.1,223.8 385.8,223.7 386.5,223.7 387.2,223.6 387.8,223.5 388.5,223.5 389.2,223.5 389.8,223.5 390.5,223.5 391.2,223.5 391.9,223.5 392.5,225.3 393.2,232.7 393.9,236.1 394.5,239.7 395.2,244.1 395.9,247.5 396.6,251.1 397.2,254.7 397.9,257.0 398.6,257.0 399.2,256.7 399.9,254.9 400.6,253.5 401.3,250.0 401.9,246.0 402.6,243.7 403.3,244.1 403.9,252.2 404.6,260.3 405.3,262.1 406.0,262.2 406.6,262.4 407.3,263.5 408.0,263.8 408.6,260.8 409.3,255.1 410.0,253.0 410.7,251.1 411.3,251.1 412.0,251.1 412.7,251.0 413.3,251.0 414.0,251.1 414.7,251.1 415.4,247.4 416.0,240.3 416.7,236.5 417.4,235.2 418.0,235.0 418.7,235.1 419.4,235.1 420.1,235.1 420.7,235.5 421.4,236.2 422.1,236.5 422.7,239.5 423.4,239.5 424.1,239.6 424.8,239.7 425.4,239.7 426.1,238.1 426.8,236.6 427.4,236.7 428.1,237.7 428.8,239.2 429.5,239.2 430.1,238.8 430.8,238.8 431.5,238.8 432.1,238.5 432.8,236.8 433.5,233.9 434.2,234.0 434.8,234.3 435.5,234.8 436.2,234.7 436.8,231.4 437.5,231.1 438.2,232.0 438.9,232.9 439.5,232.8 440.2,231.8 440.9,231.2 441.5,232.1 442.2,240.7 442.9,243.7 443.6,243.9 444.2,243.9 444.9,245.1 445.6,253.3 446.2,264.3 446.9,274.2 447.6,279.7 448.3,281.5 448.9,285.2 449.6,291.6 450.3,297.4 450.9,300.2 451.6,309.2 452.3,309.9 453.0,306.5 453.6,303.5 454.3,302.2 455.0,302.0 455.6,300.1 456.3,296.5 457.0,287.1 457.7,286.6 458.3,286.6 459.0,286.7 459.7,287.2 460.3,287.2 461.0,287.2 461.7,287.2 462.4,287.2 463.0,287.2 463.7,287.3 464.4,287.3 465.0,287.5 465.7,287.3 466.4,286.3 467.1,282.9 467.7,279.8 468.4,279.2 469.1,277.3 469.7,267.6 470.4,259.6 471.1,250.7 471.8,245.2 472.4,239.3 473.1,234.7 473.8,230.3 474.4,225.8 475.1,223.7 475.8,222.1 476.5,220.3 477.1,219.1 477.8,218.3 478.5,218.5 479.1,221.6 479.8,231.4 480.5,249.2 481.2,269.8 481.8,289.9 482.5,302.8 483.2,303.6 483.8,303.6 484.5,303.6 485.2,303.6 485.9,304.2 486.5,304.2 487.2,304.2 487.9,304.1 488.5,303.3 489.2,301.3 489.9,295.2 490.6,291.6 491.2,291.9 491.9,292.3 492.6,291.7 493.2,279.7 493.9,260.2 494.6,240.4 495.3,236.2 495.9,231.9 496.6,225.9 497.3,223.5 497.9,223.3 498.6,222.2 499.3,222.1 500.0,221.5 500.6,221.1 501.3,220.9 502.0,220.5 502.6,220.2 503.3,219.9 504.0,219.9 504.7,219.6 505.3,219.6 506.0,219.6 506.7,219.6 507.3,219.6 508.0,219.6 508.7,219.6 509.4,219.6 510.0,219.6 510.7,219.6 511.4,219.6 512.0,219.6 512.7,219.6 513.4,219.6 514.1,219.6 514.7,219.6 515.4,219.6 516.1,219.6 516.7,219.6 517.4,218.7 518.1,218.4 518.8,218.3 519.4,218.9 520.1,219.5 520.8,219.6 521.4,221.5 522.1,229.5 522.8,237.6 523.5,244.5 524.1,250.1 524.8,256.9 525.5,258.7 526.1,261.9 526.8,266.4 527.5,268.2 528.2,265.4 528.8,262.0 529.5,262.0 530.2,260.4 530.8,255.1 531.5,250.8 532.2,250.8 532.9,251.0 533.5,255.6 534.2,256.7 534.9,256.6 535.5,256.1 536.2,254.8 536.9,252.7 537.6,252.3 538.2,252.4 538.9,256.7 539.6,257.3 540.2,254.5 540.9,251.8 541.6,251.5 542.3,251.0 542.9,250.3 543.6,250.1 544.3,252.4 544.9,256.2 545.6,261.5 546.3,262.9 547.0,263.2 547.6,263.4 548.3,264.8 549.0,267.9 549.6,265.4 550.3,252.9 551.0,249.4 551.7,247.3 552.3,244.6 553.0,247.1 553.7,257.0 554.3,261.9 555.0,265.1 555.7,266.2 556.4,266.2 557.0,266.2 557.7,266.2 558.4,266.2 559.0,265.5 559.7,264.8 560.4,264.5 561.1,264.3 561.7,264.3 562.4,264.5 563.1,264.5 563.7,264.5 564.4,264.2 565.1,263.2 565.8,262.9 566.4,262.9 567.1,262.8 567.8,262.2 568.4,259.5 569.1,256.4 569.8,256.0 570.5,250.0 571.1,245.0 571.8,245.0 572.5,244.8 573.1,243.4 573.8,241.8 574.5,236.3 575.2,230.1 575.8,226.8 576.5,230.1 577.2,233.9 577.8,234.0 578.5,233.9 579.2,229.2 579.9,227.3 580.5,229.1 581.2,231.4 581.9,231.4 582.5,230.4 583.2,226.5 583.9,224.0 584.6,223.3 585.2,221.9 585.9,221.5 586.6,225.6 587.2,229.2 587.9,229.4 588.6,232.1 589.3,241.9 589.9,246.9 590.6,244.4 591.3,234.0 591.9,228.1 592.6,226.8 593.3,225.7 594.0,224.5 594.6,224.1 595.3,223.7 596.0,223.5 596.6,223.2 597.3,223.2 598.0,223.2 598.7,223.3 599.3,223.2 600.0,223.3 600.7,223.3 601.3,223.3 602.0,223.2 602.7,223.3 603.4,223.3 604.0,223.2 604.7,223.2 605.4,223.2 606.0,223.3 606.7,223.2 607.4,223.3 608.1,223.3 608.7,223.2 609.4,223.2 610.1,223.2 610.8,223.2 611.4,223.2 612.1,223.2 612.8,223.2 613.4,223.2 614.1,223.2 614.8,223.2 615.5,223.2 616.1,224.1 616.8,233.0 617.5,244.3 618.1,250.6 618.8,255.4 619.5,258.4 620.2,258.4 620.8,258.4 621.5,257.9 622.2,257.6 622.8,257.6 623.5,257.6 624.2,257.6 624.9,252.9 625.5,251.4 626.2,251.3 626.9,251.1 627.5,251.1 628.2,251.1 628.9,251.1 629.6,250.5 630.2,250.3 630.9,250.3 631.6,252.7 632.2,253.7 632.9,253.7 633.6,253.7 634.3,253.7 634.9,252.7 635.6,253.0 636.3,254.4 636.9,254.4 637.6,254.7 638.3,256.8 639.0,256.8 639.6,256.4 640.3,252.5 641.0,252.4 641.6,256.7 642.3,257.2 643.0,256.9 643.7,251.7 644.3,250.0 645.0,250.0 645.7,250.0 646.3,250.1 647.0,250.4 647.7,251.8 648.4,251.8 649.0,251.9 649.7,251.8 650.4,251.9 651.0,252.4 651.7,250.8 652.4,249.6 653.1,245.4 653.7,242.2 654.4,237.5 655.1,240.7 655.7,257.6 656.4,264.4 657.1,272.2 657.8,277.6 658.4,284.5 659.1,286.0 659.8,288.5 660.4,289.7 661.1,289.7 661.8,289.1 662.5,288.9 663.1,288.7 663.8,286.3 664.5,283.6 665.1,282.9 665.8,281.9 666.5,281.6 667.2,280.6 667.8,278.6 668.5,278.1 669.2,277.7 669.8,277.8 670.5,275.1 671.2,273.5 671.9,273.4 672.5,273.4 673.2,273.5 673.9,272.1 674.5,270.3 675.2,268.2 675.9,256.6 676.6,252.6 677.2,244.3 677.9,234.1 678.6,230.2 679.2,229.9 679.9,232.4 680.6,231.5 681.3,226.6 681.9,224.7 682.6,224.8 683.3,227.1 683.9,227.3 684.6,227.4 685.3,228.7 686.0,232.4 686.6,234.2 687.3,233.6 688.0,232.3 688.6,229.0 689.3,227.9 690.0,230.4 690.7,234.5 691.3,237.0 692.0,236.1 692.7,233.2 693.3,230.5 694.0,226.6 694.7,223.7 695.4,221.3 696.0,221.1 696.7,221.1 697.4,221.1 698.0,220.8 698.7,220.8 699.4,220.8 700.1,220.8 700.7,220.8 701.4,220.8 702.1,220.8 702.7,220.8 703.4,220.8 704.1,220.8 704.8,220.8 705.4,220.8 706.1,220.8 706.8,220.8 707.4,220.8 708.1,220.8 708.8,220.8 709.5,220.8 710.1,220.8 710.8,220.8 711.5,220.8 712.1,220.8 712.8,220.4 713.5,220.4 714.2,220.4 714.8,220.4 715.5,220.4 716.2,220.4 716.8,220.8 717.5,221.1 718.2,225.1 718.9,227.8 719.5,231.1 720.2,234.9 720.9,236.3 721.5,236.3 722.2,236.3 722.9,235.8 723.6,235.4 724.2,235.5 724.9,235.3 725.6,235.0 726.2,234.7 726.9,231.8 727.6,231.6 728.3,231.6 728.9,231.6 729.6,231.6 730.3,231.7 730.9,231.7 731.6,231.0 732.3,230.2 733.0,230.3 733.6,230.4 734.3,230.6 735.0,230.7 735.6,231.0 736.3,231.1 737.0,231.0 737.7,230.7 738.3,230.7 739.0,230.6 739.7,230.6 740.3,230.6 741.0,230.6 741.7,230.6 742.4,230.6 743.0,230.6 743.7,230.6 744.4,230.6 745.0,230.6 745.7,230.6 746.4,230.6 747.1,230.7 747.7,230.8 748.4,230.8 749.1,230.8 749.7,230.8 750.4,230.8 751.1,233.0 751.8,234.7 752.4,234.7 753.1,232.9 753.8,232.9 754.4,234.8 755.1,237.8 755.8,242.2 756.5,253.5 757.1,264.1 757.8,270.7 758.5,271.2 759.1,270.3 759.8,261.9 760.5,250.7 761.2,241.9 761.8,240.2 762.5,248.0 763.2,256.3 763.8,259.3 764.5,255.4 765.2,252.7 765.9,246.0 766.5,239.5 767.2,238.9 767.9,239.0 768.5,240.3 769.2,242.4 769.9,243.4 770.6,242.8 771.2,241.6 771.9,241.6 772.6,241.5 773.2,241.5 773.9,241.9 774.6,244.0 775.3,247.8 775.9,250.2 776.6,250.2 777.3,255.5 777.9,262.0 778.6,260.9 779.3,249.8 780.0,246.1 780.6,241.8 781.3,240.8 782.0,240.8 782.6,240.8 783.3,244.9 784.0,244.6 784.7,237.9 785.3,235.6 786.0,232.4 786.7,231.4 787.3,231.4 788.0,231.4 788.7,231.4 789.4,231.4 790.0,231.4 790.7,232.0 791.4,232.3 792.0,232.8 792.7,233.2 793.4,238.1 794.1,238.2 794.7,236.8 795.4,236.1 796.1,235.8 796.7,232.3 797.4,226.7 798.1,224.3 798.8,220.2 799.4,219.2 800.1,217.4 800.8,216.0 801.4,215.0 802.1,212.9 802.8,210.5 803.5,209.5 804.1,209.2 804.8,208.6 805.5,208.6 806.1,208.3 806.8,208.3 807.5,208.9 808.2,217.2 808.8,226.1 809.5,235.5 810.2,240.3 810.8,240.0 811.5,235.9 812.2,239.4 812.9,248.1 813.5,255.9 814.2,248.0 814.9,233.4 815.5,228.7 816.2,224.2 816.9,222.1 817.6,222.1 818.2,220.8 818.9,219.8 819.6,219.5 820.2,218.3 820.9,219.0 821.6,219.4 822.3,219.6 822.9,219.6 823.6,219.6 824.3,219.5 824.9,219.5 825.6,219.5 826.3,219.5 827.0,219.5 827.6,219.6 828.3,219.6 829.0,219.7 829.6,219.9 830.3,220.0 831.0,220.0 831.7,220.0 832.3,220.1 833.0,220.4 833.7,221.0 834.3,221.9 835.0,225.5 835.7,231.4 836.4,241.7 837.0,249.5 837.7,252.9 838.4,253.5 839.1,251.2 839.7,248.5 840.4,248.5 841.1,247.2 841.7,243.7 842.4,241.4 843.1,238.7 843.8,236.6 844.4,236.1 845.1,236.0 845.8,235.7 846.4,235.6 847.1,235.6 847.8,235.6 848.5,235.6 849.1,235.6 849.8,235.6 850.5,231.4 851.1,224.4 851.8,218.6 852.5,218.4 853.2,218.2 853.8,218.3 854.5,218.3 855.2,218.3 855.8,218.3 856.5,218.3 857.2,218.3 857.9,218.3 858.5,218.3 859.2,218.3 859.9,218.3"/><line x1="47.3" y1="200" x2="47.3" y2="310" stroke="#f0a000" stroke-dasharray="4 3"/><line x1="47.3" y1="200" x2="47.3" y2="310" stroke="#f0a000" stroke-dasharray="4 3"/><line x1="47.3" y1="200" x2="47.3" y2="310" stroke="#f0a000" stroke-dasharray="4 3"/><line x1="47.3" y1="200" x2="47.3" y2="310" stroke="#f0a000" stroke-dasharray="4 3"/><line x1="47.3" y1="200" x2="47.3" y2="310" stroke="#f0a000" stroke-dasharray="4 3"/><line x1="47.3" y1="200" x2="47.3" y2="310" stroke="#f0a000" stroke-dasharray="4 3"/><line x1="47.3" y1="200" x2="47.3" y2="310" stroke="#f0a000" stroke-dasharray="4 3"/><line x1="90.4" y1="200" x2="90.4" y2="310" stroke="#f0a000" stroke-dasharray="4 3"/><line x1="103.1" y1="200" x2="103.1" y2="310" stroke="#f0a000" stroke-dasharray="4 3"/><line x1="248.7" y1="200" x2="248.7" y2="310" stroke="#f0a000" stroke-dasharray="4 3"/><line x1="265.3" y1="200" x2="265.3" y2="310" stroke="#f0a000" stroke-dasharray="4 3"/><line x1="369.9" y1="200" x2="369.9" y2="310" stroke="#f0a000" stroke-dasharray="4 3"/><line x1="390.5" y1="200" x2="390.5" y2="310" stroke="#f0a000" stroke-dasharray="4 3"/><line x1="500.5" y1="200" x2="500.5" y2="310" stroke="#f0a000" stroke-dasharray="4 3"/><line x1="519.2" y1="200" x2="519.2" y2="310" stroke="#f0a000" stroke-dasharray="4 3"/><line x1="600.3" y1="200" x2="600.3" y2="310" stroke="#f0a000" stroke-dasharray="4 3"/><line x1="614.3" y1="200" x2="614.3" y2="310" stroke="#f0a000" stroke-dasharray="4 3"/><line x1="701.4" y1="200" x2="701.4" y2="310" stroke="#f0a000" stroke-dasharray="4 3"/><line x1="715.3" y1="200" x2="715.3" y2="310" stroke="#f0a000" stroke-dasharray="4 3"/><line x1="820.9" y1="200" x2="820.9" y2="310" stroke="#f0a000" stroke-dasharray="4 3"/><line x1="833.3" y1="200" x2="833.3" y2="310" stroke="#f0a000" stroke-dasharray="4 3"/><text x="40" y="352" font-size="13" fill="#333">j3 — 입력(파랑, 리더 지령·예시) vs 출력(빨강, 모터 실제각), [-46°, 65°], 305s</text><rect x="40" y="360" width="820" height="110" fill="none" stroke="#ddd"/><polyline fill="none" stroke="#1f77b4" stroke-width="1.2" points="40.0,420.7 40.7,420.8 41.3,420.8 42.0,421.5 42.7,421.8 43.4,422.0 44.0,421.5 44.7,421.2 45.4,421.1 46.0,421.6 46.7,421.8 47.4,422.5 48.1,423.0 48.7,423.9 49.4,423.6 50.1,423.4 50.7,424.1 51.4,424.2 52.1,424.6 52.8,423.8 53.4,423.7 54.1,423.8 54.8,423.5 55.4,423.5 56.1,423.3 56.8,422.7 57.5,422.2 58.1,421.4 58.8,421.0 59.5,421.2 60.1,421.7 60.8,422.3 61.5,422.5 62.2,422.6 62.8,422.7 63.5,422.5 64.2,422.7 64.8,422.8 65.5,423.9 66.2,424.2 66.9,425.2 67.5,425.7 68.2,425.6 68.9,425.6 69.5,425.0 70.2,425.9 70.9,425.8 71.6,426.5 72.2,425.6 72.9,425.7 73.6,424.9 74.2,425.2 74.9,425.0 75.6,425.0 76.3,424.6 76.9,425.0 77.6,425.0 78.3,425.3 78.9,425.5 79.6,425.9 80.3,426.5 81.0,426.2 81.6,426.2 82.3,426.0 83.0,426.2 83.6,426.0 84.3,426.1 85.0,426.6 85.7,426.9 86.3,427.3 87.0,427.1 87.7,427.6 88.3,427.4 89.0,427.3 89.7,426.5 90.4,426.2 91.0,426.3 91.7,426.6 92.4,427.0 93.0,426.8 93.7,426.8 94.4,426.6 95.1,426.8 95.7,426.8 96.4,427.5 97.1,427.4 97.7,427.8 98.4,427.2 99.1,427.4 99.8,426.5 100.4,424.6 101.1,421.7 101.8,418.2 102.4,413.3 103.1,408.3 103.8,406.2 104.5,407.5 105.1,411.7 105.8,418.3 106.5,427.8 107.1,438.0 107.8,442.0 108.5,441.3 109.2,437.7 109.8,432.1 110.5,428.3 111.2,429.1 111.8,433.0 112.5,437.7 113.2,440.1 113.9,437.9 114.5,431.0 115.2,421.6 115.9,410.9 116.5,404.5 117.2,403.0 117.9,406.4 118.6,411.0 119.2,415.7 119.9,418.1 120.6,419.5 121.2,420.1 121.9,421.2 122.6,422.5 123.3,423.7 123.9,422.6 124.6,418.7 125.3,414.9 125.9,411.1 126.6,409.2 127.3,410.7 128.0,415.2 128.6,421.9 129.3,430.0 130.0,437.8 130.6,441.4 131.3,440.9 132.0,434.9 132.7,426.6 133.3,418.4 134.0,412.4 134.7,408.9 135.3,408.1 136.0,409.6 136.7,412.1 137.4,414.4 138.0,415.9 138.7,416.7 139.4,415.5 140.0,413.4 140.7,410.5 141.4,408.7 142.1,408.0 142.7,408.7 143.4,410.0 144.1,411.8 144.7,415.0 145.4,418.5 146.1,421.7 146.8,422.4 147.4,423.0 148.1,421.9 148.8,420.3 149.4,417.9 150.1,415.7 150.8,413.4 151.5,412.4 152.1,414.3 152.8,417.6 153.5,421.9 154.2,426.4 154.8,430.6 155.5,432.9 156.2,434.4 156.8,435.0 157.5,435.1 158.2,434.7 158.9,435.2 159.5,434.8 160.2,432.6 160.9,429.3 161.5,424.9 162.2,418.6 162.9,412.3 163.6,406.6 164.2,403.2 164.9,400.4 165.6,398.9 166.2,398.6 166.9,399.0 167.6,399.3 168.3,399.8 168.9,400.6 169.6,402.8 170.3,405.0 170.9,406.6 171.6,407.6 172.3,408.3 173.0,408.1 173.6,406.7 174.3,405.4 175.0,405.1 175.6,405.6 176.3,406.3 177.0,407.6 177.7,409.6 178.3,413.1 179.0,418.1 179.7,426.0 180.3,435.2 181.0,444.4 181.7,451.3 182.4,456.9 183.0,460.1 183.7,462.5 184.4,463.7 185.0,465.1 185.7,467.3 186.4,468.2 187.1,467.9 187.7,464.4 188.4,457.1 189.1,445.4 189.7,432.3 190.4,420.4 191.1,412.4 191.8,410.2 192.4,410.5 193.1,411.4 193.8,410.9 194.4,408.6 195.1,403.7 195.8,398.0 196.5,393.7 197.1,391.7 197.8,391.9 198.5,395.9 199.1,401.4 199.8,406.2 200.5,408.1 201.2,406.1 201.8,400.6 202.5,394.4 203.2,387.7 203.8,383.3 204.5,383.5 205.2,387.1 205.9,392.3 206.5,397.7 207.2,402.8 207.9,407.3 208.5,409.3 209.2,408.3 209.9,402.9 210.6,396.5 211.2,390.1 211.9,384.6 212.6,381.2 213.2,380.8 213.9,381.7 214.6,383.2 215.3,385.4 215.9,387.9 216.6,391.6 217.3,396.9 217.9,402.9 218.6,408.0 219.3,410.6 220.0,409.1 220.6,404.6 221.3,398.6 222.0,393.2 222.6,389.1 223.3,387.6 224.0,388.9 224.7,390.7 225.3,393.7 226.0,396.1 226.7,398.9 227.3,401.2 228.0,403.1 228.7,403.9 229.4,402.8 230.0,402.6 230.7,403.1 231.4,405.5 232.0,409.0 232.7,413.7 233.4,418.4 234.1,422.4 234.7,425.9 235.4,428.4 236.1,429.9 236.7,430.0 237.4,429.6 238.1,427.6 238.8,426.5 239.4,424.9 240.1,424.8 240.8,424.4 241.4,424.6 242.1,424.1 242.8,423.3 243.5,422.8 244.1,422.7 244.8,423.1 245.5,423.2 246.1,423.5 246.8,423.2 247.5,423.2 248.2,423.2 248.8,423.5 249.5,423.3 250.2,423.4 250.8,423.6 251.5,423.8 252.2,423.7 252.9,423.8 253.5,423.9 254.2,424.3 254.9,424.4 255.5,424.9 256.2,424.8 256.9,424.9 257.6,424.3 258.2,423.9 258.9,423.3 259.6,423.6 260.2,423.7 260.9,424.1 261.6,424.0 262.3,423.2 262.9,420.0 263.6,414.8 264.3,409.1 264.9,404.0 265.6,401.3 266.3,403.2 267.0,409.5 267.6,418.3 268.3,426.7 269.0,433.7 269.6,438.4 270.3,441.7 271.0,443.2 271.7,444.9 272.3,446.7 273.0,447.3 273.7,447.0 274.3,444.1 275.0,439.2 275.7,431.0 276.4,420.9 277.0,411.3 277.7,406.5 278.4,405.5 279.0,408.3 279.7,412.5 280.4,415.4 281.1,415.5 281.7,415.0 282.4,416.1 283.1,419.2 283.7,424.6 284.4,429.6 285.1,433.8 285.8,435.7 286.4,436.3 287.1,434.0 287.8,429.0 288.4,423.6 289.1,418.1 289.8,414.2 290.5,413.7 291.1,416.8 291.8,419.7 292.5,419.3 293.1,415.2 293.8,409.9 294.5,403.5 295.2,398.2 295.8,396.6 296.5,397.9 297.2,402.6 297.8,409.0 298.5,416.0 299.2,420.8 299.9,422.2 300.5,422.4 301.2,421.8 301.9,420.6 302.5,417.4 303.2,413.6 303.9,408.6 304.6,402.2 305.2,398.7 305.9,400.4 306.6,407.6 307.2,417.4 307.9,427.1 308.6,432.0 309.3,432.9 309.9,428.2 310.6,419.9 311.3,411.1 311.9,405.9 312.6,402.6 313.3,402.3 314.0,404.5 314.6,408.4 315.3,412.4 316.0,416.4 316.6,419.9 317.3,420.4 318.0,416.8 318.7,412.3 319.3,407.6 320.0,402.1 320.7,398.4 321.3,399.2 322.0,402.9 322.7,407.7 323.4,410.8 324.0,409.5 324.7,406.0 325.4,401.1 326.0,396.6 326.7,396.2 327.4,399.5 328.1,405.8 328.7,412.2 329.4,417.5 330.1,421.4 330.7,420.9 331.4,418.2 332.1,412.9 332.8,407.4 333.4,404.2 334.1,405.2 334.8,408.2 335.4,411.4 336.1,410.6 336.8,404.5 337.5,395.8 338.1,387.7 338.8,385.7 339.5,388.7 340.1,395.0 340.8,397.6 341.5,395.1 342.2,388.7 342.8,385.9 343.5,386.7 344.2,391.4 344.8,397.6 345.5,404.4 346.2,411.1 346.9,416.9 347.5,423.2 348.2,431.4 348.9,439.0 349.5,443.8 350.2,445.6 350.9,446.7 351.6,447.7 352.2,448.8 352.9,449.1 353.6,449.6 354.2,450.3 354.9,451.5 355.6,451.7 356.3,450.9 356.9,449.5 357.6,447.9 358.3,446.5 358.9,444.6 359.6,442.4 360.3,439.6 361.0,437.0 361.6,435.3 362.3,434.4 363.0,433.5 363.6,432.4 364.3,431.5 365.0,430.2 365.7,429.6 366.3,429.2 367.0,429.9 367.7,429.6 368.3,429.9 369.0,429.3 369.7,429.4 370.4,428.6 371.0,428.9 371.7,428.5 372.4,429.0 373.0,428.7 373.7,428.8 374.4,428.7 375.1,428.9 375.7,428.8 376.4,429.1 377.1,428.9 377.7,429.2 378.4,428.8 379.1,429.3 379.8,429.7 380.4,429.6 381.1,428.9 381.8,428.4 382.5,428.5 383.1,428.8 383.8,428.6 384.5,428.6 385.1,429.0 385.8,429.2 386.5,429.5 387.2,429.1 387.8,426.3 388.5,421.0 389.2,414.9 389.8,409.0 390.5,405.4 391.2,404.3 391.9,407.5 392.5,413.4 393.2,417.0 393.9,416.2 394.5,411.1 395.2,404.1 395.9,396.8 396.6,391.7 397.2,390.6 397.9,391.7 398.6,395.5 399.2,399.8 399.9,405.4 400.6,411.3 401.3,418.4 401.9,425.8 402.6,432.6 403.3,435.9 403.9,434.5 404.6,428.9 405.3,420.5 406.0,411.1 406.6,402.4 407.3,394.9 408.0,387.8 408.6,383.5 409.3,382.8 410.0,386.4 410.7,393.0 411.3,401.9 412.0,410.9 412.7,416.6 413.3,418.5 414.0,418.7 414.7,418.5 415.4,419.8 416.0,421.6 416.7,424.2 417.4,425.6 418.0,424.7 418.7,423.7 419.4,424.0 420.1,425.0 420.7,426.7 421.4,428.9 422.1,430.4 422.7,430.0 423.4,428.8 424.1,427.4 424.8,426.7 425.4,427.2 426.1,428.0 426.8,428.5 427.4,428.3 428.1,427.1 428.8,426.2 429.5,425.3 430.1,425.0 430.8,425.1 431.5,424.5 432.1,423.2 432.8,422.0 433.5,421.8 434.2,421.9 434.8,421.8 435.5,420.1 436.2,417.6 436.8,416.2 437.5,417.6 438.2,419.9 438.9,423.4 439.5,425.6 440.2,423.8 440.9,419.1 441.5,413.9 442.2,408.7 442.9,404.2 443.6,401.3 444.2,399.1 444.9,397.7 445.6,398.1 446.2,401.9 446.9,407.6 447.6,411.6 448.3,414.8 448.9,416.2 449.6,415.1 450.3,412.8 450.9,410.8 451.6,404.2 452.3,398.1 453.0,392.4 453.6,388.9 454.3,387.1 455.0,389.4 455.6,392.1 456.3,394.4 457.0,396.6 457.7,401.0 458.3,407.0 459.0,412.6 459.7,416.3 460.3,420.0 461.0,423.0 461.7,424.0 462.4,422.8 463.0,420.0 463.7,415.2 464.4,409.8 465.0,405.4 465.7,405.1 466.4,408.1 467.1,413.2 467.7,419.6 468.4,426.6 469.1,433.2 469.7,438.1 470.4,441.8 471.1,444.5 471.8,446.5 472.4,447.4 473.1,448.5 473.8,448.5 474.4,446.7 475.1,440.5 475.8,432.2 476.5,424.8 477.1,418.5 477.8,415.9 478.5,415.3 479.1,418.3 479.8,422.1 480.5,425.8 481.2,428.4 481.8,430.0 482.5,430.7 483.2,430.4 483.8,425.5 484.5,415.7 485.2,404.0 485.9,396.7 486.5,393.6 487.2,396.6 487.9,408.0 488.5,421.6 489.2,431.4 489.9,437.0 490.6,440.1 491.2,440.6 491.9,441.2 492.6,441.7 493.2,441.9 493.9,441.1 494.6,440.8 495.3,440.6 495.9,440.0 496.6,440.0 497.3,439.4 497.9,439.6 498.6,439.2 499.3,439.3 500.0,439.0 500.6,439.2 501.3,439.0 502.0,438.7 502.6,438.9 503.3,439.1 504.0,438.9 504.7,438.3 505.3,437.9 506.0,437.3 506.7,437.1 507.3,437.2 508.0,437.8 508.7,437.7 509.4,437.7 510.0,438.0 510.7,438.1 511.4,438.1 512.0,437.9 512.7,437.8 513.4,438.2 514.1,438.2 514.7,438.4 515.4,438.1 516.1,437.8 516.7,436.4 517.4,431.4 518.1,423.5 518.8,414.7 519.4,407.2 520.1,403.1 520.8,403.7 521.4,411.1 522.1,419.7 522.8,427.0 523.5,431.1 524.1,433.5 524.8,432.9 525.5,429.9 526.1,425.9 526.8,423.3 527.5,420.5 528.2,420.1 528.8,420.1 529.5,421.1 530.2,421.8 530.8,421.8 531.5,418.4 532.2,414.2 532.9,411.3 533.5,410.9 534.2,413.3 534.9,416.8 535.5,420.6 536.2,423.2 536.9,424.3 537.6,424.5 538.2,425.1 538.9,421.9 539.6,415.9 540.2,409.8 540.9,405.1 541.6,401.2 542.3,401.6 542.9,406.8 543.6,412.8 544.3,416.5 544.9,415.6 545.6,412.3 546.3,407.0 547.0,402.5 547.6,401.5 548.3,407.3 549.0,417.1 549.6,428.0 550.3,437.3 551.0,443.8 551.7,446.6 552.3,447.5 553.0,447.1 553.7,446.6 554.3,445.6 555.0,445.2 555.7,445.0 556.4,444.5 557.0,445.6 557.7,445.8 558.4,446.7 559.0,446.6 559.7,447.2 560.4,446.7 561.1,446.3 561.7,445.3 562.4,444.4 563.1,442.8 563.7,441.2 564.4,439.2 565.1,437.6 565.8,436.4 566.4,438.2 567.1,441.2 567.8,443.7 568.4,445.7 569.1,446.4 569.8,445.2 570.5,442.2 571.1,439.1 571.8,436.8 572.5,437.0 573.1,441.8 573.8,448.6 574.5,455.1 575.2,459.7 575.8,460.9 576.5,458.2 577.2,452.2 577.8,444.9 578.5,437.5 579.2,433.3 579.9,429.7 580.5,427.4 581.2,426.2 581.9,427.7 582.5,429.4 583.2,431.3 583.9,430.3 584.6,428.7 585.2,426.9 585.9,425.4 586.6,424.9 587.2,427.9 587.9,431.7 588.6,434.0 589.3,435.0 589.9,435.5 590.6,435.2 591.3,434.3 591.9,433.5 592.6,433.6 593.3,433.3 594.0,432.9 594.6,432.4 595.3,432.9 596.0,433.0 596.6,433.3 597.3,432.9 598.0,433.0 598.7,433.2 599.3,433.4 600.0,433.3 600.7,432.8 601.3,433.1 602.0,432.8 602.7,433.4 603.4,432.9 604.0,433.2 604.7,432.6 605.4,433.1 606.0,432.6 606.7,432.9 607.4,432.1 608.1,432.4 608.7,432.8 609.4,433.6 610.1,433.5 610.8,432.9 611.4,431.1 612.1,427.4 612.8,421.4 613.4,414.4 614.1,407.1 614.8,401.3 615.5,398.2 616.1,397.7 616.8,398.0 617.5,398.6 618.1,398.6 618.8,398.2 619.5,396.9 620.2,395.3 620.8,393.4 621.5,391.8 622.2,391.4 622.8,392.0 623.5,392.8 624.2,393.6 624.9,393.9 625.5,394.6 626.2,394.4 626.9,395.2 627.5,396.3 628.2,398.2 628.9,399.3 629.6,398.9 630.2,397.2 630.9,394.3 631.6,390.4 632.2,384.8 632.9,379.9 633.6,377.2 634.3,375.8 634.9,376.1 635.6,377.4 636.3,378.8 636.9,376.3 637.6,372.2 638.3,367.3 639.0,363.0 639.6,361.0 640.3,361.0 641.0,361.9 641.6,364.7 642.3,367.2 643.0,369.2 643.7,370.7 644.3,372.0 645.0,372.8 645.7,373.4 646.3,373.9 647.0,375.3 647.7,378.1 648.4,381.3 649.0,386.6 649.7,391.7 650.4,392.5 651.0,390.0 651.7,386.4 652.4,381.7 653.1,379.8 653.7,381.0 654.4,384.8 655.1,388.3 655.7,391.9 656.4,393.8 657.1,395.6 657.8,396.3 658.4,397.4 659.1,397.5 659.8,397.1 660.4,395.6 661.1,393.9 661.8,391.7 662.5,389.5 663.1,385.7 663.8,381.5 664.5,376.5 665.1,371.0 665.8,367.0 666.5,365.3 667.2,364.9 667.8,364.9 668.5,366.5 669.2,369.0 669.8,371.9 670.5,374.2 671.2,378.3 671.9,384.9 672.5,394.6 673.2,405.8 673.9,418.6 674.5,429.5 675.2,436.6 675.9,439.8 676.6,440.4 677.2,439.2 677.9,439.1 678.6,438.2 679.2,436.7 679.9,435.9 680.6,435.4 681.3,433.2 681.9,432.6 682.6,432.5 683.3,430.9 683.9,428.3 684.6,425.3 685.3,423.3 686.0,422.1 686.6,423.2 687.3,424.9 688.0,427.2 688.6,428.0 689.3,429.4 690.0,430.7 690.7,431.6 691.3,432.1 692.0,432.6 692.7,433.0 693.3,433.4 694.0,433.6 694.7,433.4 695.4,433.4 696.0,433.6 696.7,433.8 697.4,433.8 698.0,434.2 698.7,434.0 699.4,434.5 700.1,434.4 700.7,434.8 701.4,434.9 702.1,434.8 702.7,434.5 703.4,434.1 704.1,433.8 704.8,434.1 705.4,433.9 706.1,433.8 706.8,433.9 707.4,434.5 708.1,434.9 708.8,434.8 709.5,434.8 710.1,434.7 710.8,434.1 711.5,434.3 712.1,434.4 712.8,433.8 713.5,432.0 714.2,429.9 714.8,427.7 715.5,424.7 716.2,422.3 716.8,420.4 717.5,418.8 718.2,418.1 718.9,418.7 719.5,420.0 720.2,422.1 720.9,424.3 721.5,426.5 722.2,427.7 722.9,428.1 723.6,428.1 724.2,428.4 724.9,428.8 725.6,429.5 726.2,429.1 726.9,428.6 727.6,428.1 728.3,427.8 728.9,428.2 729.6,428.4 730.3,428.7 730.9,429.1 731.6,429.3 732.3,428.9 733.0,428.2 733.6,428.1 734.3,428.1 735.0,427.6 735.6,427.5 736.3,428.0 737.0,428.5 737.7,428.5 738.3,428.5 739.0,428.2 739.7,428.1 740.3,428.1 741.0,428.1 741.7,428.6 742.4,428.6 743.0,428.9 743.7,428.8 744.4,429.1 745.0,428.8 745.7,429.2 746.4,429.7 747.1,431.4 747.7,433.2 748.4,435.1 749.1,437.3 749.7,438.8 750.4,439.6 751.1,439.5 751.8,438.6 752.4,434.1 753.1,427.4 753.8,417.7 754.4,409.0 755.1,402.8 755.8,402.5 756.5,406.3 757.1,413.4 757.8,418.4 758.5,417.8 759.1,412.2 759.8,404.9 760.5,400.3 761.2,400.7 761.8,405.2 762.5,411.6 763.2,417.6 763.8,421.8 764.5,423.5 765.2,423.1 765.9,422.8 766.5,422.6 767.2,421.6 767.9,419.8 768.5,418.5 769.2,416.5 769.9,412.2 770.6,408.2 771.2,404.9 771.9,405.3 772.6,410.0 773.2,415.8 773.9,418.7 774.6,420.5 775.3,417.3 775.9,409.9 776.6,402.6 777.3,400.6 777.9,403.0 778.6,408.9 779.3,416.7 780.0,424.6 780.6,431.5 781.3,435.2 782.0,436.5 782.6,436.2 783.3,435.7 784.0,434.3 784.7,431.2 785.3,428.2 786.0,425.6 786.7,423.1 787.3,420.7 788.0,423.4 788.7,428.8 789.4,434.8 790.0,440.8 790.7,446.3 791.4,449.9 792.0,450.5 792.7,451.0 793.4,451.0 794.1,450.5 794.7,449.0 795.4,447.8 796.1,446.9 796.7,446.4 797.4,445.9 798.1,446.1 798.8,446.2 799.4,445.6 800.1,445.1 800.8,445.3 801.4,445.8 802.1,445.6 802.8,445.0 803.5,444.2 804.1,444.2 804.8,444.6 805.5,444.4 806.1,443.5 806.8,441.0 807.5,437.3 808.2,432.8 808.8,430.3 809.5,430.0 810.2,431.4 810.8,435.5 811.5,439.2 812.2,441.2 812.9,440.0 813.5,438.2 814.2,437.1 814.9,435.7 815.5,435.1 816.2,434.6 816.9,434.8 817.6,434.8 818.2,434.7 818.9,435.2 819.6,435.7 820.2,435.9 820.9,435.9 821.6,435.4 822.3,435.4 822.9,435.0 823.6,435.2 824.3,435.4 824.9,435.3 825.6,435.3 826.3,435.2 827.0,435.4 827.6,435.5 828.3,435.3 829.0,435.6 829.6,436.5 830.3,439.0 831.0,442.5 831.7,446.4 832.3,450.9 833.0,455.6 833.7,458.4 834.3,459.5 835.0,458.6 835.7,456.1 836.4,452.4 837.0,448.5 837.7,443.3 838.4,438.8 839.1,435.9 839.7,434.4 840.4,432.7 841.1,431.5 841.7,431.0 842.4,430.7 843.1,429.7 843.8,429.4 844.4,429.1 845.1,429.0 845.8,427.7 846.4,426.4 847.1,424.4 847.8,422.0 848.5,420.4 849.1,420.1 849.8,420.8 850.5,421.4 851.1,421.8 851.8,421.4 852.5,421.2 853.2,421.2 853.8,421.6 854.5,421.7 855.2,421.3 855.8,421.2 856.5,420.6 857.2,421.0 857.9,420.4 858.5,420.9 859.2,420.7 859.9,420.9"/><polyline fill="none" stroke="#d62728" stroke-width="1.2" points="40.0,421.3 40.7,421.3 41.3,421.3 42.0,421.3 42.7,421.3 43.4,421.3 44.0,421.3 44.7,421.3 45.4,421.3 46.0,421.3 46.7,421.3 47.4,421.3 48.1,421.3 48.7,421.3 49.4,421.3 50.1,421.3 50.7,421.6 51.4,423.0 52.1,423.5 52.8,423.7 53.4,423.7 54.1,423.7 54.8,423.7 55.4,423.7 56.1,423.7 56.8,423.7 57.5,423.7 58.1,423.7 58.8,423.2 59.5,422.9 60.1,422.7 60.8,422.6 61.5,422.4 62.2,421.3 62.8,421.3 63.5,421.3 64.2,421.3 64.8,422.4 65.5,422.6 66.2,422.6 66.9,422.0 67.5,421.3 68.2,422.4 68.9,422.6 69.5,423.2 70.2,423.8 70.9,424.7 71.6,425.3 72.2,425.5 72.9,425.5 73.6,425.5 74.2,425.5 74.9,425.3 75.6,425.3 76.3,425.3 76.9,425.0 77.6,425.0 78.3,425.0 78.9,424.9 79.6,424.7 80.3,425.0 81.0,425.1 81.6,425.6 82.3,425.8 83.0,426.0 83.6,426.0 84.3,426.0 85.0,426.0 85.7,426.0 86.3,425.9 87.0,425.7 87.7,425.6 88.3,426.1 89.0,426.4 89.7,426.6 90.4,426.6 91.0,426.8 91.7,426.8 92.4,426.7 93.0,426.6 93.7,426.6 94.4,426.6 95.1,426.6 95.7,426.6 96.4,426.6 97.1,426.6 97.7,426.6 98.4,426.6 99.1,426.6 99.8,426.6 100.4,426.6 101.1,426.8 101.8,427.0 102.4,427.1 103.1,427.1 103.8,427.1 104.5,427.3 105.1,425.1 105.8,415.5 106.5,412.6 107.1,409.4 107.8,405.5 108.5,402.8 109.2,404.6 109.8,417.4 110.5,428.1 111.2,438.0 111.8,448.6 112.5,452.5 113.2,436.5 113.9,426.3 114.5,421.1 115.2,422.4 115.9,433.1 116.5,440.4 117.2,444.7 117.9,444.7 118.6,435.2 119.2,420.6 119.9,406.4 120.6,397.6 121.2,396.7 121.9,404.0 122.6,414.1 123.3,420.3 123.9,421.1 124.6,419.1 125.3,417.6 125.9,420.5 126.6,423.0 127.3,424.0 128.0,423.5 128.6,423.4 129.3,415.4 130.0,409.5 130.6,406.9 131.3,406.3 132.0,410.5 132.7,421.7 133.3,430.9 134.0,439.9 134.7,446.0 135.3,445.2 136.0,436.9 136.7,426.0 137.4,413.8 138.0,408.9 138.7,407.4 139.4,408.6 140.0,408.7 140.7,411.0 141.4,416.5 142.1,419.9 142.7,419.9 143.4,416.7 144.1,412.7 144.7,409.8 145.4,409.3 146.1,409.0 146.8,408.5 147.4,408.3 148.1,411.4 148.8,417.2 149.4,419.9 150.1,421.9 150.8,423.5 151.5,423.5 152.1,422.8 152.8,421.9 153.5,418.8 154.2,416.3 154.8,414.2 155.5,412.0 156.2,411.4 156.8,414.8 157.5,424.2 158.2,429.9 158.9,431.8 159.5,432.3 160.2,433.7 160.9,434.5 161.5,434.9 162.2,433.7 162.9,430.5 163.6,434.6 164.2,436.7 164.9,433.0 165.6,424.3 166.2,416.9 166.9,411.4 167.6,406.2 168.3,401.9 168.9,400.7 169.6,399.8 170.3,399.7 170.9,400.1 171.6,400.1 172.3,401.2 173.0,402.8 173.6,403.5 174.3,404.3 175.0,406.7 175.6,411.2 176.3,410.0 177.0,408.8 177.7,407.8 178.3,407.2 179.0,405.5 179.7,405.5 180.3,407.2 181.0,408.5 181.7,408.7 182.4,409.3 183.0,416.6 183.7,425.1 184.4,433.6 185.0,443.9 185.7,451.7 186.4,457.4 187.1,460.1 187.7,460.5 188.4,462.3 189.1,463.5 189.7,463.4 190.4,465.6 191.1,469.7 191.8,468.2 192.4,461.4 193.1,446.6 193.8,428.5 194.4,414.4 195.1,407.4 195.8,405.7 196.5,410.2 197.1,415.0 197.8,416.3 198.5,411.6 199.1,405.5 199.8,400.7 200.5,390.2 201.2,386.6 201.8,391.3 202.5,397.8 203.2,404.0 203.8,408.0 204.5,410.8 205.2,412.7 205.9,406.3 206.5,393.4 207.2,383.6 207.9,381.5 208.5,382.9 209.2,386.5 209.9,392.7 210.6,400.2 211.2,405.7 211.9,409.9 212.6,412.5 213.2,412.9 213.9,411.0 214.6,400.1 215.3,385.1 215.9,380.5 216.6,381.3 217.3,383.6 217.9,384.8 218.6,385.1 219.3,386.1 220.0,388.4 220.6,392.6 221.3,396.8 222.0,403.6 222.6,411.4 223.3,414.6 224.0,413.7 224.7,408.1 225.3,399.5 226.0,390.5 226.7,388.1 227.3,388.1 228.0,389.9 228.7,392.8 229.4,394.9 230.0,397.1 230.7,400.3 231.4,403.1 232.0,404.9 232.7,405.7 233.4,405.5 234.1,404.0 234.7,401.6 235.4,403.0 236.1,409.1 236.7,415.1 237.4,420.4 238.1,423.3 238.8,424.9 239.4,428.5 240.1,431.9 240.8,431.1 241.4,428.8 242.1,426.2 242.8,425.4 243.5,425.2 244.1,425.0 244.8,424.7 245.5,424.1 246.1,423.3 246.8,421.7 247.5,422.6 248.2,422.8 248.8,422.8 249.5,422.8 250.2,422.8 250.8,423.0 251.5,423.2 252.2,423.3 252.9,423.6 253.5,424.0 254.2,424.0 254.9,423.9 255.5,423.9 256.2,423.9 256.9,423.9 257.6,423.9 258.2,423.9 258.9,423.9 259.6,423.9 260.2,423.9 260.9,423.9 261.6,423.9 262.3,423.6 262.9,423.6 263.6,423.6 264.3,423.6 264.9,423.9 265.6,423.8 266.3,423.8 267.0,423.6 267.6,419.5 268.3,409.7 269.0,400.7 269.6,397.5 270.3,398.4 271.0,405.6 271.7,418.2 272.3,430.5 273.0,438.1 273.7,439.5 274.3,439.8 275.0,442.1 275.7,444.1 276.4,445.0 277.0,445.9 277.7,446.2 278.4,446.0 279.0,443.9 279.7,432.4 280.4,420.9 281.1,408.6 281.7,398.1 282.4,398.8 283.1,409.0 283.7,417.4 284.4,421.4 285.1,417.5 285.8,411.5 286.4,411.3 287.1,417.2 287.8,427.4 288.4,431.7 289.1,434.3 289.8,435.5 290.5,436.3 291.1,436.5 291.8,434.1 292.5,423.3 293.1,413.0 293.8,410.5 294.5,411.5 295.2,415.4 295.8,421.2 296.5,426.8 297.2,424.4 297.8,409.2 298.5,398.9 299.2,395.7 299.9,395.7 300.5,397.3 301.2,400.8 301.9,407.8 302.5,416.7 303.2,425.7 303.9,428.9 304.6,423.4 305.2,417.0 305.9,417.4 306.6,424.3 307.2,420.4 307.9,406.8 308.6,398.7 309.3,395.2 309.9,395.1 310.6,402.1 311.3,414.2 311.9,431.6 312.6,443.7 313.3,441.3 314.0,425.4 314.6,416.9 315.3,409.6 316.0,404.4 316.6,401.2 317.3,400.7 318.0,401.4 318.7,406.7 319.3,415.8 320.0,419.5 320.7,419.5 321.3,420.6 322.0,423.8 322.7,419.6 323.4,403.1 324.0,398.3 324.7,397.0 325.4,397.3 326.0,402.1 326.7,408.2 327.4,414.6 328.1,418.8 328.7,409.6 329.4,398.4 330.1,392.5 330.7,393.1 331.4,398.1 332.1,405.4 332.8,414.8 333.4,421.3 334.1,423.7 334.8,425.8 335.4,422.5 336.1,414.5 336.8,406.4 337.5,398.6 338.1,397.9 338.8,406.7 339.5,417.5 340.1,421.3 340.8,414.5 341.5,394.8 342.2,378.3 342.8,375.8 343.5,388.7 344.2,404.4 344.8,409.3 345.5,404.3 346.2,389.1 346.9,375.9 347.5,376.2 348.2,391.8 348.9,407.8 349.5,408.8 350.2,406.3 350.9,409.1 351.6,425.2 352.2,436.0 352.9,440.6 353.6,443.1 354.2,444.7 354.9,445.6 355.6,446.6 356.3,447.2 356.9,448.2 357.6,449.5 358.3,449.8 358.9,450.1 359.6,450.3 360.3,449.8 361.0,446.1 361.6,444.5 362.3,445.7 363.0,446.1 363.6,443.0 364.3,435.7 365.0,433.2 365.7,433.3 366.3,433.2 367.0,432.9 367.7,431.8 368.3,430.4 369.0,429.8 369.7,429.5 370.4,429.3 371.0,429.1 371.7,428.9 372.4,428.9 373.0,428.6 373.7,428.5 374.4,428.4 375.1,428.4 375.7,428.4 376.4,428.1 377.1,428.1 377.7,428.1 378.4,428.1 379.1,428.1 379.8,428.1 380.4,428.1 381.1,428.1 381.8,428.1 382.5,428.4 383.1,428.4 383.8,428.4 384.5,428.4 385.1,428.8 385.8,428.8 386.5,428.6 387.2,428.4 387.8,428.6 388.5,428.6 389.2,428.4 389.8,428.4 390.5,428.1 391.2,428.1 391.9,428.0 392.5,425.6 393.2,417.1 393.9,407.4 394.5,399.4 395.2,399.2 395.9,405.8 396.6,416.4 397.2,424.1 397.9,426.3 398.6,414.7 399.2,402.9 399.9,394.1 400.6,389.6 401.3,387.9 401.9,389.7 402.6,395.5 403.3,399.9 403.9,405.7 404.6,409.8 405.3,416.4 406.0,426.8 406.6,436.4 407.3,442.2 408.0,440.1 408.6,430.5 409.3,418.8 410.0,410.4 410.7,401.9 411.3,395.0 412.0,389.6 412.7,384.2 413.3,381.0 414.0,380.7 414.7,392.0 415.4,404.7 416.0,415.3 416.7,421.3 417.4,421.4 418.0,418.9 418.7,416.0 419.4,417.0 420.1,422.1 420.7,424.6 421.4,425.9 422.1,427.8 422.7,424.8 423.4,418.5 424.1,419.7 424.8,427.8 425.4,431.8 426.1,432.7 426.8,430.9 427.4,427.2 428.1,426.0 428.8,426.4 429.5,427.4 430.1,427.4 430.8,428.1 431.5,428.6 432.1,428.4 432.8,426.0 433.5,422.9 434.2,423.1 434.8,424.5 435.5,426.0 436.2,425.2 436.8,421.1 437.5,419.0 438.2,420.7 438.9,424.0 439.5,423.8 440.2,420.2 440.9,413.5 441.5,409.9 442.2,417.5 442.9,427.5 443.6,430.7 444.2,430.6 444.9,421.6 445.6,409.6 446.2,405.5 446.9,405.3 447.6,404.4 448.3,399.7 448.9,394.2 449.6,394.4 450.3,400.1 450.9,407.2 451.6,420.0 452.3,420.5 453.0,413.5 453.6,412.4 454.3,413.2 455.0,414.0 455.6,411.0 456.3,404.0 457.0,383.8 457.7,382.2 458.3,387.8 459.0,393.7 459.7,394.9 460.3,394.4 461.0,395.7 461.7,400.9 462.4,405.7 463.0,414.0 463.7,421.1 464.4,421.5 465.0,421.6 465.7,424.9 466.4,427.5 467.1,425.2 467.7,417.0 468.4,409.6 469.1,403.1 469.7,399.8 470.4,404.3 471.1,413.3 471.8,422.7 472.4,427.5 473.1,432.6 473.8,439.0 474.4,442.8 475.1,444.7 475.8,445.7 476.5,446.2 477.1,446.9 477.8,447.0 478.5,446.9 479.1,446.0 479.8,436.8 480.5,420.8 481.2,410.5 481.8,410.6 482.5,419.6 483.2,420.2 483.8,420.5 484.5,422.8 485.2,430.3 485.9,432.9 486.5,430.8 487.2,428.1 487.9,429.4 488.5,428.5 489.2,410.1 489.9,383.1 490.6,375.5 491.2,394.1 491.9,414.3 492.6,423.7 493.2,438.5 493.9,440.3 494.6,439.3 495.3,439.2 495.9,439.9 496.6,441.0 497.3,441.2 497.9,440.8 498.6,439.8 499.3,438.9 500.0,438.6 500.6,438.6 501.3,438.5 502.0,438.4 502.6,438.2 503.3,438.1 504.0,438.2 504.7,438.1 505.3,438.1 506.0,438.2 506.7,438.1 507.3,437.7 508.0,437.5 508.7,437.0 509.4,436.7 510.0,436.7 510.7,436.7 511.4,436.7 512.0,436.7 512.7,437.0 513.4,436.9 514.1,437.0 514.7,437.0 515.4,437.0 516.1,436.9 516.7,437.0 517.4,437.0 518.1,437.1 518.8,437.2 519.4,437.2 520.1,437.5 520.8,437.5 521.4,436.9 522.1,429.8 522.8,412.9 523.5,398.0 524.1,396.0 524.8,403.5 525.5,410.8 526.1,419.0 526.8,430.8 527.5,437.5 528.2,435.2 528.8,430.1 529.5,429.6 530.2,428.5 530.8,423.0 531.5,417.7 532.2,416.7 532.9,417.6 533.5,424.1 534.2,425.6 534.9,422.4 535.5,419.8 536.2,414.2 536.9,408.8 537.6,407.5 538.2,408.3 538.9,418.4 539.6,425.3 540.2,427.4 540.9,423.6 541.6,421.5 542.3,422.5 542.9,425.7 543.6,427.3 544.3,410.0 544.9,395.1 545.6,394.3 546.3,400.9 547.0,408.4 547.6,414.8 548.3,421.6 549.0,421.6 549.6,415.7 550.3,402.8 551.0,398.2 551.7,397.8 552.3,402.9 553.0,414.0 553.7,430.2 554.3,442.0 555.0,446.0 555.7,446.3 556.4,446.2 557.0,445.3 557.7,445.0 558.4,444.8 559.0,444.2 559.7,443.0 560.4,442.3 561.1,442.3 561.7,443.1 562.4,446.7 563.1,446.9 563.7,446.2 564.4,445.4 565.1,444.4 565.8,443.4 566.4,443.2 567.1,443.2 567.8,442.9 568.4,438.5 569.1,434.3 569.8,433.9 570.5,435.0 571.1,437.4 571.8,446.0 572.5,449.5 573.1,447.1 573.8,443.7 574.5,439.6 575.2,435.9 575.8,433.8 576.5,434.7 577.2,437.4 577.8,442.0 578.5,455.5 579.2,463.5 579.9,465.5 580.5,460.1 581.2,446.7 581.9,440.5 582.5,437.4 583.2,432.3 583.9,428.0 584.6,426.7 585.2,425.5 585.9,425.4 586.6,427.2 587.2,432.7 587.9,434.8 588.6,433.5 589.3,421.0 589.9,418.2 590.6,422.6 591.3,429.0 591.9,433.1 592.6,436.0 593.3,436.2 594.0,434.9 594.6,434.0 595.3,433.5 596.0,433.5 596.6,433.5 597.3,432.9 598.0,432.2 598.7,431.6 599.3,431.6 600.0,432.0 600.7,432.4 601.3,432.6 602.0,432.6 602.7,432.3 603.4,432.3 604.0,432.3 604.7,432.3 605.4,432.3 606.0,432.3 606.7,432.3 607.4,432.0 608.1,432.0 608.7,432.0 609.4,432.0 610.1,432.0 610.8,432.1 611.4,432.3 612.1,432.3 612.8,432.6 613.4,432.6 614.1,432.6 614.8,432.6 615.5,432.6 616.1,432.2 616.8,425.8 617.5,412.2 618.1,402.1 618.8,398.1 619.5,398.2 620.2,399.7 620.8,399.8 621.5,399.1 622.2,399.1 622.8,400.7 623.5,401.0 624.2,397.2 624.9,392.3 625.5,392.1 626.2,393.7 626.9,394.4 627.5,394.1 628.2,394.7 628.9,395.6 629.6,395.4 630.2,395.2 630.9,395.1 631.6,397.6 632.2,400.2 632.9,401.1 633.6,401.2 634.3,401.2 634.9,398.1 635.6,391.6 636.3,386.9 636.9,381.6 637.6,375.5 638.3,374.7 639.0,379.7 639.6,381.3 640.3,381.2 641.0,381.1 641.6,378.6 642.3,370.3 643.0,363.4 643.7,360.0 644.3,361.2 645.0,364.2 645.7,367.7 646.3,372.3 647.0,374.1 647.7,373.7 648.4,373.5 649.0,375.3 649.7,376.9 650.4,378.0 651.0,376.5 651.7,374.8 652.4,383.4 653.1,390.9 653.7,393.9 654.4,399.6 655.1,397.2 655.7,386.4 656.4,379.7 657.1,377.9 657.8,379.3 658.4,387.6 659.1,392.3 659.8,398.2 660.4,395.6 661.1,395.0 661.8,395.7 662.5,399.6 663.1,402.1 663.8,401.0 664.5,396.2 665.1,393.6 665.8,393.2 666.5,392.1 667.2,390.5 667.8,385.8 668.5,377.4 669.2,373.5 669.8,369.6 670.5,365.4 671.2,365.8 671.9,368.8 672.5,370.3 673.2,371.2 673.9,373.7 674.5,378.5 675.2,380.2 675.9,380.2 676.6,390.9 677.2,406.6 677.9,424.1 678.6,432.4 679.2,440.5 679.9,441.9 680.6,441.1 681.3,438.3 681.9,434.4 682.6,434.4 683.3,441.0 683.9,437.3 684.6,430.2 685.3,430.8 686.0,430.3 686.6,432.2 687.3,434.5 688.0,431.9 688.6,423.4 689.3,417.4 690.0,417.5 690.7,423.7 691.3,426.8 692.0,426.8 692.7,428.3 693.3,428.5 694.0,429.5 694.7,431.2 695.4,432.1 696.0,432.2 696.7,432.3 697.4,432.4 698.0,432.6 698.7,432.6 699.4,432.8 700.1,433.0 700.7,433.1 701.4,433.1 702.1,433.1 702.7,433.2 703.4,433.2 704.1,433.2 704.8,433.1 705.4,433.1 706.1,433.3 706.8,433.4 707.4,433.4 708.1,433.4 708.8,433.5 709.5,433.5 710.1,433.5 710.8,433.5 711.5,433.5 712.1,433.5 712.8,433.5 713.5,433.6 714.2,433.6 714.8,433.6 715.5,433.6 716.2,433.6 716.8,433.6 717.5,433.6 718.2,430.8 718.9,426.2 719.5,424.6 720.2,422.0 720.9,420.1 721.5,418.4 722.2,417.3 722.9,417.7 723.6,418.8 724.2,422.0 724.9,425.0 725.6,427.2 726.2,427.6 726.9,427.9 727.6,428.1 728.3,428.6 728.9,428.9 729.6,428.9 730.3,428.8 730.9,428.8 731.6,427.9 732.3,426.8 733.0,426.6 733.6,427.4 734.3,429.4 735.0,429.5 735.6,429.5 736.3,429.5 737.0,429.4 737.7,428.4 738.3,427.8 739.0,427.8 739.7,427.7 740.3,427.7 741.0,427.7 741.7,427.7 742.4,427.6 743.0,427.6 743.7,427.8 744.4,427.8 745.0,428.0 745.7,428.1 746.4,428.4 747.1,428.6 747.7,428.6 748.4,428.6 749.1,428.6 749.7,428.6 750.4,428.6 751.1,429.4 751.8,432.5 752.4,436.1 753.1,437.0 753.8,437.1 754.4,438.8 755.1,439.4 755.8,438.7 756.5,437.0 757.1,432.7 757.8,421.3 758.5,406.4 759.1,395.7 759.8,393.3 760.5,404.3 761.2,417.6 761.8,427.0 762.5,428.5 763.2,416.1 763.8,399.3 764.5,391.1 765.2,393.7 765.9,405.9 766.5,417.1 767.2,421.6 767.9,423.0 768.5,423.4 769.2,425.1 769.9,425.8 770.6,421.6 771.2,421.4 771.9,421.3 772.6,417.8 773.2,415.7 773.9,417.1 774.6,412.8 775.3,403.6 775.9,397.6 776.6,399.3 777.3,418.3 777.9,435.2 778.6,431.5 779.3,411.8 780.0,406.3 780.6,401.4 781.3,399.2 782.0,400.7 782.6,403.6 783.3,416.8 784.0,426.9 784.7,434.7 785.3,437.3 786.0,436.4 786.7,435.9 787.3,435.1 788.0,433.7 788.7,433.1 789.4,429.9 790.0,422.6 790.7,421.5 791.4,421.3 792.0,420.0 792.7,421.0 793.4,434.1 794.1,445.7 794.7,448.8 795.4,449.1 796.1,449.1 796.7,451.1 797.4,451.3 798.1,449.1 798.8,446.4 799.4,444.9 800.1,444.9 800.8,444.9 801.4,445.2 802.1,445.2 802.8,444.5 803.5,444.2 804.1,444.2 804.8,444.3 805.5,444.3 806.1,444.3 806.8,444.3 807.5,444.1 808.2,443.5 808.8,442.8 809.5,442.5 810.2,442.3 810.8,442.1 811.5,439.1 812.2,434.5 812.9,422.0 813.5,421.9 814.2,429.6 814.9,440.7 815.5,441.6 816.2,440.3 816.9,439.3 817.6,438.3 818.2,436.7 818.9,435.4 819.6,434.7 820.2,434.3 820.9,434.1 821.6,434.4 822.3,434.5 822.9,434.5 823.6,434.5 824.3,434.5 824.9,434.5 825.6,434.5 826.3,434.5 827.0,434.5 827.6,434.5 828.3,434.5 829.0,434.5 829.6,434.5 830.3,434.7 831.0,435.0 831.7,435.2 832.3,435.2 833.0,435.2 833.7,435.2 834.3,435.8 835.0,437.3 835.7,444.4 836.4,452.5 837.0,454.9 837.7,457.5 838.4,458.8 839.1,458.7 839.7,458.0 840.4,450.8 841.1,445.1 841.7,440.6 842.4,438.6 843.1,434.8 843.8,431.2 844.4,430.5 845.1,430.0 845.8,429.5 846.4,429.4 847.1,429.4 847.8,429.4 848.5,429.4 849.1,429.4 849.8,429.4 850.5,426.4 851.1,421.6 851.8,421.3 852.5,421.3 853.2,421.3 853.8,421.3 854.5,421.3 855.2,421.3 855.8,421.3 856.5,421.3 857.2,421.3 857.9,421.3 858.5,421.3 859.2,421.3 859.9,421.3"/><line x1="47.3" y1="360" x2="47.3" y2="470" stroke="#f0a000" stroke-dasharray="4 3"/><line x1="47.3" y1="360" x2="47.3" y2="470" stroke="#f0a000" stroke-dasharray="4 3"/><line x1="47.3" y1="360" x2="47.3" y2="470" stroke="#f0a000" stroke-dasharray="4 3"/><line x1="47.3" y1="360" x2="47.3" y2="470" stroke="#f0a000" stroke-dasharray="4 3"/><line x1="47.3" y1="360" x2="47.3" y2="470" stroke="#f0a000" stroke-dasharray="4 3"/><line x1="47.3" y1="360" x2="47.3" y2="470" stroke="#f0a000" stroke-dasharray="4 3"/><line x1="47.3" y1="360" x2="47.3" y2="470" stroke="#f0a000" stroke-dasharray="4 3"/><line x1="90.4" y1="360" x2="90.4" y2="470" stroke="#f0a000" stroke-dasharray="4 3"/><line x1="103.1" y1="360" x2="103.1" y2="470" stroke="#f0a000" stroke-dasharray="4 3"/><line x1="248.7" y1="360" x2="248.7" y2="470" stroke="#f0a000" stroke-dasharray="4 3"/><line x1="265.3" y1="360" x2="265.3" y2="470" stroke="#f0a000" stroke-dasharray="4 3"/><line x1="369.9" y1="360" x2="369.9" y2="470" stroke="#f0a000" stroke-dasharray="4 3"/><line x1="390.5" y1="360" x2="390.5" y2="470" stroke="#f0a000" stroke-dasharray="4 3"/><line x1="500.5" y1="360" x2="500.5" y2="470" stroke="#f0a000" stroke-dasharray="4 3"/><line x1="519.2" y1="360" x2="519.2" y2="470" stroke="#f0a000" stroke-dasharray="4 3"/><line x1="600.3" y1="360" x2="600.3" y2="470" stroke="#f0a000" stroke-dasharray="4 3"/><line x1="614.3" y1="360" x2="614.3" y2="470" stroke="#f0a000" stroke-dasharray="4 3"/><line x1="701.4" y1="360" x2="701.4" y2="470" stroke="#f0a000" stroke-dasharray="4 3"/><line x1="715.3" y1="360" x2="715.3" y2="470" stroke="#f0a000" stroke-dasharray="4 3"/><line x1="820.9" y1="360" x2="820.9" y2="470" stroke="#f0a000" stroke-dasharray="4 3"/><line x1="833.3" y1="360" x2="833.3" y2="470" stroke="#f0a000" stroke-dasharray="4 3"/></svg>