<svg xmlns="http://www.w3.org/2000/svg" width="900" height="520" font-family="sans-serif"><text x="40" y="32" font-size="13" fill="#333">j1 — 출력 P(빨강, 모터 실제각), [-23°, 75°], 305s</text><rect x="40" y="40" width="820" height="110" fill="none" stroke="#ddd"/><polyline fill="none" stroke="#1f77b4" stroke-width="1.2" points=""/><polyline fill="none" stroke="#d62728" stroke-width="1.2" points="40.0,121.5 40.7,121.5 41.3,121.5 42.0,121.5 42.7,121.5 43.4,121.5 44.0,121.5 44.7,121.5 45.4,121.5 46.0,121.5 46.7,121.5 47.4,121.5 48.1,121.5 48.7,121.5 49.4,121.5 50.1,121.5 50.7,121.5 51.4,121.5 52.1,121.5 52.8,121.5 53.4,121.5 54.1,121.5 54.8,121.5 55.4,121.5 56.1,121.5 56.8,121.5 57.5,121.5 58.1,121.5 58.8,121.4 59.5,121.0 60.1,121.0 60.8,121.0 61.5,121.1 62.2,121.5 62.8,121.5 63.5,121.5 64.2,121.5 64.8,121.5 65.5,121.5 66.2,121.5 66.9,121.5 67.5,121.5 68.2,121.5 68.9,121.5 69.5,121.5 70.2,121.5 70.9,121.5 71.6,121.5 72.2,121.5 72.9,121.5 73.6,121.5 74.2,121.5 74.9,121.5 75.6,121.5 76.3,121.5 76.9,121.5 77.6,121.5 78.3,121.5 78.9,121.5 79.6,121.5 80.3,121.5 81.0,121.5 81.6,121.5 82.3,121.5 83.0,121.5 83.6,121.5 84.3,121.5 85.0,121.5 85.7,121.5 86.3,121.5 87.0,121.5 87.7,121.5 88.3,121.5 89.0,121.5 89.7,121.5 90.4,121.5 91.0,121.5 91.7,121.5 92.4,121.5 93.0,121.5 93.7,121.5 94.4,121.5 95.1,121.5 95.7,121.5 96.4,121.5 97.1,121.0 97.7,121.4 98.4,121.1 99.1,120.9 99.8,120.9 100.4,120.9 101.1,120.9 101.8,120.9 102.4,120.9 103.1,120.9 103.8,120.9 104.5,121.0 105.1,121.0 105.8,121.7 106.5,120.3 107.1,115.4 107.8,115.0 108.5,115.7 109.2,112.4 109.8,102.3 110.5,94.4 111.2,88.7 111.8,85.4 112.5,85.0 113.2,84.6 113.9,79.3 114.5,75.6 115.2,73.0 115.9,60.1 116.5,50.9 117.2,43.4 117.9,43.7 118.6,60.6 119.2,83.4 119.9,105.2 120.6,122.4 121.2,131.7 121.9,133.5 122.6,133.4 123.3,133.3 123.9,135.6 124.6,138.2 125.3,144.1 125.9,148.0 126.6,148.0 127.3,139.8 128.0,130.0 128.6,118.7 129.3,112.0 130.0,108.5 130.6,105.7 131.3,103.6 132.0,99.7 132.7,90.0 133.3,84.6 134.0,84.2 134.7,88.3 135.3,100.7 136.0,112.6 136.7,119.5 137.4,121.7 138.0,118.5 138.7,115.0 139.4,112.5 140.0,109.4 140.7,99.6 141.4,87.1 142.1,79.4 142.7,79.3 143.4,80.2 144.1,83.6 144.7,88.5 145.4,89.3 146.1,91.3 146.8,93.2 147.4,95.6 148.1,112.0 148.8,120.0 149.4,121.6 150.1,121.5 150.8,121.3 151.5,121.3 152.1,120.8 152.8,120.4 153.5,119.9 154.2,119.8 154.8,119.8 155.5,119.8 156.2,119.8 156.8,121.7 157.5,121.2 158.2,117.1 158.9,116.0 159.5,115.9 160.2,115.8 160.9,116.4 161.5,118.6 162.2,118.6 162.9,118.7 163.6,115.5 164.2,114.2 164.9,114.3 165.6,114.3 166.2,114.3 166.9,112.0 167.6,111.4 168.3,111.4 168.9,111.4 169.6,112.3 170.3,116.3 170.9,118.6 171.6,118.6 172.3,118.9 173.0,119.1 173.6,119.1 174.3,119.5 175.0,121.1 175.6,131.4 176.3,131.5 177.0,131.4 177.7,130.9 178.3,130.7 179.0,127.9 179.7,123.9 180.3,124.6 181.0,125.1 181.7,126.6 182.4,127.7 183.0,125.6 183.7,120.1 184.4,113.7 185.0,105.7 185.7,100.7 186.4,98.7 187.1,97.2 187.7,94.7 188.4,93.2 189.1,92.9 189.7,92.9 190.4,92.9 191.1,92.6 191.8,93.2 192.4,102.2 193.1,112.5 193.8,120.6 194.4,124.6 195.1,125.2 195.8,124.1 196.5,119.6 197.1,117.9 197.8,118.3 198.5,125.1 199.1,128.6 199.8,128.6 200.5,128.5 201.2,127.5 201.8,124.6 202.5,123.5 203.2,123.0 203.8,124.7 204.5,127.6 205.2,128.2 205.9,131.3 206.5,132.4 207.2,131.5 207.9,129.5 208.5,126.2 209.2,122.0 209.9,117.0 210.6,115.7 211.2,116.8 211.9,123.5 212.6,127.0 213.2,129.0 213.9,130.6 214.6,131.3 215.3,131.5 215.9,130.5 216.6,127.4 217.3,124.5 217.9,120.9 218.6,120.8 219.3,121.3 220.0,125.6 220.6,129.2 221.3,130.9 222.0,130.5 222.6,126.7 223.3,126.4 224.0,128.4 224.7,130.0 225.3,130.6 226.0,130.1 226.7,130.0 227.3,130.7 228.0,131.3 228.7,131.6 229.4,133.7 230.0,135.1 230.7,135.4 231.4,135.3 232.0,134.1 232.7,132.6 233.4,131.3 234.1,130.5 234.7,128.7 235.4,128.2 236.1,125.2 236.7,118.5 237.4,117.1 238.1,117.1 238.8,118.1 239.4,121.5 240.1,121.3 240.8,122.0 241.4,124.4 242.1,126.0 242.8,126.3 243.5,126.3 244.1,126.2 244.8,126.0 245.5,125.6 246.1,125.4 246.8,125.4 247.5,124.9 248.2,124.7 248.8,124.6 249.5,124.6 250.2,124.7 250.8,124.7 251.5,124.7 252.2,124.7 252.9,124.7 253.5,124.7 254.2,124.7 254.9,124.7 255.5,124.6 256.2,124.6 256.9,124.6 257.6,124.6 258.2,124.5 258.9,124.5 259.6,124.5 260.2,124.5 260.9,124.4 261.6,124.5 262.3,124.5 262.9,124.5 263.6,124.5 264.3,124.5 264.9,124.5 265.6,124.5 266.3,124.5 267.0,124.5 267.6,124.5 268.3,124.3 269.0,123.6 269.6,122.9 270.3,122.2 271.0,117.6 271.7,109.2 272.3,98.1 273.0,90.5 273.7,85.9 274.3,85.0 275.0,85.1 275.7,85.1 276.4,85.0 277.0,85.1 277.7,85.0 278.4,85.0 279.0,85.0 279.7,88.7 280.4,98.4 281.1,105.4 281.7,112.8 282.4,111.0 283.1,104.8 283.7,103.7 284.4,103.7 285.1,106.5 285.8,112.3 286.4,117.2 287.1,122.5 287.8,124.0 288.4,124.5 289.1,124.9 289.8,125.2 290.5,125.2 291.1,125.2 291.8,125.1 292.5,124.5 293.1,122.4 293.8,121.4 294.5,118.8 295.2,116.2 295.8,115.4 296.5,117.3 297.2,123.6 297.8,125.3 298.5,122.4 299.2,117.7 299.9,115.7 300.5,113.7 301.2,112.8 301.9,112.2 302.5,112.2 303.2,112.8 303.9,115.1 304.6,120.2 305.2,124.8 305.9,127.3 306.6,128.6 307.2,129.7 307.9,122.4 308.6,120.0 309.3,118.5 309.9,115.2 310.6,109.5 311.3,108.5 311.9,103.7 312.6,99.7 313.3,101.7 314.0,105.2 314.6,105.2 315.3,105.2 316.0,105.5 316.6,105.5 317.3,105.7 318.0,108.6 318.7,113.4 319.3,119.3 320.0,121.7 320.7,123.4 321.3,124.7 322.0,125.7 322.7,128.2 323.4,127.6 324.0,125.7 324.7,123.0 325.4,119.0 326.0,113.2 326.7,107.6 327.4,102.4 328.1,97.3 328.7,106.2 329.4,119.5 330.1,123.8 330.7,121.0 331.4,113.6 332.1,105.3 332.8,95.5 333.4,89.2 334.1,87.8 334.8,86.3 335.4,89.5 336.1,97.2 336.8,105.1 337.5,112.8 338.1,113.1 338.8,104.1 339.5,92.7 340.1,90.3 340.8,96.9 341.5,115.7 342.2,128.2 342.8,129.9 343.5,119.2 344.2,104.8 344.8,100.4 345.5,104.1 346.2,118.1 346.9,128.3 347.5,128.3 348.2,116.4 348.9,107.6 349.5,107.9 350.2,108.0 350.9,105.1 351.6,95.7 352.2,83.9 352.9,75.2 353.6,70.2 354.2,67.3 354.9,64.6 355.6,62.1 356.3,60.5 356.9,59.6 357.6,58.1 358.3,56.6 358.9,56.6 359.6,56.6 360.3,53.8 361.0,48.0 361.6,46.5 362.3,54.3 363.0,79.1 363.6,97.9 364.3,108.6 365.0,114.3 365.7,117.2 366.3,118.7 367.0,119.1 367.7,119.6 368.3,119.9 369.0,119.9 369.7,119.9 370.4,119.9 371.0,119.9 371.7,119.9 372.4,119.9 373.0,119.9 373.7,119.9 374.4,119.9 375.1,119.9 375.7,119.9 376.4,120.1 377.1,120.2 377.7,120.2 378.4,120.2 379.1,120.3 379.8,120.5 380.4,120.5 381.1,121.0 381.8,121.5 382.5,121.5 383.1,121.5 383.8,121.5 384.5,121.5 385.1,121.5 385.8,121.2 386.5,121.5 387.2,121.5 387.8,121.0 388.5,121.0 389.2,121.0 389.8,121.0 390.5,121.0 391.2,121.0 391.9,121.0 392.5,120.6 393.2,120.4 393.9,118.9 394.5,115.7 395.2,110.2 395.9,109.0 396.6,108.5 397.2,107.0 397.9,106.7 398.6,108.3 399.2,111.4 399.9,113.5 400.6,115.7 401.3,116.7 401.9,116.6 402.6,114.1 403.3,108.9 403.9,105.0 404.6,102.2 405.3,101.5 406.0,98.6 406.6,92.9 407.3,90.5 408.0,90.9 408.6,95.4 409.3,98.9 410.0,102.5 410.7,107.0 411.3,112.8 412.0,118.1 412.7,122.2 413.3,127.3 414.0,130.8 414.7,136.9 415.4,137.0 416.0,132.6 416.7,130.1 417.4,136.6 418.0,146.5 418.7,148.6 419.4,148.9 420.1,143.3 420.7,132.5 421.4,124.5 422.1,125.8 422.7,142.8 423.4,150.0 424.1,141.6 424.8,121.2 425.4,110.1 426.1,102.8 426.8,100.4 427.4,100.4 428.1,100.4 428.8,100.5 429.5,100.5 430.1,100.5 430.8,100.5 431.5,100.5 432.1,100.5 432.8,100.5 433.5,101.0 434.2,101.1 434.8,101.2 435.5,101.2 436.2,101.5 436.8,103.6 437.5,104.4 438.2,104.4 438.9,104.4 439.5,104.4 440.2,104.4 440.9,106.4 441.5,110.0 442.2,113.6 442.9,113.7 443.6,117.6 444.2,121.9 444.9,126.2 445.6,126.9 446.2,123.6 446.9,117.8 447.6,116.6 448.3,116.9 448.9,119.3 449.6,119.5 450.3,113.9 450.9,106.3 451.6,93.5 452.3,92.3 453.0,97.0 453.6,98.1 454.3,98.0 455.0,97.3 455.6,100.3 456.3,108.0 457.0,127.5 457.7,128.8 458.3,123.2 459.0,118.2 459.7,117.3 460.3,117.3 461.0,117.3 461.7,113.7 462.4,107.4 463.0,99.0 463.7,94.8 464.4,94.9 465.0,95.2 465.7,91.5 466.4,89.6 467.1,90.7 467.7,95.6 468.4,103.8 469.1,109.3 469.7,119.7 470.4,127.6 471.1,127.7 471.8,127.1 472.4,125.2 473.1,123.7 473.8,122.1 474.4,122.0 475.1,122.0 475.8,122.0 476.5,122.0 477.1,122.0 477.8,122.0 478.5,122.0 479.1,122.5 479.8,123.2 480.5,123.5 481.2,122.4 481.8,111.1 482.5,98.7 483.2,97.4 483.8,96.2 484.5,92.2 485.2,85.8 485.9,83.2 486.5,83.9 487.2,86.6 487.9,86.0 488.5,86.5 489.2,107.0 489.9,133.1 490.6,138.6 491.2,118.9 491.9,101.6 492.6,100.4 493.2,97.5 493.9,108.7 494.6,115.5 495.3,119.0 495.9,119.1 496.6,119.4 497.3,120.2 497.9,120.3 498.6,120.2 499.3,120.2 500.0,120.2 500.6,120.2 501.3,120.2 502.0,120.1 502.6,120.1 503.3,120.1 504.0,120.1 504.7,120.1 505.3,120.1 506.0,120.1 506.7,120.1 507.3,120.0 508.0,120.0 508.7,120.0 509.4,120.0 510.0,120.0 510.7,120.0 511.4,120.0 512.0,120.0 512.7,120.0 513.4,119.8 514.1,119.8 514.7,119.8 515.4,119.8 516.1,119.8 516.7,119.8 517.4,119.5 518.1,119.3 518.8,119.3 519.4,119.3 520.1,119.3 520.8,119.3 521.4,119.3 522.1,120.9 522.8,121.3 523.5,119.0 524.1,110.8 524.8,101.8 525.5,100.5 526.1,100.5 526.8,97.7 527.5,92.6 528.2,89.7 528.8,88.3 529.5,88.3 530.2,88.3 530.8,88.3 531.5,88.3 532.2,88.3 532.9,88.4 533.5,88.4 534.2,88.6 534.9,91.1 535.5,94.8 536.2,97.7 536.9,99.7 537.6,102.5 538.2,106.3 538.9,113.8 539.6,122.8 540.2,135.1 540.9,144.3 541.6,145.5 542.3,134.7 542.9,126.6 543.6,125.3 544.3,128.2 544.9,123.7 545.6,116.0 546.3,112.0 547.0,107.2 547.6,105.2 548.3,104.7 549.0,108.3 549.6,116.7 550.3,118.6 551.0,118.5 551.7,118.6 552.3,118.3 553.0,115.6 553.7,110.8 554.3,107.1 555.0,107.0 555.7,107.0 556.4,107.0 557.0,107.0 557.7,107.2 558.4,107.3 559.0,107.5 559.7,107.6 560.4,107.6 561.1,107.6 561.7,107.6 562.4,107.5 563.1,107.5 563.7,107.5 564.4,107.5 565.1,107.5 565.8,107.6 566.4,107.6 567.1,107.6 567.8,108.7 568.4,112.8 569.1,117.5 569.8,120.4 570.5,121.8 571.1,121.7 571.8,118.8 572.5,116.5 573.1,116.5 573.8,117.8 574.5,119.3 575.2,120.1 575.8,120.3 576.5,120.2 577.2,119.4 577.8,118.3 578.5,114.6 579.2,113.9 579.9,113.5 580.5,113.0 581.2,115.1 581.9,117.2 582.5,118.2 583.2,119.6 583.9,120.3 584.6,120.3 585.2,120.3 585.9,120.6 586.6,120.2 587.2,118.2 587.9,117.7 588.6,117.7 589.3,118.0 589.9,117.9 590.6,117.9 591.3,118.1 591.9,118.1 592.6,118.1 593.3,118.3 594.0,118.8 594.6,119.0 595.3,119.0 596.0,119.0 596.6,119.0 597.3,119.0 598.0,119.0 598.7,118.9 599.3,118.9 600.0,118.9 600.7,118.8 601.3,118.6 602.0,118.6 602.7,118.6 603.4,118.6 604.0,118.6 604.7,118.6 605.4,118.6 606.0,118.6 606.7,118.6 607.4,118.6 608.1,118.6 608.7,118.6 609.4,118.6 610.1,118.6 610.8,118.6 611.4,118.6 612.1,118.6 612.8,118.6 613.4,118.6 614.1,118.6 614.8,118.6 615.5,118.6 616.1,118.6 616.8,119.0 617.5,121.5 618.1,121.3 618.8,116.7 619.5,113.3 620.2,110.2 620.8,108.9 621.5,109.0 622.2,109.0 622.8,106.6 623.5,106.2 624.2,106.7 624.9,106.9 625.5,104.0 626.2,100.1 626.9,98.7 627.5,98.7 628.2,97.7 628.9,97.2 629.6,97.3 630.2,98.4 630.9,99.9 631.6,100.1 632.2,100.0 632.9,99.6 633.6,99.6 634.3,99.6 634.9,99.8 635.6,106.6 636.3,112.7 636.9,116.9 637.6,121.8 638.3,121.7 639.0,119.3 639.6,116.9 640.3,113.7 641.0,112.2 641.6,112.1 642.3,113.5 643.0,117.5 643.7,119.9 644.3,119.5 645.0,117.8 645.7,117.8 646.3,117.5 647.0,117.5 647.7,117.5 648.4,117.5 649.0,117.4 649.7,115.7 650.4,114.4 651.0,115.0 651.7,122.7 652.4,127.8 653.1,127.9 653.7,127.2 654.4,127.1 655.1,125.3 655.7,125.1 656.4,121.5 657.1,119.1 657.8,116.0 658.4,109.7 659.1,106.4 659.8,95.4 660.4,88.1 661.1,86.6 661.8,86.5 662.5,86.2 663.1,86.2 663.8,90.0 664.5,95.8 665.1,96.6 665.8,96.6 666.5,96.6 667.2,97.1 667.8,103.8 668.5,112.9 669.2,116.7 669.8,119.5 670.5,120.8 671.2,120.9 671.9,120.5 672.5,117.7 673.2,114.2 673.9,113.1 674.5,109.8 675.2,108.2 675.9,117.8 676.6,125.0 677.2,121.4 677.9,115.0 678.6,105.2 679.2,99.7 679.9,105.5 680.6,114.0 681.3,117.9 681.9,118.9 682.6,118.1 683.3,114.0 683.9,114.1 684.6,113.0 685.3,101.3 686.0,100.5 686.6,100.6 687.3,100.6 688.0,101.2 688.6,105.9 689.3,108.2 690.0,108.3 690.7,108.3 691.3,109.4 692.0,113.8 692.7,117.1 693.3,120.3 694.0,120.6 694.7,120.0 695.4,119.9 696.0,119.9 696.7,119.8 697.4,119.6 698.0,119.4 698.7,119.4 699.4,119.3 700.1,119.3 700.7,119.3 701.4,119.3 702.1,119.3 702.7,119.3 703.4,119.3 704.1,119.3 704.8,119.3 705.4,119.3 706.1,119.3 706.8,119.3 707.4,119.3 708.1,119.3 708.8,119.2 709.5,118.7 710.1,118.6 710.8,118.6 711.5,118.6 712.1,118.6 712.8,118.6 713.5,118.6 714.2,118.6 714.8,118.6 715.5,118.6 716.2,118.6 716.8,118.6 717.5,118.4 718.2,115.8 718.9,114.9 719.5,114.0 720.2,111.3 720.9,108.3 721.5,107.1 722.2,107.1 722.9,107.1 723.6,107.1 724.2,107.1 724.9,106.8 725.6,106.7 726.2,106.7 726.9,106.7 727.6,106.7 728.3,106.7 728.9,106.7 729.6,106.7 730.3,106.7 730.9,106.7 731.6,106.7 732.3,106.7 733.0,106.7 733.6,106.7 734.3,106.7 735.0,106.7 735.6,106.7 736.3,106.7 737.0,106.7 737.7,106.8 738.3,106.8 739.0,106.8 739.7,106.8 740.3,106.8 741.0,106.8 741.7,106.8 742.4,106.8 743.0,106.8 743.7,106.8 744.4,106.9 745.0,106.9 745.7,106.9 746.4,107.1 747.1,107.2 747.7,107.2 748.4,107.3 749.1,107.3 749.7,107.3 750.4,107.3 751.1,107.4 751.8,107.6 752.4,108.5 753.1,109.9 753.8,106.2 754.4,95.4 755.1,87.2 755.8,80.1 756.5,75.2 757.1,75.0 757.8,84.7 758.5,98.9 759.1,111.7 759.8,120.1 760.5,123.5 761.2,122.8 761.8,118.8 762.5,117.0 763.2,112.9 763.8,117.7 764.5,130.4 765.2,138.7 765.9,143.0 766.5,141.2 767.2,132.5 767.9,127.3 768.5,126.4 769.2,128.7 769.9,135.7 770.6,132.7 771.2,126.8 771.9,128.1 772.6,133.5 773.2,131.6 773.9,120.9 774.6,117.3 775.3,117.0 775.9,116.9 776.6,116.9 777.3,117.6 777.9,113.6 778.6,114.7 779.3,118.6 780.0,118.5 780.6,118.7 781.3,119.1 782.0,119.0 782.6,118.7 783.3,120.8 784.0,120.5 784.7,119.3 785.3,118.5 786.0,118.4 786.7,118.7 787.3,119.1 788.0,119.0 788.7,119.0 789.4,118.9 790.0,113.3 790.7,110.1 791.4,110.1 792.0,110.2 792.7,110.3 793.4,106.5 794.1,101.0 794.7,100.8 795.4,100.8 796.1,100.2 796.7,83.5 797.4,69.5 798.1,59.2 798.8,52.2 799.4,48.1 800.1,43.9 800.8,42.1 801.4,41.7 802.1,40.0 802.8,40.0 803.5,40.0 804.1,40.0 804.8,40.0 805.5,40.0 806.1,40.0 806.8,40.0 807.5,40.0 808.2,43.3 808.8,55.4 809.5,73.3 810.2,87.7 810.8,98.2 811.5,106.9 812.2,112.1 812.9,114.3 813.5,117.3 814.2,117.8 814.9,117.8 815.5,117.2 816.2,117.1 816.9,117.8 817.6,118.0 818.2,118.0 818.9,117.9 819.6,117.9 820.2,117.9 820.9,117.9 821.6,117.9 822.3,117.9 822.9,117.9 823.6,118.0 824.3,118.5 824.9,118.7 825.6,118.9 826.3,118.9 827.0,119.2 827.6,119.3 828.3,119.3 829.0,119.3 829.6,119.3 830.3,119.3 831.0,119.6 831.7,119.9 832.3,120.1 833.0,120.4 833.7,120.7 834.3,121.5 835.0,121.8 835.7,125.5 836.4,133.2 837.0,138.0 837.7,140.4 838.4,140.9 839.1,141.9 839.7,140.8 840.4,135.5 841.1,125.0 841.7,120.1 842.4,119.4 843.1,119.9 843.8,121.7 844.4,121.6 845.1,121.6 845.8,121.6 846.4,121.6 847.1,121.6 847.8,121.6 848.5,121.6 849.1,121.6 849.8,121.6 850.5,121.6 851.1,121.5 851.8,121.5 852.5,121.5 853.2,121.5 853.8,121.5 854.5,121.5 855.2,121.5 855.8,121.5 856.5,121.5 857.2,121.5 857.9,121.5 858.5,121.5 859.2,121.5 859.9,121.5"/><line x1="47.3" y1="40" x2="47.3" y2="150" stroke="#f0a000" stroke-dasharray="4 3"/><line x1="47.3" y1="40" x2="47.3" y2="150" stroke="#f0a000" stroke-dasharray="4 3"/><line x1="47.3" y1="40" x2="47.3" y2="150" stroke="#f0a000" stroke-dasharray="4 3"/><line x1="47.3" y1="40" x2="47.3" y2="150" stroke="#f0a000" stroke-dasharray="4 3"/><line x1="47.3" y1="40" x2="47.3" y2="150" stroke="#f0a000" stroke-dasharray="4 3"/><line x1="47.3" y1="40" x2="47.3" y2="150" stroke="#f0a000" stroke-dasharray="4 3"/><line x1="47.3" y1="40" x2="47.3" y2="150" stroke="#f0a000" stroke-dasharray="4 3"/><line x1="90.4" y1="40" x2="90.4" y2="150" stroke="#f0a000" stroke-dasharray="4 3"/><line x1="103.1" y1="40" x2="103.1" y2="150" stroke="#f0a000" stroke-dasharray="4 3"/><line x1="248.7" y1="40" x2="248.7" y2="150" stroke="#f0a000" stroke-dasharray="4 3"/><line x1="265.3" y1="40" x2="265.3" y2="150" stroke="#f0a000" stroke-dasharray="4 3"/><line x1="369.9" y1="40" x2="369.9" y2="150" stroke="#f0a000" stroke-dasharray="4 3"/><line x1="390.5" y1="40" x2="390.5" y2="150" stroke="#f0a000" stroke-dasharray="4 3"/><line x1="500.5" y1="40" x2="500.5" y2="150" stroke="#f0a000" stroke-dasharray="4 3"/><line x1="519.2" y1="40" x2="519.2" y2="150" stroke="#f0a000" stroke-dasharray="4 3"/><line x1="600.3" y1="40" x2="600.3" y2="150" stroke="#f0a000" stroke-dasharray="4 3"/><line x1="614.3" y1="40" x2="614.3" y2="150" stroke="#f0a000" stroke-dasharray="4 3"/><line x1="701.4" y1="40" x2="701.4" y2="150" stroke="#f0a000" stroke-dasharray="4 3"/><line x1="715.3" y1="40" x2="715.3" y2="150" stroke="#f0a000" stroke-dasharray="4 3"/><line x1="820.9" y1="40" x2="820.9" y2="150" stroke="#f0a000" stroke-dasharray="4 3"/><line x1="833.3" y1="40" x2="833.3" y2="150" stroke="#f0a000" stroke-dasharray="4 3"/><text x="40" y="192" font-size="13" fill="#333">j2 — 출력 P(빨강, 모터 실제각), [-69°, 23°], 305s</text><rect x="40" y="200" width="820" height="110" fill="none" stroke="#ddd"/><polyline fill="none" stroke="#1f77b4" stroke-width="1.2" points=""/><polyline fill="none" stroke="#d62728" stroke-width="1.2" points="40.0,218.3 40.7,218.3 41.3,218.3 42.0,218.3 42.7,218.3 43.4,218.2 44.0,218.3 44.7,218.3 45.4,218.3 46.0,218.3 46.7,218.3 47.4,218.3 48.1,218.3 48.7,218.3 49.4,218.3 50.1,218.3 50.7,218.3 51.4,218.3 52.1,218.3 52.8,218.3 53.4,218.3 54.1,218.3 54.8,218.3 55.4,218.3 56.1,218.3 56.8,218.3 57.5,218.3 58.1,218.3 58.8,218.3 59.5,218.3 60.1,218.3 60.8,218.3 61.5,218.3 62.2,218.3 62.8,218.3 63.5,218.3 64.2,218.3 64.8,218.3 65.5,218.3 66.2,218.3 66.9,218.3 67.5,218.3 68.2,218.3 68.9,218.3 69.5,218.3 70.2,218.3 70.9,218.3 71.6,218.3 72.2,218.3 72.9,218.3 73.6,218.3 74.2,218.3 74.9,218.3 75.6,218.3 76.3,218.3 76.9,218.3 77.6,218.3 78.3,218.3 78.9,218.3 79.6,218.3 80.3,218.3 81.0,218.3 81.6,218.3 82.3,218.3 83.0,218.3 83.6,218.3 84.3,218.3 85.0,218.3 85.7,218.3 86.3,218.3 87.0,218.3 87.7,218.3 88.3,218.3 89.0,218.3 89.7,218.3 90.4,218.3 91.0,218.3 91.7,218.3 92.4,218.3 93.0,218.2 93.7,218.3 94.4,218.3 95.1,218.3 95.7,218.3 96.4,218.3 97.1,218.3 97.7,218.3 98.4,218.3 99.1,218.3 99.8,218.3 100.4,218.3 101.1,218.3 101.8,218.3 102.4,218.3 103.1,218.3 103.8,218.3 104.5,218.3 105.1,219.8 105.8,227.8 106.5,229.5 107.1,231.3 107.8,231.6 108.5,233.4 109.2,239.0 109.8,243.7 110.5,246.1 111.2,242.6 111.8,243.5 112.5,245.9 113.2,242.8 113.9,239.0 114.5,240.7 115.2,252.0 115.9,260.6 116.5,263.2 117.2,264.4 117.9,267.8 118.6,272.6 119.2,273.0 119.9,265.5 120.6,257.2 121.2,256.5 121.9,256.4 122.6,249.1 123.3,244.7 123.9,246.8 124.6,252.7 125.3,254.5 125.9,252.1 126.6,252.0 127.3,251.9 128.0,252.3 128.6,253.9 129.3,253.8 130.0,253.6 130.6,254.0 131.3,256.6 132.0,261.9 132.7,267.6 133.3,270.2 134.0,273.7 134.7,276.2 135.3,276.3 136.0,274.4 136.7,267.8 137.4,260.6 138.0,258.1 138.7,257.9 139.4,257.9 140.0,258.2 140.7,262.7 141.4,266.8 142.1,268.6 142.7,268.9 143.4,268.6 144.1,266.0 144.7,264.1 145.4,263.4 146.1,263.1 146.8,262.5 147.4,261.6 148.1,257.0 148.8,255.9 149.4,256.0 150.1,255.5 150.8,255.3 151.5,254.5 152.1,253.7 152.8,252.6 153.5,250.7 154.2,250.0 154.8,249.7 155.5,249.7 156.2,249.7 156.8,249.8 157.5,250.3 158.2,246.4 158.9,243.5 159.5,241.5 160.2,241.4 160.9,242.1 161.5,243.4 162.2,243.9 162.9,244.0 163.6,242.1 164.2,240.2 164.9,239.7 165.6,240.8 166.2,244.0 166.9,244.9 167.6,245.0 168.3,242.9 168.9,241.8 169.6,241.1 170.3,241.0 170.9,241.0 171.6,241.0 172.3,240.9 173.0,240.5 173.6,240.5 174.3,240.5 175.0,241.0 175.6,245.1 176.3,246.0 177.0,246.1 177.7,246.1 178.3,246.1 179.0,246.1 179.7,246.1 180.3,247.1 181.0,247.8 181.7,249.0 182.4,249.1 183.0,249.5 183.7,249.5 184.4,249.3 185.0,243.9 185.7,237.3 186.4,233.1 187.1,231.6 187.7,230.5 188.4,227.1 189.1,222.6 189.7,222.0 190.4,221.4 191.1,221.2 191.8,223.9 192.4,236.4 193.1,243.9 193.8,247.6 194.4,247.5 195.1,247.5 195.8,247.0 196.5,247.9 197.1,249.9 197.8,250.4 198.5,246.2 199.1,241.3 199.8,238.5 200.5,237.8 201.2,238.0 201.8,241.0 202.5,242.3 203.2,244.2 203.8,244.6 204.5,244.6 205.2,243.7 205.9,241.7 206.5,241.6 207.2,241.6 207.9,241.6 208.5,243.3 209.2,248.7 209.9,251.8 210.6,252.3 211.2,252.6 211.9,254.1 212.6,254.2 213.2,250.6 213.9,245.3 214.6,243.8 215.3,243.8 215.9,247.0 216.6,247.5 217.3,247.6 217.9,247.6 218.6,247.5 219.3,247.6 220.0,248.8 220.6,248.8 221.3,248.6 222.0,247.7 222.6,243.8 223.3,242.0 224.0,241.2 224.7,240.9 225.3,240.8 226.0,240.6 226.7,239.6 227.3,239.4 228.0,239.4 228.7,239.4 229.4,239.4 230.0,239.5 230.7,239.5 231.4,239.4 232.0,238.6 232.7,238.1 233.4,238.1 234.1,240.7 234.7,243.6 235.4,243.8 236.1,243.8 236.7,243.9 237.4,243.7 238.1,240.1 238.8,236.8 239.4,236.9 240.1,237.3 240.8,237.2 241.4,237.1 242.1,234.9 242.8,232.6 243.5,230.9 244.1,230.0 244.8,228.1 245.5,227.5 246.1,227.0 246.8,226.1 247.5,225.8 248.2,225.8 248.8,225.8 249.5,225.6 250.2,225.3 250.8,225.3 251.5,225.3 252.2,225.1 252.9,225.0 253.5,224.7 254.2,224.7 254.9,224.3 255.5,224.2 256.2,224.2 256.9,224.3 257.6,224.3 258.2,224.3 258.9,224.3 259.6,224.3 260.2,224.3 260.9,224.3 261.6,224.3 262.3,224.3 262.9,224.3 263.6,224.3 264.3,224.3 264.9,224.3 265.6,224.3 266.3,224.3 267.0,224.5 267.6,227.3 268.3,233.6 269.0,238.4 269.6,239.4 270.3,244.1 271.0,250.4 271.7,252.7 272.3,252.7 273.0,249.8 273.7,239.1 274.3,229.8 275.0,226.2 275.7,225.1 276.4,224.8 277.0,225.1 277.7,225.3 278.4,225.1 279.0,225.3 279.7,234.4 280.4,247.0 281.1,250.5 281.7,250.4 282.4,250.8 283.1,253.4 283.7,253.5 284.4,253.2 285.1,252.6 285.8,253.0 286.4,255.7 287.1,255.8 287.8,255.8 288.4,255.9 289.1,256.6 289.8,257.6 290.5,258.8 291.1,258.8 291.8,258.5 292.5,254.3 293.1,253.6 293.8,251.8 294.5,250.4 295.2,249.6 295.8,249.2 296.5,250.2 297.2,248.6 297.8,243.4 298.5,242.8 299.2,244.5 299.9,244.9 300.5,245.7 301.2,247.0 301.9,249.7 302.5,255.4 303.2,258.4 303.9,258.4 304.6,250.3 305.2,246.8 305.9,246.8 306.6,248.5 307.2,245.8 307.9,240.0 308.6,240.1 309.3,241.2 309.9,245.3 310.6,250.8 311.3,253.6 311.9,263.8 312.6,273.0 313.3,273.6 314.0,267.5 314.6,261.9 315.3,259.9 316.0,258.3 316.6,256.4 317.3,255.2 318.0,253.8 318.7,251.9 319.3,252.0 320.0,252.0 320.7,246.8 321.3,244.4 322.0,244.9 322.7,246.5 323.4,246.5 324.0,253.1 324.7,261.3 325.4,267.6 326.0,277.0 326.7,283.8 327.4,289.5 328.1,293.0 328.7,292.7 329.4,286.9 330.1,283.0 330.7,283.4 331.4,288.4 332.1,291.4 332.8,292.7 333.4,292.7 334.1,292.4 334.8,291.1 335.4,290.1 336.1,289.8 336.8,289.5 337.5,286.6 338.1,285.2 338.8,285.0 339.5,284.5 340.1,284.0 340.8,284.0 341.5,283.9 342.2,279.5 342.8,278.0 343.5,278.2 344.2,278.6 344.8,278.6 345.5,278.6 346.2,277.8 346.9,273.0 347.5,272.5 348.2,273.0 348.9,274.7 349.5,274.8 350.2,275.0 350.9,277.9 351.6,278.9 352.2,268.1 352.9,252.5 353.6,240.7 354.2,227.9 354.9,217.5 355.6,211.6 356.3,207.4 356.9,204.1 357.6,201.1 358.3,200.0 358.9,200.0 359.6,200.0 360.3,201.8 361.0,204.2 361.6,205.4 362.3,215.1 363.0,232.4 363.6,239.2 364.3,237.3 365.0,233.3 365.7,231.3 366.3,228.8 367.0,226.6 367.7,225.9 368.3,225.9 369.0,225.7 369.7,225.4 370.4,225.1 371.0,225.1 371.7,224.7 372.4,224.8 373.0,224.4 373.7,224.4 374.4,224.4 375.1,224.4 375.7,224.4 376.4,224.4 377.1,224.4 377.7,224.4 378.4,224.4 379.1,224.4 379.8,224.4 380.4,224.4 381.1,224.4 381.8,224.4 382.5,224.4 383.1,224.4 383.8,224.4 384.5,224.1 385.1,223.8 385.8,223.7 386.5,223.7 387.2,223.6 387.8,223.5 388.5,223.5 389.2,223.5 389.8,223.5 390.5,223.5 391.2,223.5 391.9,223.5 392.5,225.3 393.2,232.7 393.9,236.1 394.5,239.7 395.2,244.1 395.9,247.5 396.6,251.1 397.2,254.7 397.9,257.0 398.6,257.0 399.2,256.7 399.9,254.9 400.6,253.5 401.3,250.0 401.9,246.0 402.6,243.7 403.3,244.1 403.9,252.2 404.6,260.3 405.3,262.1 406.0,262.2 406.6,262.4 407.3,263.5 408.0,263.8 408.6,260.8 409.3,255.1 410.0,253.0 410.7,251.1 411.3,251.1 412.0,251.1 412.7,251.0 413.3,251.0 414.0,251.1 414.7,251.1 415.4,247.4 416.0,240.3 416.7,236.5 417.4,235.2 418.0,235.0 418.7,235.1 419.4,235.1 420.1,235.1 420.7,235.5 421.4,236.2 422.1,236.5 422.7,239.5 423.4,239.5 424.1,239.6 424.8,239.7 425.4,239.7 426.1,238.1 426.8,236.6 427.4,236.7 428.1,237.7 428.8,239.2 429.5,239.2 430.1,238.8 430.8,238.8 431.5,238.8 432.1,238.5 432.8,236.8 433.5,233.9 434.2,234.0 434.8,234.3 435.5,234.8 436.2,234.7 436.8,231.4 437.5,231.1 438.2,232.0 438.9,232.9 439.5,232.8 440.2,231.8 440.9,231.2 441.5,232.1 442.2,240.7 442.9,243.7 443.6,243.9 444.2,243.9 444.9,245.1 445.6,253.3 446.2,264.3 446.9,274.2 447.6,279.7 448.3,281.5 448.9,285.2 449.6,291.6 450.3,297.4 450.9,300.2 451.6,309.2 452.3,309.9 453.0,306.5 453.6,303.5 454.3,302.2 455.0,302.0 455.6,300.1 456.3,296.5 457.0,287.1 457.7,286.6 458.3,286.6 459.0,286.7 459.7,287.2 460.3,287.2 461.0,287.2 461.7,287.2 462.4,287.2 463.0,287.2 463.7,287.3 464.4,287.3 465.0,287.5 465.7,287.3 466.4,286.3 467.1,282.9 467.7,279.8 468.4,279.2 469.1,277.3 469.7,267.6 470.4,259.6 471.1,250.7 471.8,245.2 472.4,239.3 473.1,234.7 473.8,230.3 474.4,225.8 475.1,223.7 475.8,222.1 476.5,220.3 477.1,219.1 477.8,218.3 478.5,218.5 479.1,221.6 479.8,231.4 480.5,249.2 481.2,269.8 481.8,289.9 482.5,302.8 483.2,303.6 483.8,303.6 484.5,303.6 485.2,303.6 485.9,304.2 486.5,304.2 487.2,304.2 487.9,304.1 488.5,303.3 489.2,301.3 489.9,295.2 490.6,291.6 491.2,291.9 491.9,292.3 492.6,291.7 493.2,279.7 493.9,260.2 494.6,240.4 495.3,236.2 495.9,231.9 496.6,225.9 497.3,223.5 497.9,223.3 498.6,222.2 499.3,222.1 500.0,221.5 500.6,221.1 501.3,220.9 502.0,220.5 502.6,220.2 503.3,219.9 504.0,219.9 504.7,219.6 505.3,219.6 506.0,219.6 506.7,219.6 507.3,219.6 508.0,219.6 508.7,219.6 509.4,219.6 510.0,219.6 510.7,219.6 511.4,219.6 512.0,219.6 512.7,219.6 513.4,219.6 514.1,219.6 514.7,219.6 515.4,219.6 516.1,219.6 516.7,219.6 517.4,218.7 518.1,218.4 518.8,218.3 519.4,218.9 520.1,219.5 520.8,219.6 521.4,221.5 522.1,229.5 522.8,237.6 523.5,244.5 524.1,250.1 524.8,256.9 525.5,258.7 526.1,261.9 526.8,266.4 527.5,268.2 528.2,265.4 528.8,262.0 529.5,262.0 530.2,260.4 530.8,255.1 531.5,250.8 532.2,250.8 532.9,251.0 533.5,255.6 534.2,256.7 534.9,256.6 535.5,256.1 536.2,254.8 536.9,252.7 537.6,252.3 538.2,252.4 538.9,256.7 539.6,257.3 540.2,254.5 540.9,251.8 541.6,251.5 542.3,251.0 542.9,250.3 543.6,250.1 544.3,252.4 544.9,256.2 545.6,261.5 546.3,262.9 547.0,263.2 547.6,263.4 548.3,264.8 549.0,267.9 549.6,265.4 550.3,252.9 551.0,249.4 551.7,247.3 552.3,244.6 553.0,247.1 553.7,257.0 554.3,261.9 555.0,265.1 555.7,266.2 556.4,266.2 557.0,266.2 557.7,266.2 558.4,266.2 559.0,265.5 559.7,264.8 560.4,264.5 561.1,264.3 561.7,264.3 562.4,264.5 563.1,264.5 563.7,264.5 564.4,264.2 565.1,263.2 565.8,262.9 566.4,262.9 567.1,262.8 567.8,262.2 568.4,259.5 569.1,256.4 569.8,256.0 570.5,250.0 571.1,245.0 571.8,245.0 572.5,244.8 573.1,243.4 573.8,241.8 574.5,236.3 575.2,230.1 575.8,226.8 576.5,230.1 577.2,233.9 577.8,234.0 578.5,233.9 579.2,229.2 579.9,227.3 580.5,229.1 581.2,231.4 581.9,231.4 582.5,230.4 583.2,226.5 583.9,224.0 584.6,223.3 585.2,221.9 585.9,221.5 586.6,225.6 587.2,229.2 587.9,229.4 588.6,232.1 589.3,241.9 589.9,246.9 590.6,244.4 591.3,234.0 591.9,228.1 592.6,226.8 593.3,225.7 594.0,224.5 594.6,224.1 595.3,223.7 596.0,223.5 596.6,223.2 597.3,223.2 598.0,223.2 598.7,223.3 599.3,223.2 600.0,223.3 600.7,223.3 601.3,223.3 602.0,223.2 602.7,223.3 603.4,223.3 604.0,223.2 604.7,223.2 605.4,223.2 606.0,223.3 606.7,223.2 607.4,223.3 608.1,223.3 608.7,223.2 609.4,223.2 610.1,223.2 610.8,223.2 611.4,223.2 612.1,223.2 612.8,223.2 613.4,223.2 614.1,223.2 614.8,223.2 615.5,223.2 616.1,224.1 616.8,233.0 617.5,244.3 618.1,250.6 618.8,255.4 619.5,258.4 620.2,258.4 620.8,258.4 621.5,257.9 622.2,257.6 622.8,257.6 623.5,257.6 624.2,257.6 624.9,252.9 625.5,251.4 626.2,251.3 626.9,251.1 627.5,251.1 628.2,251.1 628.9,251.1 629.6,250.5 630.2,250.3 630.9,250.3 631.6,252.7 632.2,253.7 632.9,253.7 633.6,253.7 634.3,253.7 634.9,252.7 635.6,253.0 636.3,254.4 636.9,254.4 637.6,254.7 638.3,256.8 639.0,256.8 639.6,256.4 640.3,252.5 641.0,252.4 641.6,256.7 642.3,257.2 643.0,256.9 643.7,251.7 644.3,250.0 645.0,250.0 645.7,250.0 646.3,250.1 647.0,250.4 647.7,251.8 648.4,251.8 649.0,251.9 649.7,251.8 650.4,251.9 651.0,252.4 651.7,250.8 652.4,249.6 653.1,245.4 653.7,242.2 654.4,237.5 655.1,240.7 655.7,257.6 656.4,264.4 657.1,272.2 657.8,277.6 658.4,284.5 659.1,286.0 659.8,288.5 660.4,289.7 661.1,289.7 661.8,289.1 662.5,288.9 663.1,288.7 663.8,286.3 664.5,283.6 665.1,282.9 665.8,281.9 666.5,281.6 667.2,280.6 667.8,278.6 668.5,278.1 669.2,277.7 669.8,277.8 670.5,275.1 671.2,273.5 671.9,273.4 672.5,273.4 673.2,273.5 673.9,272.1 674.5,270.3 675.2,268.2 675.9,256.6 676.6,252.6 677.2,244.3 677.9,234.1 678.6,230.2 679.2,229.9 679.9,232.4 680.6,231.5 681.3,226.6 681.9,224.7 682.6,224.8 683.3,227.1 683.9,227.3 684.6,227.4 685.3,228.7 686.0,232.4 686.6,234.2 687.3,233.6 688.0,232.3 688.6,229.0 689.3,227.9 690.0,230.4 690.7,234.5 691.3,237.0 692.0,236.1 692.7,233.2 693.3,230.5 694.0,226.6 694.7,223.7 695.4,221.3 696.0,221.1 696.7,221.1 697.4,221.1 698.0,220.8 698.7,220.8 699.4,220.8 700.1,220.8 700.7,220.8 701.4,220.8 702.1,220.8 702.7,220.8 703.4,220.8 704.1,220.8 704.8,220.8 705.4,220.8 706.1,220.8 706.8,220.8 707.4,220.8 708.1,220.8 708.8,220.8 709.5,220.8 710.1,220.8 710.8,220.8 711.5,220.8 712.1,220.8 712.8,220.4 713.5,220.4 714.2,220.4 714.8,220.4 715.5,220.4 716.2,220.4 716.8,220.8 717.5,221.1 718.2,225.1 718.9,227.8 719.5,231.1 720.2,234.9 720.9,236.3 721.5,236.3 722.2,236.3 722.9,235.8 723.6,235.4 724.2,235.5 724.9,235.3 725.6,235.0 726.2,234.7 726.9,231.8 727.6,231.6 728.3,231.6 728.9,231.6 729.6,231.6 730.3,231.7 730.9,231.7 731.6,231.0 732.3,230.2 733.0,230.3 733.6,230.4 734.3,230.6 735.0,230.7 735.6,231.0 736.3,231.1 737.0,231.0 737.7,230.7 738.3,230.7 739.0,230.6 739.7,230.6 740.3,230.6 741.0,230.6 741.7,230.6 742.4,230.6 743.0,230.6 743.7,230.6 744.4,230.6 745.0,230.6 745.7,230.6 746.4,230.6 747.1,230.7 747.7,230.8 748.4,230.8 749.1,230.8 749.7,230.8 750.4,230.8 751.1,233.0 751.8,234.7 752.4,234.7 753.1,232.9 753.8,232.9 754.4,234.8 755.1,237.8 755.8,242.2 756.5,253.5 757.1,264.1 757.8,270.7 758.5,271.2 759.1,270.3 759.8,261.9 760.5,250.7 761.2,241.9 761.8,240.2 762.5,248.0 763.2,256.3 763.8,259.3 764.5,255.4 765.2,252.7 765.9,246.0 766.5,239.5 767.2,238.9 767.9,239.0 768.5,240.3 769.2,242.4 769.9,243.4 770.6,242.8 771.2,241.6 771.9,241.6 772.6,241.5 773.2,241.5 773.9,241.9 774.6,244.0 775.3,247.8 775.9,250.2 776.6,250.2 777.3,255.5 777.9,262.0 778.6,260.9 779.3,249.8 780.0,246.1 780.6,241.8 781.3,240.8 782.0,240.8 782.6,240.8 783.3,244.9 784.0,244.6 784.7,237.9 785.3,235.6 786.0,232.4 786.7,231.4 787.3,231.4 788.0,231.4 788.7,231.4 789.4,231.4 790.0,231.4 790.7,232.0 791.4,232.3 792.0,232.8 792.7,233.2 793.4,238.1 794.1,238.2 794.7,236.8 795.4,236.1 796.1,235.8 796.7,232.3 797.4,226.7 798.1,224.3 798.8,220.2 799.4,219.2 800.1,217.4 800.8,216.0 801.4,215.0 802.1,212.9 802.8,210.5 803.5,209.5 804.1,209.2 804.8,208.6 805.5,208.6 806.1,208.3 806.8,208.3 807.5,208.9 808.2,217.2 808.8,226.1 809.5,235.5 810.2,240.3 810.8,240.0 811.5,235.9 812.2,239.4 812.9,248.1 813.5,255.9 814.2,248.0 814.9,233.4 815.5,228.7 816.2,224.2 816.9,222.1 817.6,222.1 818.2,220.8 818.9,219.8 819.6,219.5 820.2,218.3 820.9,219.0 821.6,219.4 822.3,219.6 822.9,219.6 823.6,219.6 824.3,219.5 824.9,219.5 825.6,219.5 826.3,219.5 827.0,219.5 827.6,219.6 828.3,219.6 829.0,219.7 829.6,219.9 830.3,220.0 831.0,220.0 831.7,220.0 832.3,220.1 833.0,220.4 833.7,221.0 834.3,221.9 835.0,225.5 835.7,231.4 836.4,241.7 837.0,249.5 837.7,252.9 838.4,253.5 839.1,251.2 839.7,248.5 840.4,248.5 841.1,247.2 841.7,243.7 842.4,241.4 843.1,238.7 843.8,236.6 844.4,236.1 845.1,236.0 845.8,235.7 846.4,235.6 847.1,235.6 847.8,235.6 848.5,235.6 849.1,235.6 849.8,235.6 850.5,231.4 851.1,224.4 851.8,218.6 852.5,218.4 853.2,218.2 853.8,218.3 854.5,218.3 855.2,218.3 855.8,218.3 856.5,218.3 857.2,218.3 857.9,218.3 858.5,218.3 859.2,218.3 859.9,218.3"/><line x1="47.3" y1="200" x2="47.3" y2="310" stroke="#f0a000" stroke-dasharray="4 3"/><line x1="47.3" y1="200" x2="47.3" y2="310" stroke="#f0a000" stroke-dasharray="4 3"/><line x1="47.3" y1="200" x2="47.3" y2="310" stroke="#f0a000" stroke-dasharray="4 3"/><line x1="47.3" y1="200" x2="47.3" y2="310" stroke="#f0a000" stroke-dasharray="4 3"/><line x1="47.3" y1="200" x2="47.3" y2="310" stroke="#f0a000" stroke-dasharray="4 3"/><line x1="47.3" y1="200" x2="47.3" y2="310" stroke="#f0a000" stroke-dasharray="4 3"/><line x1="47.3" y1="200" x2="47.3" y2="310" stroke="#f0a000" stroke-dasharray="4 3"/><line x1="90.4" y1="200" x2="90.4" y2="310" stroke="#f0a000" stroke-dasharray="4 3"/><line x1="103.1" y1="200" x2="103.1" y2="310" stroke="#f0a000" stroke-dasharray="4 3"/><line x1="248.7" y1="200" x2="248.7" y2="310" stroke="#f0a000" stroke-dasharray="4 3"/><line x1="265.3" y1="200" x2="265.3" y2="310" stroke="#f0a000" stroke-dasharray="4 3"/><line x1="369.9" y1="200" x2="369.9" y2="310" stroke="#f0a000" stroke-dasharray="4 3"/><line x1="390.5" y1="200" x2="390.5" y2="310" stroke="#f0a000" stroke-dasharray="4 3"/><line x1="500.5" y1="200" x2="500.5" y2="310" stroke="#f0a000" stroke-dasharray="4 3"/><line x1="519.2" y1="200" x2="519.2" y2="310" stroke="#f0a000" stroke-dasharray="4 3"/><line x1="600.3" y1="200" x2="600.3" y2="310" stroke="#f0a000" stroke-dasharray="4 3"/><line x1="614.3" y1="200" x2="614.3" y2="310" stroke="#f0a000" stroke-dasharray="4 3"/><line x1="701.4" y1="200" x2="701.4" y2="310" stroke="#f0a000" stroke-dasharray="4 3"/><line x1="715.3" y1="200" x2="715.3" y2="310" stroke="#f0a000" stroke-dasharray="4 3"/><line x1="820.9" y1="200" x2="820.9" y2="310" stroke="#f0a000" stroke-dasharray="4 3"/><line x1="833.3" y1="200" x2="833.3" y2="310" stroke="#f0a000" stroke-dasharray="4 3"/><text x="40" y="352" font-size="13" fill="#333">j3 — 출력 P(빨강, 모터 실제각), [-46°, 65°], 305s</text><rect x="40" y="360" width="820" height="110" fill="none" stroke="#ddd"/><polyline fill="none" stroke="#1f77b4" stroke-width="1.2" points=""/><polyline fill="none" stroke="#d62728" stroke-width="1.2" points="40.0,421.3 40.7,421.3 41.3,421.3 42.0,421.3 42.7,421.3 43.4,421.3 44.0,421.3 44.7,421.3 45.4,421.3 46.0,421.3 46.7,421.3 47.4,421.3 48.1,421.3 48.7,421.3 49.4,421.3 50.1,421.3 50.7,421.6 51.4,423.0 52.1,423.5 52.8,423.7 53.4,423.7 54.1,423.7 54.8,423.7 55.4,423.7 56.1,423.7 56.8,423.7 57.5,423.7 58.1,423.7 58.8,423.2 59.5,422.9 60.1,422.7 60.8,422.6 61.5,422.4 62.2,421.3 62.8,421.3 63.5,421.3 64.2,421.3 64.8,422.4 65.5,422.6 66.2,422.6 66.9,422.0 67.5,421.3 68.2,422.4 68.9,422.6 69.5,423.2 70.2,423.8 70.9,424.7 71.6,425.3 72.2,425.5 72.9,425.5 73.6,425.5 74.2,425.5 74.9,425.3 75.6,425.3 76.3,425.3 76.9,425.0 77.6,425.0 78.3,425.0 78.9,424.9 79.6,424.7 80.3,425.0 81.0,425.1 81.6,425.6 82.3,425.8 83.0,426.0 83.6,426.0 84.3,426.0 85.0,426.0 85.7,426.0 86.3,425.9 87.0,425.7 87.7,425.6 88.3,426.1 89.0,426.4 89.7,426.6 90.4,426.6 91.0,426.8 91.7,426.8 92.4,426.7 93.0,426.6 93.7,426.6 94.4,426.6 95.1,426.6 95.7,426.6 96.4,426.6 97.1,426.6 97.7,426.6 98.4,426.6 99.1,426.6 99.8,426.6 100.4,426.6 101.1,426.8 101.8,427.0 102.4,427.1 103.1,427.1 103.8,427.1 104.5,427.3 105.1,425.1 105.8,415.5 106.5,412.6 107.1,409.4 107.8,405.5 108.5,402.8 109.2,404.6 109.8,417.4 110.5,428.1 111.2,438.0 111.8,448.6 112.5,452.5 113.2,436.5 113.9,426.3 114.5,421.1 115.2,422.4 115.9,433.1 116.5,440.4 117.2,444.7 117.9,444.7 118.6,435.2 119.2,420.6 119.9,406.4 120.6,397.6 121.2,396.7 121.9,404.0 122.6,414.1 123.3,420.3 123.9,421.1 124.6,419.1 125.3,417.6 125.9,420.5 126.6,423.0 127.3,424.0 128.0,423.5 128.6,423.4 129.3,415.4 130.0,409.5 130.6,406.9 131.3,406.3 132.0,410.5 132.7,421.7 133.3,430.9 134.0,439.9 134.7,446.0 135.3,445.2 136.0,436.9 136.7,426.0 137.4,413.8 138.0,408.9 138.7,407.4 139.4,408.6 140.0,408.7 140.7,411.0 141.4,416.5 142.1,419.9 142.7,419.9 143.4,416.7 144.1,412.7 144.7,409.8 145.4,409.3 146.1,409.0 146.8,408.5 147.4,408.3 148.1,411.4 148.8,417.2 149.4,419.9 150.1,421.9 150.8,423.5 151.5,423.5 152.1,422.8 152.8,421.9 153.5,418.8 154.2,416.3 154.8,414.2 155.5,412.0 156.2,411.4 156.8,414.8 157.5,424.2 158.2,429.9 158.9,431.8 159.5,432.3 160.2,433.7 160.9,434.5 161.5,434.9 162.2,433.7 162.9,430.5 163.6,434.6 164.2,436.7 164.9,433.0 165.6,424.3 166.2,416.9 166.9,411.4 167.6,406.2 168.3,401.9 168.9,400.7 169.6,399.8 170.3,399.7 170.9,400.1 171.6,400.1 172.3,401.2 173.0,402.8 173.6,403.5 174.3,404.3 175.0,406.7 175.6,411.2 176.3,410.0 177.0,408.8 177.7,407.8 178.3,407.2 179.0,405.5 179.7,405.5 180.3,407.2 181.0,408.5 181.7,408.7 182.4,409.3 183.0,416.6 183.7,425.1 184.4,433.6 185.0,443.9 185.7,451.7 186.4,457.4 187.1,460.1 187.7,460.5 188.4,462.3 189.1,463.5 189.7,463.4 190.4,465.6 191.1,469.7 191.8,468.2 192.4,461.4 193.1,446.6 193.8,428.5 194.4,414.4 195.1,407.4 195.8,405.7 196.5,410.2 197.1,415.0 197.8,416.3 198.5,411.6 199.1,405.5 199.8,400.7 200.5,390.2 201.2,386.6 201.8,391.3 202.5,397.8 203.2,404.0 203.8,408.0 204.5,410.8 205.2,412.7 205.9,406.3 206.5,393.4 207.2,383.6 207.9,381.5 208.5,382.9 209.2,386.5 209.9,392.7 210.6,400.2 211.2,405.7 211.9,409.9 212.6,412.5 213.2,412.9 213.9,411.0 214.6,400.1 215.3,385.1 215.9,380.5 216.6,381.3 217.3,383.6 217.9,384.8 218.6,385.1 219.3,386.1 220.0,388.4 220.6,392.6 221.3,396.8 222.0,403.6 222.6,411.4 223.3,414.6 224.0,413.7 224.7,408.1 225.3,399.5 226.0,390.5 226.7,388.1 227.3,388.1 228.0,389.9 228.7,392.8 229.4,394.9 230.0,397.1 230.7,400.3 231.4,403.1 232.0,404.9 232.7,405.7 233.4,405.5 234.1,404.0 234.7,401.6 235.4,403.0 236.1,409.1 236.7,415.1 237.4,420.4 238.1,423.3 238.8,424.9 239.4,428.5 240.1,431.9 240.8,431.1 241.4,428.8 242.1,426.2 242.8,425.4 243.5,425.2 244.1,425.0 244.8,424.7 245.5,424.1 246.1,423.3 246.8,421.7 247.5,422.6 248.2,422.8 248.8,422.8 249.5,422.8 250.2,422.8 250.8,423.0 251.5,423.2 252.2,423.3 252.9,423.6 253.5,424.0 254.2,424.0 254.9,423.9 255.5,423.9 256.2,423.9 256.9,423.9 257.6,423.9 258.2,423.9 258.9,423.9 259.6,423.9 260.2,423.9 260.9,423.9 261.6,423.9 262.3,423.6 262.9,423.6 263.6,423.6 264.3,423.6 264.9,423.9 265.6,423.8 266.3,423.8 267.0,423.6 267.6,419.5 268.3,409.7 269.0,400.7 269.6,397.5 270.3,398.4 271.0,405.6 271.7,418.2 272.3,430.5 273.0,438.1 273.7,439.5 274.3,439.8 275.0,442.1 275.7,444.1 276.4,445.0 277.0,445.9 277.7,446.2 278.4,446.0 279.0,443.9 279.7,432.4 280.4,420.9 281.1,408.6 281.7,398.1 282.4,398.8 283.1,409.0 283.7,417.4 284.4,421.4 285.1,417.5 285.8,411.5 286.4,411.3 287.1,417.2 287.8,427.4 288.4,431.7 289.1,434.3 289.8,435.5 290.5,436.3 291.1,436.5 291.8,434.1 292.5,423.3 293.1,413.0 293.8,410.5 294.5,411.5 295.2,415.4 295.8,421.2 296.5,426.8 297.2,424.4 297.8,409.2 298.5,398.9 299.2,395.7 299.9,395.7 300.5,397.3 301.2,400.8 301.9,407.8 302.5,416.7 303.2,425.7 303.9,428.9 304.6,423.4 305.2,417.0 305.9,417.4 306.6,424.3 307.2,420.4 307.9,406.8 308.6,398.7 309.3,395.2 309.9,395.1 310.6,402.1 311.3,414.2 311.9,431.6 312.6,443.7 313.3,441.3 314.0,425.4 314.6,416.9 315.3,409.6 316.0,404.4 316.6,401.2 317.3,400.7 318.0,401.4 318.7,406.7 319.3,415.8 320.0,419.5 320.7,419.5 321.3,420.6 322.0,423.8 322.7,419.6 323.4,403.1 324.0,398.3 324.7,397.0 325.4,397.3 326.0,402.1 326.7,408.2 327.4,414.6 328.1,418.8 328.7,409.6 329.4,398.4 330.1,392.5 330.7,393.1 331.4,398.1 332.1,405.4 332.8,414.8 333.4,421.3 334.1,423.7 334.8,425.8 335.4,422.5 336.1,414.5 336.8,406.4 337.5,398.6 338.1,397.9 338.8,406.7 339.5,417.5 340.1,421.3 340.8,414.5 341.5,394.8 342.2,378.3 342.8,375.8 343.5,388.7 344.2,404.4 344.8,409.3 345.5,404.3 346.2,389.1 346.9,375.9 347.5,376.2 348.2,391.8 348.9,407.8 349.5,408.8 350.2,406.3 350.9,409.1 351.6,425.2 352.2,436.0 352.9,440.6 353.6,443.1 354.2,444.7 354.9,445.6 355.6,446.6 356.3,447.2 356.9,448.2 357.6,449.5 358.3,449.8 358.9,450.1 359.6,450.3 360.3,449.8 361.0,446.1 361.6,444.5 362.3,445.7 363.0,446.1 363.6,443.0 364.3,435.7 365.0,433.2 365.7,433.3 366.3,433.2 367.0,432.9 367.7,431.8 368.3,430.4 369.0,429.8 369.7,429.5 370.4,429.3 371.0,429.1 371.7,428.9 372.4,428.9 373.0,428.6 373.7,428.5 374.4,428.4 375.1,428.4 375.7,428.4 376.4,428.1 377.1,428.1 377.7,428.1 378.4,428.1 379.1,428.1 379.8,428.1 380.4,428.1 381.1,428.1 381.8,428.1 382.5,428.4 383.1,428.4 383.8,428.4 384.5,428.4 385.1,428.8 385.8,428.8 386.5,428.6 387.2,428.4 387.8,428.6 388.5,428.6 389.2,428.4 389.8,428.4 390.5,428.1 391.2,428.1 391.9,428.0 392.5,425.6 393.2,417.1 393.9,407.4 394.5,399.4 395.2,399.2 395.9,405.8 396.6,416.4 397.2,424.1 397.9,426.3 398.6,414.7 399.2,402.9 399.9,394.1 400.6,389.6 401.3,387.9 401.9,389.7 402.6,395.5 403.3,399.9 403.9,405.7 404.6,409.8 405.3,416.4 406.0,426.8 406.6,436.4 407.3,442.2 408.0,440.1 408.6,430.5 409.3,418.8 410.0,410.4 410.7,401.9 411.3,395.0 412.0,389.6 412.7,384.2 413.3,381.0 414.0,380.7 414.7,392.0 415.4,404.7 416.0,415.3 416.7,421.3 417.4,421.4 418.0,418.9 418.7,416.0 419.4,417.0 420.1,422.1 420.7,424.6 421.4,425.9 422.1,427.8 422.7,424.8 423.4,418.5 424.1,419.7 424.8,427.8 425.4,431.8 426.1,432.7 426.8,430.9 427.4,427.2 428.1,426.0 428.8,426.4 429.5,427.4 430.1,427.4 430.8,428.1 431.5,428.6 432.1,428.4 432.8,426.0 433.5,422.9 434.2,423.1 434.8,424.5 435.5,426.0 436.2,425.2 436.8,421.1 437.5,419.0 438.2,420.7 438.9,424.0 439.5,423.8 440.2,420.2 440.9,413.5 441.5,409.9 442.2,417.5 442.9,427.5 443.6,430.7 444.2,430.6 444.9,421.6 445.6,409.6 446.2,405.5 446.9,405.3 447.6,404.4 448.3,399.7 448.9,394.2 449.6,394.4 450.3,400.1 450.9,407.2 451.6,420.0 452.3,420.5 453.0,413.5 453.6,412.4 454.3,413.2 455.0,414.0 455.6,411.0 456.3,404.0 457.0,383.8 457.7,382.2 458.3,387.8 459.0,393.7 459.7,394.9 460.3,394.4 461.0,395.7 461.7,400.9 462.4,405.7 463.0,414.0 463.7,421.1 464.4,421.5 465.0,421.6 465.7,424.9 466.4,427.5 467.1,425.2 467.7,417.0 468.4,409.6 469.1,403.1 469.7,399.8 470.4,404.3 471.1,413.3 471.8,422.7 472.4,427.5 473.1,432.6 473.8,439.0 474.4,442.8 475.1,444.7 475.8,445.7 476.5,446.2 477.1,446.9 477.8,447.0 478.5,446.9 479.1,446.0 479.8,436.8 480.5,420.8 481.2,410.5 481.8,410.6 482.5,419.6 483.2,420.2 483.8,420.5 484.5,422.8 485.2,430.3 485.9,432.9 486.5,430.8 487.2,428.1 487.9,429.4 488.5,428.5 489.2,410.1 489.9,383.1 490.6,375.5 491.2,394.1 491.9,414.3 492.6,423.7 493.2,438.5 493.9,440.3 494.6,439.3 495.3,439.2 495.9,439.9 496.6,441.0 497.3,441.2 497.9,440.8 498.6,439.8 499.3,438.9 500.0,438.6 500.6,438.6 501.3,438.5 502.0,438.4 502.6,438.2 503.3,438.1 504.0,438.2 504.7,438.1 505.3,438.1 506.0,438.2 506.7,438.1 507.3,437.7 508.0,437.5 508.7,437.0 509.4,436.7 510.0,436.7 510.7,436.7 511.4,436.7 512.0,436.7 512.7,437.0 513.4,436.9 514.1,437.0 514.7,437.0 515.4,437.0 516.1,436.9 516.7,437.0 517.4,437.0 518.1,437.1 518.8,437.2 519.4,437.2 520.1,437.5 520.8,437.5 521.4,436.9 522.1,429.8 522.8,412.9 523.5,398.0 524.1,396.0 524.8,403.5 525.5,410.8 526.1,419.0 526.8,430.8 527.5,437.5 528.2,435.2 528.8,430.1 529.5,429.6 530.2,428.5 530.8,423.0 531.5,417.7 532.2,416.7 532.9,417.6 533.5,424.1 534.2,425.6 534.9,422.4 535.5,419.8 536.2,414.2 536.9,408.8 537.6,407.5 538.2,408.3 538.9,418.4 539.6,425.3 540.2,427.4 540.9,423.6 541.6,421.5 542.3,422.5 542.9,425.7 543.6,427.3 544.3,410.0 544.9,395.1 545.6,394.3 546.3,400.9 547.0,408.4 547.6,414.8 548.3,421.6 549.0,421.6 549.6,415.7 550.3,402.8 551.0,398.2 551.7,397.8 552.3,402.9 553.0,414.0 553.7,430.2 554.3,442.0 555.0,446.0 555.7,446.3 556.4,446.2 557.0,445.3 557.7,445.0 558.4,444.8 559.0,444.2 559.7,443.0 560.4,442.3 561.1,442.3 561.7,443.1 562.4,446.7 563.1,446.9 563.7,446.2 564.4,445.4 565.1,444.4 565.8,443.4 566.4,443.2 567.1,443.2 567.8,442.9 568.4,438.5 569.1,434.3 569.8,433.9 570.5,435.0 571.1,437.4 571.8,446.0 572.5,449.5 573.1,447.1 573.8,443.7 574.5,439.6 575.2,435.9 575.8,433.8 576.5,434.7 577.2,437.4 577.8,442.0 578.5,455.5 579.2,463.5 579.9,465.5 580.5,460.1 581.2,446.7 581.9,440.5 582.5,437.4 583.2,432.3 583.9,428.0 584.6,426.7 585.2,425.5 585.9,425.4 586.6,427.2 587.2,432.7 587.9,434.8 588.6,433.5 589.3,421.0 589.9,418.2 590.6,422.6 591.3,429.0 591.9,433.1 592.6,436.0 593.3,436.2 594.0,434.9 594.6,434.0 595.3,433.5 596.0,433.5 596.6,433.5 597.3,432.9 598.0,432.2 598.7,431.6 599.3,431.6 600.0,432.0 600.7,432.4 601.3,432.6 602.0,432.6 602.7,432.3 603.4,432.3 604.0,432.3 604.7,432.3 605.4,432.3 606.0,432.3 606.7,432.3 607.4,432.0 608.1,432.0 608.7,432.0 609.4,432.0 610.1,432.0 610.8,432.1 611.4,432.3 612.1,432.3 612.8,432.6 613.4,432.6 614.1,432.6 614.8,432.6 615.5,432.6 616.1,432.2 616.8,425.8 617.5,412.2 618.1,402.1 618.8,398.1 619.5,398.2 620.2,399.7 620.8,399.8 621.5,399.1 622.2,399.1 622.8,400.7 623.5,401.0 624.2,397.2 624.9,392.3 625.5,392.1 626.2,393.7 626.9,394.4 627.5,394.1 628.2,394.7 628.9,395.6 629.6,395.4 630.2,395.2 630.9,395.1 631.6,397.6 632.2,400.2 632.9,401.1 633.6,401.2 634.3,401.2 634.9,398.1 635.6,391.6 636.3,386.9 636.9,381.6 637.6,375.5 638.3,374.7 639.0,379.7 639.6,381.3 640.3,381.2 641.0,381.1 641.6,378.6 642.3,370.3 643.0,363.4 643.7,360.0 644.3,361.2 645.0,364.2 645.7,367.7 646.3,372.3 647.0,374.1 647.7,373.7 648.4,373.5 649.0,375.3 649.7,376.9 650.4,378.0 651.0,376.5 651.7,374.8 652.4,383.4 653.1,390.9 653.7,393.9 654.4,399.6 655.1,397.2 655.7,386.4 656.4,379.7 657.1,377.9 657.8,379.3 658.4,387.6 659.1,392.3 659.8,398.2 660.4,395.6 661.1,395.0 661.8,395.7 662.5,399.6 663.1,402.1 663.8,401.0 664.5,396.2 665.1,393.6 665.8,393.2 666.5,392.1 667.2,390.5 667.8,385.8 668.5,377.4 669.2,373.5 669.8,369.6 670.5,365.4 671.2,365.8 671.9,368.8 672.5,370.3 673.2,371.2 673.9,373.7 674.5,378.5 675.2,380.2 675.9,380.2 676.6,390.9 677.2,406.6 677.9,424.1 678.6,432.4 679.2,440.5 679.9,441.9 680.6,441.1 681.3,438.3 681.9,434.4 682.6,434.4 683.3,441.0 683.9,437.3 684.6,430.2 685.3,430.8 686.0,430.3 686.6,432.2 687.3,434.5 688.0,431.9 688.6,423.4 689.3,417.4 690.0,417.5 690.7,423.7 691.3,426.8 692.0,426.8 692.7,428.3 693.3,428.5 694.0,429.5 694.7,431.2 695.4,432.1 696.0,432.2 696.7,432.3 697.4,432.4 698.0,432.6 698.7,432.6 699.4,432.8 700.1,433.0 700.7,433.1 701.4,433.1 702.1,433.1 702.7,433.2 703.4,433.2 704.1,433.2 704.8,433.1 705.4,433.1 706.1,433.3 706.8,433.4 707.4,433.4 708.1,433.4 708.8,433.5 709.5,433.5 710.1,433.5 710.8,433.5 711.5,433.5 712.1,433.5 712.8,433.5 713.5,433.6 714.2,433.6 714.8,433.6 715.5,433.6 716.2,433.6 716.8,433.6 717.5,433.6 718.2,430.8 718.9,426.2 719.5,424.6 720.2,422.0 720.9,420.1 721.5,418.4 722.2,417.3 722.9,417.7 723.6,418.8 724.2,422.0 724.9,425.0 725.6,427.2 726.2,427.6 726.9,427.9 727.6,428.1 728.3,428.6 728.9,428.9 729.6,428.9 730.3,428.8 730.9,428.8 731.6,427.9 732.3,426.8 733.0,426.6 733.6,427.4 734.3,429.4 735.0,429.5 735.6,429.5 736.3,429.5 737.0,429.4 737.7,428.4 738.3,427.8 739.0,427.8 739.7,427.7 740.3,427.7 741.0,427.7 741.7,427.7 742.4,427.6 743.0,427.6 743.7,427.8 744.4,427.8 745.0,428.0 745.7,428.1 746.4,428.4 747.1,428.6 747.7,428.6 748.4,428.6 749.1,428.6 749.7,428.6 750.4,428.6 751.1,429.4 751.8,432.5 752.4,436.1 753.1,437.0 753.8,437.1 754.4,438.8 755.1,439.4 755.8,438.7 756.5,437.0 757.1,432.7 757.8,421.3 758.5,406.4 759.1,395.7 759.8,393.3 760.5,404.3 761.2,417.6 761.8,427.0 762.5,428.5 763.2,416.1 763.8,399.3 764.5,391.1 765.2,393.7 765.9,405.9 766.5,417.1 767.2,421.6 767.9,423.0 768.5,423.4 769.2,425.1 769.9,425.8 770.6,421.6 771.2,421.4 771.9,421.3 772.6,417.8 773.2,415.7 773.9,417.1 774.6,412.8 775.3,403.6 775.9,397.6 776.6,399.3 777.3,418.3 777.9,435.2 778.6,431.5 779.3,411.8 780.0,406.3 780.6,401.4 781.3,399.2 782.0,400.7 782.6,403.6 783.3,416.8 784.0,426.9 784.7,434.7 785.3,437.3 786.0,436.4 786.7,435.9 787.3,435.1 788.0,433.7 788.7,433.1 789.4,429.9 790.0,422.6 790.7,421.5 791.4,421.3 792.0,420.0 792.7,421.0 793.4,434.1 794.1,445.7 794.7,448.8 795.4,449.1 796.1,449.1 796.7,451.1 797.4,451.3 798.1,449.1 798.8,446.4 799.4,444.9 800.1,444.9 800.8,444.9 801.4,445.2 802.1,445.2 802.8,444.5 803.5,444.2 804.1,444.2 804.8,444.3 805.5,444.3 806.1,444.3 806.8,444.3 807.5,444.1 808.2,443.5 808.8,442.8 809.5,442.5 810.2,442.3 810.8,442.1 811.5,439.1 812.2,434.5 812.9,422.0 813.5,421.9 814.2,429.6 814.9,440.7 815.5,441.6 816.2,440.3 816.9,439.3 817.6,438.3 818.2,436.7 818.9,435.4 819.6,434.7 820.2,434.3 820.9,434.1 821.6,434.4 822.3,434.5 822.9,434.5 823.6,434.5 824.3,434.5 824.9,434.5 825.6,434.5 826.3,434.5 827.0,434.5 827.6,434.5 828.3,434.5 829.0,434.5 829.6,434.5 830.3,434.7 831.0,435.0 831.7,435.2 832.3,435.2 833.0,435.2 833.7,435.2 834.3,435.8 835.0,437.3 835.7,444.4 836.4,452.5 837.0,454.9 837.7,457.5 838.4,458.8 839.1,458.7 839.7,458.0 840.4,450.8 841.1,445.1 841.7,440.6 842.4,438.6 843.1,434.8 843.8,431.2 844.4,430.5 845.1,430.0 845.8,429.5 846.4,429.4 847.1,429.4 847.8,429.4 848.5,429.4 849.1,429.4 849.8,429.4 850.5,426.4 851.1,421.6 851.8,421.3 852.5,421.3 853.2,421.3 853.8,421.3 854.5,421.3 855.2,421.3 855.8,421.3 856.5,421.3 857.2,421.3 857.9,421.3 858.5,421.3 859.2,421.3 859.9,421.3"/><line x1="47.3" y1="360" x2="47.3" y2="470" stroke="#f0a000" stroke-dasharray="4 3"/><line x1="47.3" y1="360" x2="47.3" y2="470" stroke="#f0a000" stroke-dasharray="4 3"/><line x1="47.3" y1="360" x2="47.3" y2="470" stroke="#f0a000" stroke-dasharray="4 3"/><line x1="47.3" y1="360" x2="47.3" y2="470" stroke="#f0a000" stroke-dasharray="4 3"/><line x1="47.3" y1="360" x2="47.3" y2="470" stroke="#f0a000" stroke-dasharray="4 3"/><line x1="47.3" y1="360" x2="47.3" y2="470" stroke="#f0a000" stroke-dasharray="4 3"/><line x1="47.3" y1="360" x2="47.3" y2="470" stroke="#f0a000" stroke-dasharray="4 3"/><line x1="90.4" y1="360" x2="90.4" y2="470" stroke="#f0a000" stroke-dasharray="4 3"/><line x1="103.1" y1="360" x2="103.1" y2="470" stroke="#f0a000" stroke-dasharray="4 3"/><line x1="248.7" y1="360" x2="248.7" y2="470" stroke="#f0a000" stroke-dasharray="4 3"/><line x1="265.3" y1="360" x2="265.3" y2="470" stroke="#f0a000" stroke-dasharray="4 3"/><line x1="369.9" y1="360" x2="369.9" y2="470" stroke="#f0a000" stroke-dasharray="4 3"/><line x1="390.5" y1="360" x2="390.5" y2="470" stroke="#f0a000" stroke-dasharray="4 3"/><line x1="500.5" y1="360" x2="500.5" y2="470" stroke="#f0a000" stroke-dasharray="4 3"/><line x1="519.2" y1="360" x2="519.2" y2="470" stroke="#f0a000" stroke-dasharray="4 3"/><line x1="600.3" y1="360" x2="600.3" y2="470" stroke="#f0a000" stroke-dasharray="4 3"/><line x1="614.3" y1="360" x2="614.3" y2="470" stroke="#f0a000" stroke-dasharray="4 3"/><line x1="701.4" y1="360" x2="701.4" y2="470" stroke="#f0a000" stroke-dasharray="4 3"/><line x1="715.3" y1="360" x2="715.3" y2="470" stroke="#f0a000" stroke-dasharray="4 3"/><line x1="820.9" y1="360" x2="820.9" y2="470" stroke="#f0a000" stroke-dasharray="4 3"/><line x1="833.3" y1="360" x2="833.3" y2="470" stroke="#f0a000" stroke-dasharray="4 3"/></svg>